SplineFontDB: 3.2
FontName: LegionIcons3.0
FullName: LegionIcons3.0
FamilyName: LegionIcons
Weight: Book
Copyright: Originally Copyright (c) 2018, Owen Appleton.\nUpdated by lyerelian\nUpdated and maintained by Retinue, Copright (c) 2020
Version: 3.0
ItalicAngle: 0
UnderlinePosition: -151
UnderlineWidth: 51
Ascent: 819
Descent: 205
InvalidEm: 0
sfntRevision: 0x00010000
LayerCount: 2
Layer: 0 1 "Back" 1
Layer: 1 1 "Fore" 0
XUID: [1021 336 1292634261 31930]
StyleMap: 0x0000
FSType: 0
OS2Version: 4
OS2_WeightWidthSlopeOnly: 0
OS2_UseTypoMetrics: 1
CreationTime: 1521795584
ModificationTime: 1608426727
PfmFamily: 17
TTFWeight: 400
TTFWidth: 5
LineGap: 92
VLineGap: 0
Panose: 2 0 5 3 0 0 0 0 0 0
OS2TypoAscent: 819
OS2TypoAOffset: 0
OS2TypoDescent: -205
OS2TypoDOffset: 0
OS2TypoLinegap: 92
OS2WinAscent: 845
OS2WinAOffset: 0
OS2WinDescent: 236
OS2WinDOffset: 0
HheadAscent: 845
HheadAOffset: 0
HheadDescent: -236
HheadDOffset: 0
OS2SubXSize: 665
OS2SubYSize: 716
OS2SubXOff: 0
OS2SubYOff: 143
OS2SupXSize: 665
OS2SupYSize: 716
OS2SupXOff: 0
OS2SupYOff: 491
OS2StrikeYSize: 51
OS2StrikeYPos: 265
OS2CapHeight: 718
OS2XHeight: 714
OS2Vendor: 'PfEd'
OS2CodePages: 00000001.00000000
OS2UnicodeRanges: 00000001.00000000.00000000.00000000
MarkAttachClasses: 1
DEI: 91125
ShortTable: cvt  2
  34
  648
EndShort
ShortTable: maxp 16
  1
  0
  47
  1424
  21
  0
  0
  2
  0
  1
  1
  0
  64
  46
  0
  0
EndShort
LangName: 1033 "" "" "Regular"
GaspTable: 1 65535 2 0
Encoding: UnicodeBmp
UnicodeInterp: none
NameList: AGL For New Fonts
DisplaySize: -48
AntiAlias: 1
FitToEm: 0
WinInfo: 0 16 10
BeginPrivate: 0
EndPrivate
BeginChars: 65539 50

StartChar: .notdef
Encoding: 65536 -1 0
Width: 374
Flags: W
LayerCount: 2
Fore
SplineSet
34 0 m 1,0,-1
 34 682 l 1,1,-1
 306 682 l 1,2,-1
 306 0 l 1,3,-1
 34 0 l 1,0,-1
68 34 m 1,4,-1
 272 34 l 1,5,-1
 272 648 l 1,6,-1
 68 648 l 1,7,-1
 68 34 l 1,4,-1
EndSplineSet
Validated: 1
EndChar

StartChar: exclam
Encoding: 33 33 3
Width: 1042
Flags: W
LayerCount: 2
Fore
SplineSet
475 579 m 1,0,1
 471 645 471 645 431 701 c 1,2,3
 461 736 461 736 521 805 c 1,4,5
 521 805 521 805 613 701 c 1,6,7
 572 643 572 643 568 579 c 1,8,9
 607 637 607 637 656 656 c 1,10,11
 675 635 675 635 714 591 c 1,12,13
 672 573 672 573 650 549 c 0,14,15
 629 525 629 525 622 511 c 0,16,17
 591 447 591 447 588 406 c 0,18,19
 587 389 587 389 587 379 c 2,20,21
 587 379 587 379 587 366 c 2,22,23
 587 366 587 366 587 354 c 0,24,25
 587 345 587 345 593 315 c 0,26,27
 600 285 600 285 620 255 c 1,28,29
 655 214 655 214 700 214 c 0,30,31
 720 215 720 215 741 222 c 0,32,33
 773 232 773 232 803 260 c 0,34,35
 885 344 885 344 885 453 c 2,36,37
 885 453 885 453 885 465 c 0,38,39
 880 520 880 520 864 561 c 0,40,41
 831 646 831 646 803 681 c 0,42,43
 775 717 775 717 772 720 c 256,44,45
 769 723 769 723 773 721 c 0,46,47
 775 720 775 720 775 722 c 1,48,49
 888 648 888 648 950 538 c 256,50,51
 1012 428 1012 428 1012 313 c 2,52,53
 1012 313 1012 313 1012 285 c 2,54,55
 1012 285 1012 285 1012 273 c 2,56,57
 1012 273 1012 273 1012 264 c 2,58,59
 1012 264 1012 264 1012 256 c 0,60,61
 1012 203 1012 203 977 113 c 0,62,63
 943 26 943 26 874 -47 c 0,64,65
 809 -118 809 -118 718 -159 c 0,66,67
 627 -201 627 -201 521 -201 c 0,68,69
 417 -201 417 -201 326 -160 c 0,70,71
 142 -76 142 -76 66 117 c 0,72,73
 31 204 31 204 31 298 c 2,74,75
 31 298 31 298 31 313 c 0,76,77
 36 435 36 435 95 542 c 0,78,79
 154 648 154 648 265 722 c 0,80,81
 268 720 268 720 270 721 c 0,82,83
 271 722 271 722 268 719 c 0,84,85
 266 717 266 717 250 696 c 0,86,87
 208 642 208 642 184 576 c 256,88,89
 160 510 160 510 160 465 c 2,90,91
 160 465 160 465 160 445 c 2,92,93
 160 445 160 445 160 438 c 2,94,95
 160 438 160 438 160 433 c 2,96,97
 160 433 160 433 160 429 c 0,98,99
 160 407 160 407 177 357 c 0,100,101
 196 306 196 306 242 260 c 0,102,103
 283 222 283 222 330 215 c 0,104,105
 337 214 337 214 343 214 c 0,106,107
 388 215 388 215 422 255 c 1,108,109
 457 307 457 307 457 377 c 0,110,111
 457 391 457 391 456 406 c 0,112,113
 453 450 453 450 422 511 c 0,114,115
 409 538 409 538 383 559 c 256,116,117
 357 580 357 580 331 591 c 1,118,119
 350 613 350 613 388 656 c 1,120,121
 437 635 437 635 475 579 c 1,0,1
EndSplineSet
Validated: 1
EndChar

StartChar: quotedbl
Encoding: 34 34 4
Width: 1136
Flags: W
LayerCount: 2
Fore
SplineSet
569 -236 m 0,0,1
 514 -236 514 -236 462 -225 c 256,2,3
 410 -214 410 -214 360 -191 c 0,4,5
 165 -102 165 -102 83 102 c 0,6,7
 46 195 46 195 46 296 c 2,8,9
 46 296 46 296 46 312 c 0,10,11
 48 377 48 377 66 438 c 0,12,13
 83 499 83 499 114 556 c 0,14,15
 177 669 177 669 296 748 c 2,16,17
 296 748 296 748 305 754 c 0,18,19
 307 752 307 752 313 748 c 0,20,21
 315 745 315 745 317 745 c 0,22,23
 318 745 318 745 318 744 c 0,24,25
 322 742 322 742 332 734 c 1,26,27
 329 731 329 731 321 721 c 0,28,29
 318 718 318 718 315 714 c 0,30,31
 313 711 313 711 310 707 c 2,32,33
 310 707 310 707 302 697 c 0,34,35
 260 642 260 642 236 578 c 0,36,37
 212 512 212 512 212 468 c 2,38,39
 212 468 212 468 212 431 c 0,40,41
 212 424 212 424 215 408 c 256,42,43
 218 392 218 392 229 362 c 0,44,45
 246 314 246 314 292 268 c 0,46,47
 331 232 331 232 374 226 c 1,48,49
 374 226 374 226 380 226 c 0,50,51
 383 225 383 225 385 225 c 0,52,53
 424 227 424 227 454 261 c 1,54,55
 486 311 486 311 486 378 c 2,56,57
 486 378 486 378 486 392 c 0,58,59
 485 398 485 398 485 406 c 0,60,61
 482 450 482 450 452 509 c 0,62,63
 439 535 439 535 416 553 c 0,64,65
 390 573 390 573 366 584 c 0,66,67
 359 586 359 586 345 592 c 1,68,69
 366 615 366 615 427 686 c 0,70,71
 430 685 430 685 438 681 c 0,72,73
 466 669 466 669 494 645 c 1,74,75
 482 676 482 676 463 703 c 0,76,77
 460 707 460 707 456 714 c 1,78,79
 484 746 484 746 569 845 c 1,80,81
 598 812 598 812 685 714 c 0,82,83
 683 711 683 711 678 703 c 0,84,85
 658 677 658 677 647 646 c 1,86,87
 675 670 675 670 702 682 c 0,88,89
 706 683 706 683 714 686 c 1,90,91
 734 663 734 663 796 592 c 1,92,93
 790 590 790 590 774 584 c 0,94,95
 736 567 736 567 715 545 c 0,96,97
 701 530 701 530 695 522 c 0,98,99
 689 513 689 513 687 509 c 0,100,101
 657 444 657 444 654 406 c 0,102,103
 653 397 653 397 653 391 c 2,104,105
 653 391 653 391 653 380 c 2,106,107
 653 380 653 380 653 354 c 0,108,109
 653 352 653 352 654 345 c 0,110,111
 655 337 655 337 659 317 c 0,112,113
 666 288 666 288 684 261 c 1,114,115
 717 225 717 225 754 225 c 0,116,117
 763 226 763 226 772 228 c 0,118,119
 781 229 781 229 792 233 c 0,120,121
 820 243 820 243 849 269 c 0,122,123
 929 351 929 351 929 456 c 2,124,125
 929 456 929 456 929 468 c 0,126,127
 926 495 926 495 921 518 c 0,128,129
 916 542 916 542 908 562 c 0,130,131
 876 648 876 648 848 682 c 0,132,133
 840 690 840 690 834 698 c 256,134,135
 828 706 828 706 824 711 c 0,136,137
 820 717 820 717 816 721 c 0,138,139
 811 727 811 727 802 738 c 1,140,141
 810 742 810 742 834 753 c 0,142,143
 835 751 835 751 841 748 c 0,144,145
 959 670 959 670 1026 552 c 256,146,147
 1093 434 1093 434 1093 312 c 2,148,149
 1093 312 1093 312 1093 253 c 256,150,151
 1093 194 1093 194 1055 98 c 0,152,153
 1020 6 1020 6 946 -72 c 0,154,155
 878 -146 878 -146 779 -191 c 0,156,157
 684 -236 684 -236 569 -236 c 0,0,1
239 662 m 1,158,159
 181 608 181 608 143 540 c 0,160,161
 84 434 84 434 79 311 c 1,162,163
 79 311 79 311 79 296 c 0,164,165
 79 200 79 200 114 115 c 0,166,167
 191 -79 191 -79 374 -162 c 0,168,169
 463 -203 463 -203 569 -203 c 0,170,171
 622 -203 622 -203 671 -193 c 0,172,173
 720 -182 720 -182 766 -162 c 0,174,175
 856 -121 856 -121 923 -49 c 0,176,177
 991 24 991 24 1025 111 c 0,178,179
 1042 156 1042 156 1051 191 c 256,180,181
 1060 226 1060 226 1060 253 c 2,182,183
 1060 253 1060 253 1060 312 c 0,184,185
 1060 425 1060 425 997 536 c 0,186,187
 958 605 958 605 901 658 c 1,188,189
 910 641 910 641 920 620 c 0,190,191
 929 599 929 599 939 573 c 0,192,193
 947 551 947 551 953 525 c 0,194,195
 958 500 958 500 962 470 c 1,196,197
 962 470 962 470 962 468 c 2,198,199
 962 468 962 468 962 456 c 0,200,201
 962 338 962 338 871 246 c 0,202,203
 839 215 839 215 802 202 c 0,204,205
 777 194 777 194 755 193 c 0,206,207
 700 193 700 193 658 241 c 1,208,209
 658 241 658 241 657 243 c 0,210,211
 636 275 636 275 628 310 c 0,212,213
 623 332 623 332 622 341 c 256,214,215
 621 350 621 350 621 354 c 2,216,217
 621 354 621 354 621 380 c 2,218,219
 621 380 621 380 621 392 c 0,220,221
 621 399 621 399 622 409 c 0,222,223
 625 454 625 454 658 523 c 0,224,225
 667 542 667 542 690 566 c 0,226,227
 708 587 708 587 741 604 c 1,228,229
 741 604 741 604 705 646 c 1,230,231
 665 626 665 626 632 577 c 0,232,233
 621 560 621 560 598 526 c 1,234,235
 599 541 599 541 601 587 c 0,236,237
 606 652 606 652 644 712 c 1,238,239
 619 739 619 739 569 795 c 1,240,241
 551 774 551 774 497 712 c 1,242,243
 515 682 515 682 525 651 c 0,244,245
 536 621 536 621 538 587 c 0,246,247
 539 567 539 567 542 526 c 1,248,249
 533 539 533 539 508 577 c 0,250,251
 475 625 475 625 435 646 c 1,252,253
 423 632 423 632 398 604 c 1,254,255
 409 599 409 599 418 592 c 0,256,257
 427 586 427 586 436 578 c 0,258,259
 466 554 466 554 481 523 c 0,260,261
 513 458 513 458 518 409 c 0,262,263
 518 400 518 400 519 393 c 2,264,265
 519 393 519 393 519 378 c 0,266,267
 519 300 519 300 480 243 c 0,268,269
 480 242 480 242 479 241 c 0,270,271
 439 195 439 195 385 193 c 2,272,273
 385 193 385 193 377 193 c 0,274,275
 374 194 374 194 369 195 c 0,276,277
 314 203 314 203 269 245 c 0,278,279
 218 295 218 295 199 352 c 0,280,281
 179 404 179 404 179 431 c 2,282,283
 179 431 179 431 179 468 c 0,284,285
 179 494 179 494 186 523 c 0,286,287
 193 553 193 553 205 589 c 0,288,289
 218 625 218 625 239 662 c 1,158,159
EndSplineSet
Validated: 1
EndChar

StartChar: numbersign
Encoding: 35 35 5
Width: 1033
Flags: W
LayerCount: 2
Fore
SplineSet
900 85 m 1,0,1
 911 105 911 105 920 126 c 0,2,3
 928 147 928 147 933 173 c 0,4,5
 941 200 941 200 944 227 c 0,6,7
 947 255 947 255 947 282 c 0,8,9
 947 311 947 311 944 339 c 0,10,11
 941 368 941 368 933 394 c 0,12,13
 928 418 928 418 920 438 c 0,14,15
 911 459 911 459 900 481 c 1,16,17
 894 478 894 478 882 470 c 1,18,19
 892 451 892 451 900 431 c 256,20,21
 908 411 908 411 915 390 c 1,22,23
 898 385 898 385 864 376 c 1,24,25
 877 331 877 331 877 282 c 0,26,27
 877 234 877 234 864 190 c 1,28,29
 881 186 881 186 915 176 c 1,30,31
 901 132 901 132 882 95 c 1,32,33
 888 92 888 92 900 85 c 1,0,1
821 -22 m 0,34,35
 838 -6 838 -6 852 12 c 0,36,37
 867 31 867 31 879 50 c 1,38,39
 873 54 873 54 862 60 c 1,40,41
 851 41 851 41 838 24 c 0,42,43
 824 7 824 7 807 -7 c 1,44,45
 795 5 795 5 772 29 c 1,46,47
 739 -4 739 -4 698 -28 c 0,48,49
 656 -52 656 -52 610 -66 c 1,50,51
 614 -82 614 -82 623 -114 c 1,52,53
 580 -126 580 -126 534 -129 c 1,54,55
 534 -129 534 -129 534 -147 c 1,56,57
 557 -147 557 -147 581 -143 c 256,58,59
 605 -139 605 -139 629 -133 c 0,60,61
 685 -119 685 -119 734 -90 c 0,62,63
 782 -60 782 -60 821 -22 c 0,34,35
493 -127 m 1,64,65
 450 -127 450 -127 412 -114 c 1,66,67
 415 -98 415 -98 423 -66 c 1,68,69
 330 -39 330 -39 261 29 c 1,70,71
 250 17 250 17 226 -7 c 1,72,73
 194 22 194 22 171 60 c 1,74,75
 166 57 166 57 156 50 c 1,76,77
 167 31 167 31 181 12 c 0,78,79
 196 -6 196 -6 212 -22 c 0,80,81
 251 -60 251 -60 300 -90 c 0,82,83
 349 -119 349 -119 404 -133 c 0,84,85
 427 -139 427 -139 449 -142 c 256,86,87
 471 -145 471 -145 493 -147 c 1,88,89
 493 -147 493 -147 493 -127 c 1,64,65
152 95 m 1,90,91
 132 132 132 132 118 176 c 1,92,93
 135 181 135 181 170 190 c 1,94,95
 157 233 157 233 157 282 c 0,96,97
 157 333 157 333 170 376 c 1,98,99
 153 381 153 381 118 390 c 1,100,101
 125 411 125 411 133 431 c 256,102,103
 141 451 141 451 152 470 c 1,104,105
 146 474 146 474 134 481 c 1,106,107
 122 459 122 459 114 438 c 0,108,109
 105 418 105 418 100 394 c 0,110,111
 86 340 86 340 86 282 c 0,112,113
 86 255 86 255 89 227 c 0,114,115
 92 200 92 200 100 173 c 0,116,117
 111 125 111 125 134 85 c 1,118,119
 140 88 140 88 152 95 c 1,90,91
212 587 m 0,120,121
 196 572 196 572 181 554 c 0,122,123
 167 536 167 536 156 516 c 1,124,125
 161 513 161 513 171 506 c 1,126,127
 182 524 182 524 196 542 c 0,128,129
 210 559 210 559 226 572 c 1,130,131
 238 561 238 561 261 538 c 1,132,133
 295 570 295 570 336 595 c 256,134,135
 377 620 377 620 423 632 c 1,136,137
 419 648 419 648 412 681 c 1,138,139
 429 686 429 686 451 690 c 0,140,141
 472 693 472 693 493 694 c 1,142,143
 493 694 493 694 493 713 c 1,144,145
 471 712 471 712 449 709 c 256,146,147
 427 706 427 706 404 698 c 0,148,149
 349 685 349 685 300 655 c 0,150,151
 251 626 251 626 212 587 c 0,120,121
664 282 m 0,152,153
 664 292 664 292 662 302 c 0,154,155
 660 311 660 311 659 321 c 1,156,157
 709 334 709 334 807 360 c 1,158,159
 797 399 797 399 777 434 c 256,160,161
 757 469 757 469 730 496 c 1,162,163
 694 459 694 459 621 386 c 1,164,165
 607 400 607 400 590 410 c 0,166,167
 572 419 572 419 553 425 c 1,168,169
 567 474 567 474 594 572 c 1,170,171
 575 577 575 577 556 580 c 256,172,173
 537 583 537 583 518 583 c 0,174,175
 498 583 498 583 478 580 c 256,176,177
 458 577 458 577 439 572 c 1,178,179
 453 523 453 523 480 425 c 1,180,181
 461 419 461 419 444 410 c 0,182,183
 427 400 427 400 413 386 c 1,184,185
 413 386 413 386 303 496 c 1,186,187
 276 469 276 469 257 434 c 256,188,189
 238 399 238 399 227 360 c 1,190,191
 278 347 278 347 378 321 c 1,192,193
 371 303 371 303 371 282 c 0,194,195
 371 273 371 273 372 264 c 0,196,197
 374 254 374 254 378 246 c 1,198,199
 328 232 328 232 227 205 c 1,200,201
 238 167 238 167 257 133 c 256,202,203
 276 99 276 99 303 70 c 1,204,205
 340 106 340 106 413 180 c 1,206,207
 427 168 427 168 444 158 c 0,208,209
 461 147 461 147 480 143 c 1,210,211
 467 93 467 93 439 -7 c 1,212,213
 458 -12 458 -12 478 -15 c 0,214,215
 498 -17 498 -17 518 -17 c 0,216,217
 537 -17 537 -17 556 -15 c 0,218,219
 575 -12 575 -12 594 -7 c 1,220,221
 580 43 580 43 553 143 c 1,222,223
 572 147 572 147 590 157 c 0,224,225
 607 166 607 166 621 180 c 1,226,227
 657 143 657 143 730 70 c 1,228,229
 757 98 757 98 777 132 c 256,230,231
 797 166 797 166 807 205 c 1,232,233
 758 218 758 218 659 246 c 1,234,235
 660 254 660 254 662 264 c 0,236,237
 664 273 664 273 664 282 c 0,152,153
534 694 m 1,238,239
 557 693 557 693 579 690 c 0,240,241
 601 686 601 686 623 681 c 1,242,243
 618 665 618 665 610 632 c 1,244,245
 656 620 656 620 698 595 c 0,246,247
 739 570 739 570 772 538 c 1,248,249
 772 538 772 538 807 573 c 1,250,251
 824 559 824 559 838 542 c 0,252,253
 851 524 851 524 862 506 c 1,254,255
 868 509 868 509 879 516 c 1,256,257
 867 536 867 536 852 554 c 0,258,259
 838 572 838 572 821 587 c 0,260,261
 782 626 782 626 734 656 c 0,262,263
 685 686 685 686 629 701 c 0,264,265
 605 707 605 707 581 710 c 256,266,267
 557 713 557 713 534 713 c 1,268,269
 534 713 534 713 534 694 c 1,238,239
986 409 m 0,270,271
 994 379 994 379 998 347 c 256,272,273
 1002 315 1002 315 1002 282 c 256,274,275
 1002 249 1002 249 998 217 c 256,276,277
 994 185 994 185 986 156 c 0,278,279
 969 94 969 94 937 39 c 0,280,281
 905 -15 905 -15 860 -60 c 0,282,283
 816 -106 816 -106 760 -138 c 0,284,285
 705 -169 705 -169 642 -186 c 0,286,287
 612 -195 612 -195 581 -199 c 256,288,289
 550 -203 550 -203 518 -203 c 0,290,291
 484 -203 484 -203 453 -199 c 256,292,293
 422 -195 422 -195 392 -186 c 0,294,295
 329 -169 329 -169 273 -138 c 0,296,297
 217 -106 217 -106 173 -60 c 0,298,299
 129 -15 129 -15 97 39 c 0,300,301
 65 94 65 94 47 156 c 0,302,303
 39 185 39 185 35 217 c 256,304,305
 31 249 31 249 31 282 c 256,306,307
 31 315 31 315 35 347 c 256,308,309
 39 379 39 379 47 409 c 0,310,311
 65 472 65 472 97 527 c 256,312,313
 129 582 129 582 173 626 c 0,314,315
 217 672 217 672 273 703 c 256,316,317
 329 734 329 734 392 752 c 0,318,319
 449 768 449 768 518 768 c 0,320,321
 550 768 550 768 581 764 c 256,322,323
 612 760 612 760 642 752 c 0,324,325
 705 734 705 734 760 703 c 0,326,327
 816 672 816 672 860 626 c 0,328,329
 905 582 905 582 937 527 c 256,330,331
 969 472 969 472 986 409 c 0,270,271
EndSplineSet
Validated: 1
EndChar

StartChar: dollar
Encoding: 36 36 6
Width: 923
Flags: W
LayerCount: 2
Fore
SplineSet
708 497 m 1,0,1
 684 474 684 474 613 407 c 1,2,3
 642 420 642 420 729 461 c 1,4,5
 737 444 737 444 745 428 c 256,6,7
 753 412 753 412 758 392 c 1,8,9
 758 392 758 392 635 338 c 1,10,11
 668 342 668 342 769 352 c 1,12,13
 769 338 769 338 771 327 c 0,14,15
 772 316 772 316 772 305 c 256,16,17
 772 294 772 294 771 285 c 0,18,19
 769 276 769 276 769 265 c 1,20,21
 727 267 727 267 642 269 c 1,22,23
 642 269 642 269 762 225 c 1,24,25
 757 206 757 206 749 185 c 0,26,27
 740 165 740 165 729 145 c 1,28,29
 691 163 691 163 613 200 c 1,30,31
 637 179 637 179 708 117 c 1,32,33
 693 100 693 100 679 87 c 0,34,35
 666 74 666 74 649 62 c 1,36,37
 620 93 620 93 562 154 c 1,38,39
 576 124 576 124 616 37 c 1,40,41
 616 37 616 37 584 21 c 0,42,43
 567 13 567 13 548 8 c 1,44,45
 548 8 548 8 494 131 c 1,46,47
 496 98 496 98 505 -3 c 1,48,49
 494 -3 494 -3 483 -5 c 0,50,51
 472 -6 472 -6 461 -6 c 256,52,53
 450 -6 450 -6 439 -5 c 0,54,55
 429 -3 429 -3 418 -3 c 1,56,57
 423 42 423 42 432 131 c 1,58,59
 419 100 419 100 378 8 c 1,60,61
 358 13 358 13 340 19 c 0,62,63
 323 26 323 26 305 37 c 1,64,65
 325 76 325 76 364 154 c 1,66,67
 341 130 341 130 273 59 c 1,68,69
 256 73 256 73 243 86 c 0,70,71
 229 99 229 99 218 114 c 1,72,73
 248 142 248 142 309 200 c 1,74,75
 280 186 280 186 194 145 c 1,76,77
 182 165 182 165 174 184 c 0,78,79
 166 204 166 204 161 225 c 1,80,81
 202 240 202 240 284 269 c 1,82,83
 251 268 251 268 154 265 c 1,84,85
 151 276 151 276 150 285 c 2,86,87
 150 285 150 285 150 305 c 0,88,89
 150 316 150 316 152 329 c 0,90,91
 154 341 154 341 154 352 c 1,92,93
 198 347 198 347 288 338 c 1,94,95
 257 351 257 351 164 392 c 1,96,97
 168 403 168 403 172 416 c 0,98,99
 176 427 176 427 181 440 c 256,100,101
 186 453 186 453 194 465 c 1,102,103
 233 445 233 445 312 407 c 1,104,105
 288 429 288 429 215 497 c 1,106,107
 215 497 215 497 243 525 c 0,108,109
 256 540 256 540 273 551 c 1,110,111
 301 520 301 520 356 458 c 1,112,113
 344 487 344 487 305 573 c 1,114,115
 323 585 323 585 343 592 c 0,116,117
 364 600 364 600 385 606 c 1,118,119
 398 566 398 566 425 486 c 1,120,121
 425 486 425 486 425 613 c 1,122,123
 433 615 433 615 441 616 c 2,124,125
 441 616 441 616 461 616 c 2,126,127
 461 616 461 616 481 616 c 0,128,129
 489 615 489 615 501 613 c 1,130,131
 500 571 500 571 498 486 c 1,132,133
 508 516 508 516 541 606 c 1,134,135
 560 600 560 600 581 592 c 0,136,137
 601 585 601 585 621 573 c 1,138,139
 602 535 602 535 566 458 c 1,140,141
 588 481 588 481 653 551 c 1,142,143
 667 537 667 537 708 497 c 1,0,1
830 519 m 1,144,145
 830 519 830 519 830 95 c 1,146,147
 738 41 738 41 461 -122 c 1,148,149
 369 -68 369 -68 92 95 c 1,150,151
 92 95 92 95 92 519 c 1,152,153
 184 573 184 573 461 736 c 1,154,155
 553 682 553 682 830 519 c 1,144,145
461 -25 m 0,156,157
 528 -25 528 -25 589 2 c 0,158,159
 649 28 649 28 693 72 c 0,160,161
 738 117 738 117 764 177 c 0,162,163
 791 238 791 238 791 305 c 0,164,165
 791 373 791 373 764 433 c 0,166,167
 738 494 738 494 693 538 c 0,168,169
 649 583 649 583 589 609 c 0,170,171
 528 635 528 635 461 635 c 0,172,173
 393 635 393 635 333 609 c 256,174,175
 273 583 273 583 228 538 c 0,176,177
 184 494 184 494 158 433 c 0,178,179
 132 373 132 373 132 305 c 0,180,181
 132 238 132 238 158 177 c 0,182,183
 184 117 184 117 228 72 c 0,184,185
 273 28 273 28 333 2 c 0,186,187
 393 -25 393 -25 461 -25 c 0,156,157
892 555 m 1,188,189
 892 555 892 555 892 59 c 1,190,191
 784 -3 784 -3 461 -190 c 1,192,193
 353 -127 353 -127 31 62 c 1,194,195
 31 62 31 62 31 350 c 2,196,197
 31 350 31 350 31 555 c 1,198,199
 138 617 138 617 461 805 c 1,200,201
 569 742 569 742 892 555 c 1,188,189
859 537 m 1,202,203
 760 595 760 595 461 769 c 1,204,205
 360 711 360 711 59 537 c 1,206,207
 59 537 59 537 59 479 c 2,208,209
 59 479 59 479 59 81 c 1,210,211
 160 22 160 22 461 -155 c 1,212,213
 560 -97 560 -97 859 77 c 1,214,215
 859 77 859 77 859 537 c 1,202,203
EndSplineSet
Validated: 1
EndChar

StartChar: percent
Encoding: 37 37 7
Width: 779
Flags: W
LayerCount: 2
Fore
SplineSet
730 345 m 0,0,1
 739 315 739 315 743 292 c 0,2,3
 749 266 749 266 749 242 c 2,4,5
 749 242 749 242 749 233 c 0,6,7
 749 206 749 206 736 177 c 0,8,9
 726 151 726 151 702 136 c 0,10,11
 678 123 678 123 656 120 c 0,12,13
 635 117 635 117 611 117 c 0,14,15
 603 117 603 117 590 121 c 0,16,17
 578 125 578 125 568 130 c 0,18,19
 559 136 559 136 559 142 c 0,20,21
 559 147 559 147 577 150 c 0,22,23
 587 151 587 151 595 151 c 0,24,25
 604 151 604 151 615 156 c 0,26,27
 631 161 631 161 645 175 c 0,28,29
 653 182 653 182 658 194 c 0,30,31
 664 206 664 206 666 218 c 0,32,33
 669 231 669 231 669 244 c 256,34,35
 669 257 669 257 666 267 c 0,36,37
 663 279 663 279 655 291 c 0,38,39
 648 303 648 303 642 313 c 0,40,41
 631 334 631 334 621 348 c 256,42,43
 611 362 611 362 596 380 c 0,44,45
 584 393 584 393 574 402 c 0,46,47
 564 412 564 412 554 424 c 0,48,49
 548 426 548 426 545 432 c 0,50,51
 542 437 542 437 536 439 c 0,52,53
 531 441 531 441 530 446 c 0,54,55
 528 452 528 452 521 454 c 0,56,57
 520 456 520 456 520 459 c 0,58,59
 520 464 520 464 523 471 c 0,60,61
 526 482 526 482 530 495 c 0,62,63
 535 507 535 507 540 517 c 256,64,65
 545 527 545 527 547 532 c 0,66,67
 550 535 550 535 554 542 c 256,68,69
 558 549 558 549 563 556 c 0,70,71
 569 563 569 563 574 568 c 0,72,73
 577 572 577 572 580 572 c 0,74,75
 582 572 582 572 583 571 c 0,76,77
 588 570 588 570 602 558 c 0,78,79
 615 545 615 545 618 539 c 0,80,81
 629 530 629 530 638 517 c 256,82,83
 647 504 647 504 654 493 c 0,84,85
 662 481 662 481 671 472 c 0,86,87
 681 462 681 462 687 451 c 0,88,89
 700 426 700 426 712 398 c 0,90,91
 724 366 724 366 730 345 c 0,0,1
240 463 m 0,92,93
 246 459 246 459 255 451 c 0,94,95
 265 442 265 442 269 437 c 0,96,97
 270 434 270 434 270 431 c 0,98,99
 270 422 270 422 263 416 c 0,100,101
 254 409 254 409 247 402 c 0,102,103
 237 392 237 392 227 384 c 0,104,105
 218 376 218 376 205 367 c 0,106,107
 191 358 191 358 185 348 c 256,108,109
 179 338 179 338 169 324 c 0,110,111
 154 306 154 306 139 291 c 0,112,113
 126 275 126 275 116 250 c 0,114,115
 108 229 108 229 108 209 c 0,116,117
 108 202 108 202 109 197 c 0,118,119
 115 164 115 164 125 145 c 0,120,121
 139 121 139 121 163 117 c 0,122,123
 176 115 176 115 190 115 c 0,124,125
 199 115 199 115 210 116 c 256,126,127
 221 117 221 117 231 118 c 0,128,129
 242 120 242 120 241 102 c 256,130,131
 240 84 240 84 226 78 c 0,132,133
 212 73 212 73 198 70 c 0,134,135
 183 67 183 67 166 67 c 0,136,137
 146 68 146 68 131 71 c 0,138,139
 115 74 115 74 103 84 c 0,140,141
 92 94 92 94 81 108 c 0,142,143
 62 126 62 126 51 148 c 0,144,145
 39 171 39 171 34 200 c 0,146,147
 31 225 31 225 31 233 c 2,148,149
 31 233 31 233 31 240 c 2,150,151
 31 240 31 240 31 244 c 0,152,153
 31 253 31 253 34 265 c 0,154,155
 36 272 36 272 43 294 c 0,156,157
 47 308 47 308 53 324 c 0,158,159
 63 365 63 365 81 402 c 256,160,161
 99 439 99 439 127 469 c 0,162,163
 131 475 131 475 148 488 c 0,164,165
 165 502 165 502 179 505 c 0,166,167
 184 507 184 507 188 507 c 256,168,169
 192 507 192 507 195 504 c 0,170,171
 202 499 202 499 208 493 c 0,172,173
 216 482 216 482 223 476 c 0,174,175
 229 469 229 469 240 463 c 0,92,93
343 131 m 0,176,177
 346 125 346 125 346 112 c 2,178,179
 346 112 346 112 346 106 c 0,180,181
 345 89 345 89 345 80 c 2,182,183
 345 80 345 80 345 57 c 2,184,185
 345 57 345 57 345 45 c 2,186,187
 345 45 345 45 345 38 c 0,188,189
 346 34 346 34 344 11 c 0,190,191
 341 -34 341 -34 339 -56 c 1,192,193
 328 -47 328 -47 328 -34 c 0,194,195
 328 -20 328 -20 326 -7 c 0,196,197
 323 8 323 8 321 23 c 0,198,199
 319 37 319 37 316 51 c 0,200,201
 315 54 315 54 312 74 c 0,202,203
 308 94 308 94 306 115 c 0,204,205
 305 125 305 125 305 129 c 0,206,207
 306 141 306 141 307 150 c 0,208,209
 309 161 309 161 316 161 c 0,210,211
 318 161 318 161 321 160 c 1,212,213
 319 159 319 159 316 159 c 1,214,215
 316 159 316 159 331 144 c 0,216,217
 339 137 339 137 343 131 c 0,176,177
483 78 m 0,218,219
 484 68 484 68 484 57 c 0,220,221
 484 41 484 41 481 23 c 0,222,223
 476 -9 476 -9 476 -34 c 0,224,225
 476 -46 476 -46 478 -58 c 0,226,227
 480 -71 480 -71 480 -84 c 0,228,229
 480 -87 480 -87 478 -95 c 256,230,231
 476 -103 476 -103 473 -112 c 256,232,233
 470 -121 470 -121 465 -126 c 0,234,235
 463 -128 463 -128 461 -128 c 0,236,237
 458 -128 458 -128 456 -124 c 0,238,239
 450 -122 450 -122 453 -112 c 0,240,241
 456 -101 456 -101 457 -95 c 0,242,243
 457 -87 457 -87 458 -78 c 256,244,245
 459 -69 459 -69 457 -59 c 0,246,247
 456 -45 456 -45 452 -30 c 0,248,249
 447 -15 447 -15 447 1 c 0,250,251
 445 17 445 17 445 33 c 2,252,253
 445 33 445 33 445 41 c 1,254,255
 446 41 446 41 446 44 c 0,256,257
 446 61 446 61 441 80 c 0,258,259
 436 94 436 94 434 111 c 0,260,261
 433 113 433 113 433 115 c 0,262,263
 433 128 433 128 447 137 c 1,264,265
 447 137 447 137 445 137 c 1,266,267
 451 144 451 144 459 146 c 2,268,269
 459 146 459 146 462 146 c 0,270,271
 468 146 468 146 470 140 c 0,272,273
 472 137 472 137 472 125 c 0,274,275
 472 114 472 114 473 109 c 0,276,277
 476 100 476 100 478 93 c 0,278,279
 480 85 480 85 483 78 c 0,218,219
555 663 m 0,280,281
 562 648 562 648 562 628 c 2,282,283
 562 628 562 628 562 616 c 0,284,285
 559 589 559 589 546 571 c 0,286,287
 522 540 522 540 518 535 c 0,288,289
 506 516 506 516 504 490 c 0,290,291
 502 479 502 479 495 473 c 2,292,293
 495 473 495 473 479 459 c 0,294,295
 472 453 472 453 466 445 c 0,296,297
 460 438 460 438 459 427 c 0,298,299
 457 418 457 418 463 410 c 0,300,301
 470 402 470 402 472 393 c 0,302,303
 474 383 474 383 471 368 c 0,304,305
 468 352 468 352 465 342 c 0,306,307
 460 334 460 334 457 326 c 0,308,309
 454 317 454 317 451 307 c 0,310,311
 449 296 449 296 451 285 c 0,312,313
 454 273 454 273 451 261 c 0,314,315
 451 239 451 239 455 221 c 0,316,317
 458 208 458 208 458 195 c 0,318,319
 457 185 457 185 457 180 c 0,320,321
 457 169 457 169 452 161 c 0,322,323
 446 154 446 154 439 145 c 0,324,325
 433 138 433 138 429 130 c 0,326,327
 424 122 424 122 424 109 c 0,328,329
 427 93 427 93 429 77 c 0,330,331
 430 61 430 61 430 46 c 1,332,333
 430 46 430 46 430 51 c 0,334,335
 430 53 430 53 431 54 c 1,336,337
 431 54 431 54 431 22 c 0,338,339
 432 13 432 13 433 -11 c 0,340,341
 434 -18 434 -18 434 -43 c 2,342,343
 434 -43 434 -43 434 -54 c 0,344,345
 433 -61 433 -61 435 -76 c 0,346,347
 440 -95 440 -95 441 -114 c 256,348,349
 442 -133 442 -133 442 -154 c 2,350,351
 442 -154 442 -154 442 -179 c 0,352,353
 441 -190 441 -190 428 -199 c 1,354,355
 421 -198 421 -198 413 -203 c 0,356,357
 410 -204 410 -204 408 -204 c 0,358,359
 402 -204 402 -204 397 -199 c 0,360,361
 396 -198 396 -198 396 -190 c 2,362,363
 396 -190 396 -190 396 -178 c 2,364,365
 396 -178 396 -178 396 -165 c 0,366,367
 397 -163 397 -163 397 -156 c 2,368,369
 397 -156 397 -156 397 -147 c 2,370,371
 397 -147 397 -147 397 -142 c 2,372,373
 397 -142 397 -142 397 -138 c 2,374,375
 397 -138 397 -138 397 -135 c 2,376,377
 397 -135 397 -135 397 -132 c 2,378,379
 397 -132 397 -132 397 -130 c 0,380,381
 396 -125 396 -125 402 -100 c 0,382,383
 407 -84 407 -84 407 -59 c 0,384,385
 408 -54 408 -54 407 -46 c 0,386,387
 402 -10 402 -10 400 -4 c 0,388,389
 396 9 396 9 396 23 c 0,390,391
 396 30 396 30 397 38 c 0,392,393
 399 56 399 56 403 93 c 0,394,395
 404 102 404 102 404 112 c 0,396,397
 403 135 403 135 401 147 c 0,398,399
 398 166 398 166 396 215 c 0,400,401
 395 218 395 218 395 221 c 0,402,403
 400 261 400 261 411 282 c 0,404,405
 424 310 424 310 427 334 c 0,406,407
 429 348 429 348 429 361 c 0,408,409
 429 375 429 375 427 388 c 1,410,411
 421 377 421 377 414 368 c 0,412,413
 408 358 408 358 403 348 c 0,414,415
 397 335 397 335 398 326 c 0,416,417
 399 313 399 313 401 303 c 0,418,419
 402 296 402 296 402 292 c 0,420,421
 401 273 401 273 397 260 c 0,422,423
 394 250 394 250 390 241 c 0,424,425
 386 231 386 231 384 221 c 1,426,427
 383 234 383 234 380 244 c 256,428,429
 377 254 377 254 372 267 c 0,430,431
 369 276 369 276 366 288 c 0,432,433
 364 299 364 299 369 309 c 0,434,435
 373 323 373 323 374 330 c 0,436,437
 376 338 376 338 364 348 c 0,438,439
 357 356 357 356 351 362 c 0,440,441
 345 369 345 369 342 380 c 1,442,443
 340 366 340 366 340 350 c 0,444,445
 340 338 340 338 341 330 c 0,446,447
 344 300 344 300 355 282 c 0,448,449
 364 268 364 268 366 264 c 0,450,451
 372 257 372 257 374 247 c 0,452,453
 375 236 375 236 374 223 c 2,454,455
 374 223 374 223 374 200 c 2,456,457
 374 200 374 200 374 176 c 0,458,459
 375 164 375 164 380 151 c 0,460,461
 384 139 384 139 385 131 c 0,462,463
 385 123 385 123 384 109 c 0,464,465
 384 83 384 83 387 60 c 0,466,467
 387 49 387 49 386 38 c 0,468,469
 385 28 385 28 384 16 c 0,470,471
 384 2 384 2 380 -14 c 0,472,473
 377 -29 377 -29 380 -44 c 2,474,475
 380 -44 380 -44 384 -68 c 0,476,477
 385 -83 385 -83 385 -93 c 0,478,479
 385 -123 385 -123 380 -143 c 0,480,481
 377 -156 377 -156 377 -167 c 0,482,483
 378 -183 378 -183 380 -195 c 1,484,485
 371 -193 371 -193 368 -186 c 0,486,487
 365 -180 365 -180 360 -174 c 0,488,489
 356 -170 356 -170 352 -168 c 256,490,491
 348 -166 348 -166 345 -163 c 0,492,493
 338 -155 338 -155 340 -144 c 0,494,495
 343 -134 343 -134 345 -123 c 0,496,497
 346 -110 346 -110 346 -96 c 0,498,499
 346 -84 346 -84 350 -69 c 0,500,501
 355 -49 355 -49 355 -26 c 0,502,503
 354 -11 354 -11 354 -4 c 0,504,505
 355 20 355 20 357 33 c 0,506,507
 361 74 361 74 362 91 c 0,508,509
 364 106 364 106 367 121 c 0,510,511
 370 135 370 135 360 144 c 0,512,513
 351 152 351 152 341 158 c 0,514,515
 331 165 331 165 322 175 c 0,516,517
 312 184 312 184 308 191 c 256,518,519
 304 198 304 198 307 213 c 0,520,521
 310 227 310 227 311 241 c 2,522,523
 311 241 311 241 311 269 c 0,524,525
 311 282 311 282 313 295 c 0,526,527
 314 309 314 309 314 323 c 0,528,529
 315 336 315 336 314 348 c 0,530,531
 312 359 312 359 302 369 c 0,532,533
 298 375 298 375 294 377 c 0,534,535
 291 379 291 379 287 388 c 0,536,537
 285 393 285 393 286 400 c 256,538,539
 287 407 287 407 287 414 c 0,540,541
 287 424 287 424 289 438 c 0,542,543
 291 453 291 453 283 462 c 0,544,545
 279 464 279 464 271 463 c 0,546,547
 264 463 264 463 261 465 c 0,548,549
 259 466 259 466 253 471 c 0,550,551
 247 475 247 475 245 478 c 0,552,553
 234 484 234 484 226 497 c 0,554,555
 218 509 218 509 212 521 c 0,556,557
 206 528 206 528 204 539 c 256,558,559
 202 550 202 550 204 560 c 1,560,561
 191 565 191 565 189 574 c 0,562,563
 187 580 187 580 187 587 c 2,564,565
 187 587 187 587 187 593 c 0,566,567
 188 603 188 603 193 613 c 0,568,569
 198 625 198 625 199 635 c 0,570,571
 201 648 201 648 206 659 c 0,572,573
 218 680 218 680 218 681 c 0,574,575
 219 683 219 683 222 686 c 0,576,577
 225 688 225 688 227 690 c 0,578,579
 233 696 233 696 236 692 c 1,580,581
 245 695 245 695 245 683 c 1,582,583
 243 683 243 683 241 684 c 1,584,585
 243 675 243 675 245 661 c 256,586,587
 247 647 247 647 247 641 c 2,588,589
 247 641 247 641 243 627 c 0,590,591
 241 621 241 621 243 610 c 0,592,593
 245 600 245 600 249 598 c 0,594,595
 252 597 252 597 261 588 c 0,596,597
 274 575 274 575 286 564 c 0,598,599
 304 547 304 547 312 542 c 0,600,601
 321 537 321 537 331 524 c 0,602,603
 340 514 340 514 346 504 c 1,604,605
 346 504 346 504 344 516 c 0,606,607
 342 521 342 521 342 527 c 0,608,609
 339 539 339 539 337 551 c 256,610,611
 335 563 335 563 333 574 c 0,612,613
 332 585 332 585 329 594 c 2,614,615
 329 594 329 594 325 612 c 0,616,617
 322 623 322 623 320 633 c 256,618,619
 318 643 318 643 308 649 c 0,620,621
 304 656 304 656 296 662 c 256,622,623
 288 668 288 668 283 674 c 2,624,625
 283 674 283 674 267 690 c 0,626,627
 259 697 259 697 252 705 c 0,628,629
 236 718 236 718 232 735 c 0,630,631
 230 749 230 749 230 762 c 2,632,633
 230 762 230 762 230 771 c 0,634,635
 232 784 232 784 241 797 c 256,636,637
 250 810 250 810 263 816 c 0,638,639
 276 823 276 823 291 824 c 0,640,641
 306 824 306 824 318 814 c 1,642,643
 310 800 310 800 305 780 c 0,644,645
 299 761 299 761 297 751 c 1,646,647
 299 756 299 756 300 758 c 0,648,649
 300 760 300 760 302 763 c 1,650,651
 306 756 306 756 309 754 c 2,652,653
 309 754 309 754 313 750 c 0,654,655
 314 749 314 749 316 746 c 0,656,657
 322 743 322 743 327 743 c 0,658,659
 333 742 333 742 335 737 c 0,660,661
 333 734 333 734 332 730 c 0,662,663
 332 725 332 725 330 719 c 0,664,665
 326 703 326 703 326 694 c 0,666,667
 326 684 326 684 328 684 c 1,668,669
 328 696 328 696 329 699 c 0,670,671
 331 701 331 701 335 712 c 0,672,673
 338 720 338 720 341 724 c 0,674,675
 344 729 344 729 346 737 c 0,676,677
 344 742 344 742 349 750 c 1,678,679
 343 750 343 750 335 753 c 0,680,681
 328 756 328 756 326 763 c 1,682,683
 321 763 321 763 318 761 c 1,684,685
 318 784 318 784 330 810 c 1,686,687
 330 810 330 810 335 815 c 0,688,689
 339 817 339 817 342 819 c 0,690,691
 349 823 349 823 358 821 c 0,692,693
 368 819 368 819 375 821 c 0,694,695
 385 821 385 821 394 825 c 0,696,697
 403 828 403 828 413 828 c 0,698,699
 422 828 422 828 428 825 c 0,700,701
 433 822 433 822 444 824 c 0,702,703
 450 827 450 827 454 830 c 256,704,705
 458 833 458 833 465 833 c 0,706,707
 471 833 471 833 475 830 c 0,708,709
 479 828 479 828 484 831 c 0,710,711
 494 833 494 833 500 835 c 2,712,713
 500 835 500 835 504 835 c 0,714,715
 509 835 509 835 516 831 c 0,716,717
 526 824 526 824 527 815 c 0,718,719
 527 806 527 806 529 796 c 0,720,721
 530 787 530 787 533 780 c 0,722,723
 536 772 536 772 534 763 c 0,724,725
 534 750 534 750 526 742 c 0,726,727
 518 735 518 735 513 725 c 0,728,729
 506 713 506 713 500 702 c 0,730,731
 495 692 495 692 484 684 c 0,732,733
 474 676 474 676 462 673 c 256,734,735
 450 670 450 670 441 663 c 0,736,737
 433 656 433 656 422 648 c 0,738,739
 412 640 412 640 407 631 c 1,740,741
 397 628 397 628 395 611 c 0,742,743
 392 595 392 595 392 572 c 0,744,745
 392 550 392 550 395 529 c 0,746,747
 397 509 397 509 397 500 c 1,748,749
 400 508 400 508 402 517 c 0,750,751
 403 526 403 526 406 536 c 0,752,753
 409 545 409 545 414 553 c 0,754,755
 419 562 419 562 427 567 c 0,756,757
 432 573 432 573 439 578 c 0,758,759
 446 582 446 582 454 585 c 0,760,761
 462 591 462 591 469 598 c 0,762,763
 476 604 476 604 486 609 c 1,764,765
 497 626 497 626 504 641 c 0,766,767
 513 659 513 659 513 676 c 0,768,769
 513 681 513 681 516 691 c 0,770,771
 518 701 518 701 523 712 c 256,772,773
 528 723 528 723 535 730 c 0,774,775
 541 737 541 737 547 737 c 1,776,777
 550 726 550 726 546 717 c 0,778,779
 543 708 543 708 544 695 c 0,780,781
 547 678 547 678 555 663 c 0,280,281
EndSplineSet
Validated: 1
EndChar

StartChar: hyphen
Encoding: 45 45 8
Width: 924
Flags: W
LayerCount: 2
Fore
SplineSet
242 337 m 1,0,-1
 676 337 l 1,1,-1
 676 240 l 1,2,-1
 242 240 l 1,3,-1
 242 337 l 1,0,-1
EndSplineSet
Validated: 1
EndChar

StartChar: zero
Encoding: 48 48 9
Width: 924
Flags: W
LayerCount: 2
Fore
SplineSet
682 286 m 0,0,1
 682 266 682 266 678 250 c 0,2,3
 677 244 677 244 680.5 241 c 128,-1,4
 684 238 684 238 689 238 c 2,5,-1
 862 238 l 2,6,7
 866 238 866 238 869 235 c 128,-1,8
 872 232 872 232 871 228 c 0,9,10
 861 160 861 160 830.5 99 c 128,-1,11
 800 38 800 38 754 -8 c 128,-1,12
 708 -54 708 -54 648 -85 c 0,13,14
 586 -116 586 -116 518 -125 c 0,15,16
 514 -126 514 -126 511 -123 c 128,-1,17
 508 -120 508 -120 508 -116 c 2,18,-1
 508 66 l 2,19,20
 508 70 508 70 504 69 c 0,21,22
 483 64 483 64 460 64 c 0,23,24
 438 64 438 64 416 69 c 0,25,26
 412 70 412 70 412 66 c 2,27,-1
 412 -116 l 2,28,29
 412 -120 412 -120 409 -123 c 128,-1,30
 406 -126 406 -126 402 -125 c 0,31,32
 334 -115 334 -115 274 -84.5 c 128,-1,33
 214 -54 214 -54 167 -8 c 128,-1,34
 120 38 120 38 89 98 c 0,35,36
 58 160 58 160 49 228 c 0,37,38
 48 232 48 232 51 235 c 128,-1,39
 54 238 54 238 58 238 c 2,40,-1
 231 238 l 2,41,42
 237 238 237 238 240 242 c 0,43,44
 243 244 243 244 242 250 c 0,45,46
 240 258 240 258 239.5 267.5 c 128,-1,47
 239 277 239 277 239 286 c 0,48,49
 239 298 239 298 240 308 c 0,50,51
 242 319 242 319 244 330 c 0,52,53
 244 334 244 334 240 334 c 2,54,-1
 58 334 l 2,55,56
 54 334 54 334 51 337 c 128,-1,57
 48 340 48 340 49 344 c 0,58,59
 59 412 59 412 89.5 472 c 128,-1,60
 120 532 120 532 167 579 c 128,-1,61
 214 626 214 626 274 656.5 c 128,-1,62
 334 687 334 687 402 697 c 0,63,64
 406 698 406 698 409 695 c 128,-1,65
 412 692 412 692 412 688 c 2,66,-1
 412 506 l 2,67,68
 412 502 412 502 416 503 c 0,69,70
 427 505 427 505 437.5 506 c 128,-1,71
 448 507 448 507 460 507 c 256,72,73
 472 507 472 507 483 506.5 c 128,-1,74
 494 506 494 506 504 503 c 0,75,76
 508 502 508 502 508 506 c 2,77,-1
 508 688 l 2,78,79
 508 692 508 692 511 695 c 128,-1,80
 514 698 514 698 518 697 c 0,81,82
 586 687 586 687 647 656.5 c 128,-1,83
 708 626 708 626 754 579 c 128,-1,84
 800 532 800 532 831 472 c 128,-1,85
 862 412 862 412 871 344 c 0,86,87
 872 340 872 340 869 337 c 128,-1,88
 866 334 866 334 862 334 c 2,89,-1
 680 334 l 2,90,91
 676 334 676 334 677 330 c 0,92,93
 682 308 682 308 682 286 c 0,0,1
460 202 m 0,94,95
 477 202 477 202 492.5 209 c 128,-1,96
 508 216 508 216 519 227 c 128,-1,97
 530 238 530 238 536.5 253 c 128,-1,98
 543 268 543 268 543 286 c 0,99,100
 543 303 543 303 536.5 318.5 c 128,-1,101
 530 334 530 334 519 345 c 128,-1,102
 508 356 508 356 492.5 362.5 c 128,-1,103
 477 369 477 369 460 369 c 0,104,105
 442 369 442 369 427 362.5 c 128,-1,106
 412 356 412 356 401 345 c 128,-1,107
 390 334 390 334 383.5 318.5 c 128,-1,108
 377 303 377 303 377 286 c 0,109,110
 377 268 377 268 383.5 253 c 128,-1,111
 390 238 390 238 401 227 c 128,-1,112
 412 216 412 216 427 209 c 128,-1,113
 442 202 442 202 460 202 c 0,94,95
EndSplineSet
Validated: 1
EndChar

StartChar: one
Encoding: 49 49 10
Width: 918
Flags: W
LayerCount: 2
Fore
SplineSet
861 244 m 2,0,1
 865 244 865 244 867.5 241 c 128,-1,2
 870 238 870 238 870 234 c 0,3,4
 860 165 860 165 829.5 105.5 c 128,-1,5
 799 46 799 46 752.5 -1 c 128,-1,6
 706 -48 706 -48 646 -78 c 256,7,8
 586 -108 586 -108 517 -118 c 0,9,10
 513 -119 513 -119 510 -116.5 c 128,-1,11
 507 -114 507 -114 507 -110 c 2,12,-1
 507 -38 l 1,13,14
 495 -40 495 -40 482.5 -41 c 128,-1,15
 470 -42 470 -42 458 -42 c 256,16,17
 446 -42 446 -42 434 -41 c 128,-1,18
 422 -40 422 -40 410 -38 c 1,19,-1
 410 -110 l 2,20,21
 410 -114 410 -114 407 -117 c 128,-1,22
 404 -120 404 -120 400 -118 c 0,23,24
 331 -108 331 -108 271.5 -78 c 128,-1,25
 212 -48 212 -48 165 -1 c 128,-1,26
 118 46 118 46 88 106 c 256,27,28
 58 166 58 166 48 234 c 0,29,30
 47 238 47 238 49.5 241 c 128,-1,31
 52 244 52 244 56 244 c 2,32,-1
 128 244 l 1,33,34
 126 256 126 256 125.5 268 c 128,-1,35
 125 280 125 280 125 292 c 128,-1,36
 125 304 125 304 125.5 316.5 c 128,-1,37
 126 329 126 329 128 341 c 1,38,-1
 56 341 l 2,39,40
 52 341 52 341 49 344 c 0,41,42
 46 346 46 346 48 350 c 0,43,44
 58 418 58 418 88 478.5 c 128,-1,45
 118 539 118 539 165 585.5 c 128,-1,46
 212 632 212 632 272 663 c 128,-1,47
 332 694 332 694 400 704 c 0,48,49
 404 705 404 705 407 702 c 128,-1,50
 410 699 410 699 410 695 c 2,51,-1
 410 622 l 1,52,53
 422 624 422 624 434 625 c 128,-1,54
 446 626 446 626 458 626 c 256,55,56
 470 626 470 626 482.5 625 c 128,-1,57
 495 624 495 624 507 622 c 1,58,-1
 507 695 l 2,59,60
 507 699 507 699 510 701.5 c 128,-1,61
 513 704 513 704 517 704 c 0,62,63
 585 694 585 694 645.5 663 c 128,-1,64
 706 632 706 632 752.5 585.5 c 128,-1,65
 799 539 799 539 830 479 c 0,66,67
 860 418 860 418 870 350 c 0,68,69
 871 346 871 346 868 343.5 c 128,-1,70
 865 341 865 341 861 341 c 2,71,-1
 788 341 l 1,72,73
 790 329 790 329 791 316.5 c 128,-1,74
 792 304 792 304 792 292 c 0,75,76
 792 279 792 279 791 267.5 c 128,-1,77
 790 256 790 256 788 244 c 1,78,-1
 861 244 l 2,0,1
520 518 m 1,79,-1
 362 518 l 1,80,-1
 362 424 l 1,81,-1
 425 424 l 1,82,-1
 425 78 l 1,83,-1
 520 78 l 1,84,-1
 520 518 l 1,79,-1
EndSplineSet
Validated: 1
EndChar

StartChar: two
Encoding: 50 50 11
Width: 930
Flags: W
LayerCount: 2
Fore
SplineSet
868 248 m 2,0,1
 872 248 872 248 875 245 c 128,-1,2
 878 242 878 242 876 238 c 0,3,4
 866 170 866 170 836 110 c 128,-1,5
 806 50 806 50 759.5 3 c 128,-1,6
 713 -44 713 -44 652 -74 c 0,7,8
 592 -104 592 -104 524 -114 c 0,9,10
 520 -115 520 -115 517 -112.5 c 128,-1,11
 514 -110 514 -110 514 -106 c 2,12,-1
 514 -34 l 1,13,14
 502 -36 502 -36 490 -37 c 128,-1,15
 478 -38 478 -38 466 -38 c 128,-1,16
 454 -38 454 -38 441.5 -37 c 128,-1,17
 429 -36 429 -36 417 -34 c 1,18,-1
 417 -106 l 2,19,20
 417 -110 417 -110 414.5 -113 c 128,-1,21
 412 -116 412 -116 408 -114 c 0,22,23
 340 -104 340 -104 279.5 -74 c 128,-1,24
 219 -44 219 -44 172.5 3 c 128,-1,25
 126 50 126 50 95 110 c 128,-1,26
 64 170 64 170 54 238 c 0,27,28
 53 242 53 242 56 245 c 128,-1,29
 59 248 59 248 63 248 c 2,30,-1
 136 248 l 1,31,32
 134 260 134 260 133 272 c 128,-1,33
 132 284 132 284 132 296 c 0,34,35
 132 309 132 309 133 321 c 0,36,37
 134 332 134 332 136 344 c 1,38,-1
 63 344 l 2,39,40
 59 344 59 344 56.5 347 c 128,-1,41
 54 350 54 350 54 354 c 0,42,43
 64 422 64 422 95 483 c 128,-1,44
 126 544 126 544 172.5 590 c 128,-1,45
 219 636 219 636 279 667 c 0,46,47
 340 698 340 698 408 707 c 0,48,49
 412 708 412 708 414.5 705.5 c 128,-1,50
 417 703 417 703 417 699 c 2,51,-1
 417 626 l 1,52,53
 429 628 429 628 441.5 629 c 128,-1,54
 454 630 454 630 466 630 c 0,55,56
 479 630 479 630 490.5 629 c 128,-1,57
 502 628 502 628 514 626 c 1,58,-1
 514 698 l 2,59,60
 514 702 514 702 517 705 c 128,-1,61
 520 708 520 708 524 707 c 0,62,63
 592 697 592 697 652.5 666.5 c 128,-1,64
 713 636 713 636 759.5 590 c 128,-1,65
 806 544 806 544 836 484 c 0,66,67
 866 422 866 422 876 354 c 0,68,69
 877 350 877 350 874.5 347 c 128,-1,70
 872 344 872 344 868 344 c 2,71,-1
 796 344 l 1,72,73
 798 332 798 332 799 320.5 c 128,-1,74
 800 309 800 309 800 296 c 0,75,76
 800 284 800 284 799 272 c 128,-1,77
 798 260 798 260 796 248 c 1,78,-1
 868 248 l 2,0,1
622 394 m 2,79,80
 622 520 622 520 496 520 c 2,81,-1
 323 520 l 1,82,-1
 323 426 l 1,83,-1
 496 426 l 2,84,85
 528 426 528 426 528 394 c 2,86,-1
 528 378 l 2,87,88
 528 346 528 346 496 347 c 2,89,-1
 450 347 l 2,90,91
 324 346 324 346 323 220 c 2,92,-1
 323 79 l 1,93,-1
 622 79 l 1,94,-1
 622 174 l 1,95,-1
 418 174 l 1,96,-1
 418 220 l 2,97,98
 418 252 418 252 450 252 c 2,99,-1
 496 252 l 2,100,101
 622 252 622 252 622 378 c 2,102,-1
 622 394 l 2,79,80
EndSplineSet
Validated: 33
EndChar

StartChar: three
Encoding: 51 51 12
Width: 928
Flags: W
LayerCount: 2
Fore
SplineSet
862 244 m 2,0,1
 866 244 866 244 869 241 c 128,-1,2
 872 238 872 238 870 234 c 0,3,4
 860 166 860 166 830 106 c 128,-1,5
 800 46 800 46 753 -1 c 128,-1,6
 706 -48 706 -48 646 -78 c 256,7,8
 586 -108 586 -108 518 -118 c 0,9,10
 514 -119 514 -119 511 -116.5 c 128,-1,11
 508 -114 508 -114 508 -110 c 2,12,-1
 508 -38 l 1,13,14
 496 -40 496 -40 484 -41 c 128,-1,15
 472 -42 472 -42 460 -42 c 0,16,17
 447 -42 447 -42 435 -41 c 0,18,19
 424 -40 424 -40 412 -38 c 1,20,-1
 412 -110 l 2,21,22
 412 -114 412 -114 409 -117 c 128,-1,23
 406 -120 406 -120 402 -118 c 0,24,25
 334 -108 334 -108 273 -78 c 128,-1,26
 212 -48 212 -48 166 -1 c 128,-1,27
 120 46 120 46 89 106 c 128,-1,28
 58 166 58 166 49 234 c 0,29,30
 48 238 48 238 50.5 241 c 128,-1,31
 53 244 53 244 57 244 c 2,32,-1
 130 244 l 1,33,34
 128 256 128 256 127 268 c 128,-1,35
 126 280 126 280 126 292 c 0,36,37
 126 305 126 305 127 317 c 0,38,39
 128 328 128 328 130 340 c 1,40,-1
 57 340 l 2,41,42
 53 340 53 340 50.5 343 c 128,-1,43
 48 346 48 346 49 350 c 0,44,45
 59 418 59 418 89.5 479 c 128,-1,46
 120 540 120 540 166 586 c 128,-1,47
 212 632 212 632 272 663 c 0,48,49
 334 694 334 694 402 703 c 0,50,51
 406 704 406 704 409 701.5 c 128,-1,52
 412 699 412 699 412 695 c 2,53,-1
 412 622 l 1,54,55
 424 624 424 624 435.5 625 c 128,-1,56
 447 626 447 626 460 626 c 0,57,58
 472 626 472 626 484 625 c 128,-1,59
 496 624 496 624 508 622 c 1,60,-1
 508 694 l 2,61,62
 508 698 508 698 511 701 c 128,-1,63
 514 704 514 704 518 703 c 0,64,65
 586 693 586 693 646 662.5 c 128,-1,66
 706 632 706 632 753 586 c 128,-1,67
 800 540 800 540 830 480 c 0,68,69
 860 418 860 418 870 350 c 0,70,71
 871 346 871 346 868.5 343 c 128,-1,72
 866 340 866 340 862 340 c 2,73,-1
 790 340 l 1,74,75
 792 328 792 328 793 316.5 c 128,-1,76
 794 305 794 305 794 292 c 0,77,78
 794 280 794 280 793 268 c 128,-1,79
 792 256 792 256 790 244 c 1,80,-1
 862 244 l 2,0,1
620 201 m 0,81,82
 620 286 620 286 566 296 c 1,83,84
 620 306 620 306 620 390 c 0,85,86
 620 516 620 516 493 516 c 2,87,-1
 336 516 l 1,88,-1
 336 422 l 1,89,-1
 493 422 l 2,90,91
 525 422 525 422 525 390 c 2,92,-1
 525 374 l 2,93,94
 525 342 525 342 493 343 c 2,95,-1
 336 343 l 1,96,-1
 336 248 l 1,97,-1
 493 248 l 2,98,99
 525 248 525 248 525 216 c 2,100,-1
 525 201 l 2,101,102
 525 170 525 170 493 170 c 2,103,-1
 336 170 l 1,104,-1
 336 75 l 1,105,-1
 493 75 l 2,106,107
 620 75 620 75 620 201 c 0,81,82
EndSplineSet
Validated: 33
EndChar

StartChar: four
Encoding: 52 52 13
Width: 928
Flags: W
LayerCount: 2
Fore
SplineSet
862 239 m 2,0,1
 866 239 866 239 869 236 c 128,-1,2
 872 233 872 233 870 229 c 0,3,4
 860 161 860 161 830 100.5 c 128,-1,5
 800 40 800 40 753 -6.5 c 128,-1,6
 706 -53 706 -53 646 -83.5 c 128,-1,7
 586 -114 586 -114 518 -124 c 0,8,9
 514 -125 514 -125 511 -122 c 128,-1,10
 508 -119 508 -119 508 -115 c 2,11,-1
 508 -42 l 1,12,13
 496 -44 496 -44 484 -45 c 128,-1,14
 472 -46 472 -46 460 -46 c 0,15,16
 447 -46 447 -46 435 -45 c 128,-1,17
 423 -44 423 -44 411 -42 c 1,18,-1
 411 -115 l 2,19,20
 411 -119 411 -119 408 -121.5 c 128,-1,21
 405 -124 405 -124 401 -124 c 0,22,23
 333 -114 333 -114 272.5 -83.5 c 128,-1,24
 212 -53 212 -53 165.5 -6.5 c 128,-1,25
 119 40 119 40 88.5 100 c 128,-1,26
 58 160 58 160 48 229 c 0,27,28
 47 233 47 233 50 236 c 128,-1,29
 53 239 53 239 57 239 c 2,30,-1
 130 239 l 1,31,32
 128 251 128 251 127 262.5 c 128,-1,33
 126 274 126 274 126 288 c 0,34,35
 126 300 126 300 127 312 c 128,-1,36
 128 324 128 324 130 336 c 1,37,-1
 57 336 l 2,38,39
 53 336 53 336 50.5 339 c 128,-1,40
 48 342 48 342 48 346 c 0,41,42
 58 414 58 414 88.5 474 c 128,-1,43
 119 534 119 534 165.5 581 c 128,-1,44
 212 628 212 628 272 658 c 128,-1,45
 332 688 332 688 401 698 c 0,46,47
 405 699 405 699 408 696.5 c 128,-1,48
 411 694 411 694 411 690 c 2,49,-1
 411 618 l 1,50,51
 423 620 423 620 434.5 620.5 c 128,-1,52
 446 621 446 621 460 621 c 0,53,54
 472 621 472 621 484 620 c 0,55,56
 496 620 496 620 508 618 c 1,57,-1
 508 690 l 2,58,59
 508 694 508 694 511 697 c 128,-1,60
 514 700 514 700 518 698 c 0,61,62
 586 688 586 688 646 658 c 128,-1,63
 706 628 706 628 753 581 c 128,-1,64
 800 534 800 534 830 474 c 128,-1,65
 860 414 860 414 870 346 c 0,66,67
 871 342 871 342 868.5 339 c 128,-1,68
 866 336 866 336 862 336 c 2,69,-1
 790 336 l 1,70,71
 792 324 792 324 792.5 312 c 128,-1,72
 793 300 793 300 793 288 c 0,73,74
 793 275 793 275 792.5 263 c 128,-1,75
 792 251 792 251 790 239 c 1,76,-1
 862 239 l 2,0,1
594 512 m 1,77,-1
 500 512 l 1,78,-1
 500 291 l 1,79,-1
 377 291 l 1,80,-1
 438 512 l 1,81,-1
 340 512 l 1,82,-1
 280 291 l 1,83,-1
 280 196 l 1,84,-1
 500 196 l 1,85,-1
 500 70 l 1,86,-1
 594 70 l 1,87,-1
 594 512 l 1,77,-1
EndSplineSet
Validated: 1
EndChar

StartChar: five
Encoding: 53 53 14
Width: 1270
Flags: W
LayerCount: 2
Fore
SplineSet
1234 274 m 1,0,-1
 1022 61 l 1,1,-1
 1016 64 l 1,2,-1
 1018 61 l 1,3,-1
 912 61 l 1,4,-1
 632 486 l 1,5,-1
 351 61 l 1,6,-1
 246 61 l 1,7,-1
 246 61 l 1,8,-1
 34 274 l 1,9,-1
 385 274 l 1,10,-1
 632 644 l 1,11,-1
 878 274 l 1,12,-1
 1234 274 l 1,0,-1
632 352 m 1,13,-1
 908 -66 l 1,14,-1
 356 -66 l 1,15,-1
 632 352 l 1,13,-1
EndSplineSet
Validated: 5
EndChar

StartChar: six
Encoding: 54 54 15
Width: 906
Flags: W
LayerCount: 2
Fore
SplineSet
456 578 m 1,0,-1
 856 -29 l 1,1,-1
 56 -29 l 1,2,-1
 456 578 l 1,0,-1
EndSplineSet
Validated: 1
EndChar

StartChar: seven
Encoding: 55 55 16
Width: 1543
Flags: W
LayerCount: 2
Fore
SplineSet
1106 -12 m 1,0,-1
 424 -12 l 1,1,-1
 766 503 l 1,2,-1
 1106 -12 l 1,0,-1
592 404 m 1,3,-1
 420 145 l 1,4,-1
 291 145 l 1,5,-1
 292 145 l 1,6,-1
 291 145 l 1,7,-1
 30 404 l 1,8,-1
 464 404 l 1,9,-1
 592 404 l 1,3,-1
1068 404 m 1,10,-1
 1506 404 l 1,11,-1
 1245 145 l 1,12,-1
 1239 146 l 1,13,-1
 1240 145 l 1,14,-1
 1112 145 l 1,15,-1
 939 404 l 1,16,-1
 1068 404 l 1,10,-1
EndSplineSet
Validated: 5
EndChar

StartChar: eight
Encoding: 56 56 17
Width: 758
Flags: W
LayerCount: 2
Fore
SplineSet
700 236 m 1,0,-1
 550 -26 l 1,1,-1
 198 -26 l 1,2,-1
 46 236 l 1,3,-1
 174 236 l 1,4,-1
 174 324 l 1,5,-1
 46 324 l 1,6,-1
 198 586 l 1,7,-1
 550 586 l 1,8,-1
 700 324 l 1,9,-1
 574 324 l 1,10,-1
 574 236 l 1,11,-1
 700 236 l 1,0,-1
EndSplineSet
Validated: 1
EndChar

StartChar: nine
Encoding: 57 57 18
Width: 1302
Flags: W
LayerCount: 2
Fore
SplineSet
48 185 m 1,0,-1
 278 185 l 1,1,-1
 404 -26 l 1,2,-1
 260 -26 l 1,3,-1
 48 185 l 1,0,-1
1020 185 m 1,4,-1
 1249 185 l 1,5,-1
 1038 -26 l 1,6,-1
 894 -26 l 1,7,-1
 1020 185 l 1,4,-1
850 236 m 1,8,-1
 976 236 l 1,9,-1
 826 -26 l 1,10,-1
 474 -26 l 1,11,-1
 322 236 l 1,12,-1
 449 236 l 1,13,-1
 449 324 l 1,14,-1
 322 324 l 1,15,-1
 474 586 l 1,16,-1
 826 586 l 1,17,-1
 976 324 l 1,18,-1
 850 324 l 1,19,-1
 850 236 l 1,8,-1
EndSplineSet
Validated: 1
EndChar

StartChar: A
Encoding: 65 65 19
Width: 1024
Flags: W
LayerCount: 2
Fore
SplineSet
485 722 m 0,0,1
 596 729 596 729 695.5 682.5 c 128,-1,2
 795 636 795 636 860 547.5 c 128,-1,3
 925 459 925 459 939 349 c 0,4,5
 951 254 951 254 922 165 c 128,-1,6
 893 76 893 76 835.5 10.5 c 128,-1,7
 778 -55 778 -55 693 -94.5 c 128,-1,8
 608 -134 608 -134 513 -134 c 0,9,10
 407 -134 407 -134 314.5 -85 c 128,-1,11
 222 -36 222 -36 162 49.5 c 128,-1,12
 102 135 102 135 89 241 c 0,13,14
 78 331 78 331 104 416.5 c 128,-1,15
 130 502 130 502 183 567 c 128,-1,16
 236 632 236 632 315 673.5 c 128,-1,17
 394 715 394 715 485 722 c 0,0,1
191 530 m 1024,18,-1
484 616 m 0,19,20
 428 611 428 611 404 585 c 0,21,22
 382 560 382 560 364 512 c 0,23,24
 360 502 360 502 330 483 c 0,25,26
 321 478 321 478 319.5 476 c 128,-1,27
 318 474 318 474 318 469 c 0,28,29
 319 462 319 462 321 461 c 128,-1,30
 323 460 323 460 334 462 c 0,31,32
 440 480 440 480 564 439 c 0,33,34
 575 435 575 435 576 434 c 128,-1,35
 577 433 577 433 577 427 c 0,36,37
 575 400 575 400 580 374.5 c 128,-1,38
 585 349 585 349 595 336 c 0,39,40
 613 311 613 311 632 318 c 0,41,42
 658 327 658 327 667.5 375 c 128,-1,43
 677 423 677 423 659 451 c 0,44,45
 655 456 655 456 654 461 c 128,-1,46
 653 466 653 466 652 486 c 0,47,48
 651 513 651 513 647 525.5 c 128,-1,49
 643 538 643 538 631 554 c 0,50,51
 609 583 609 583 566 601.5 c 128,-1,52
 523 620 523 620 484 616 c 0,19,20
392 448 m 0,53,54
 378 448 378 448 358 444.5 c 128,-1,55
 338 441 338 441 336 440 c 0,56,57
 332 436 332 436 332 411 c 0,58,59
 332 378 332 378 343 365 c 2,60,-1
 345 362 l 1,61,-1
 351 364 l 2,62,63
 363 367 363 367 374 376 c 0,64,65
 386 386 386 386 395 385.5 c 128,-1,66
 404 385 404 385 420 375 c 0,67,68
 445 359 445 359 473.5 360 c 128,-1,69
 502 361 502 361 522 378 c 0,70,71
 540 393 540 393 547 414 c 0,72,73
 549 419 549 419 548.5 420 c 128,-1,74
 548 421 548 421 544 423 c 0,75,76
 470 453 470 453 392 448 c 0,53,54
546 372 m 0,77,78
 525 345 525 345 488 340 c 128,-1,79
 451 335 451 335 412 354 c 0,80,81
 400 360 400 360 395 359.5 c 128,-1,82
 390 359 390 359 375 350 c 0,83,84
 367 346 367 346 364 344 c 0,85,86
 361 343 361 343 361 341 c 128,-1,87
 361 339 361 339 366 325 c 0,88,89
 377 291 377 291 380 264 c 0,90,91
 382 251 382 251 385.5 246.5 c 128,-1,92
 389 242 389 242 400 240 c 0,93,94
 431 234 431 234 471.5 240.5 c 128,-1,95
 512 247 512 247 535 262 c 0,96,97
 541 266 541 266 541.5 266 c 128,-1,98
 542 266 542 266 541 264 c 128,-1,99
 540 262 540 262 538 259.5 c 128,-1,100
 536 257 536 257 535 255 c 0,101,102
 509 219 509 219 435 216 c 0,103,104
 426 215 426 215 424.5 214.5 c 128,-1,105
 423 214 423 214 423 210 c 2,106,-1
 423 205 l 1,107,-1
 420 204 l 2,108,109
 414 202 414 202 413.5 201.5 c 128,-1,110
 413 201 413 201 413 198 c 0,111,112
 413 172 413 172 434 134 c 0,113,114
 442 120 442 120 454 101.5 c 128,-1,115
 466 83 466 83 467 83 c 256,116,117
 468 83 468 83 480 93 c 0,118,119
 570 162 570 162 686 228 c 0,120,121
 689 230 689 230 691 231 c 128,-1,122
 693 232 693 232 694 233 c 128,-1,123
 695 234 695 234 695 234 c 257,124,125
 695 234 695 234 688 235 c 2,126,-1
 682 236 l 1,127,-1
 679 243 l 2,128,129
 675 255 675 255 671 259 c 0,130,131
 659 269 659 269 620 271 c 2,132,-1
 612 272 l 1,133,-1
 612 275 l 2,134,135
 611 279 611 279 612 284 c 0,136,137
 614 289 614 289 613 290.5 c 128,-1,138
 612 292 612 292 607 296 c 0,139,140
 573 322 573 322 562 362 c 0,141,142
 560 369 560 369 559.5 370.5 c 128,-1,143
 559 372 559 372 555 374 c 0,144,145
 549 376 549 376 546 372 c 0,77,78
781 199 m 0,146,147
 653 147 653 147 529 42 c 0,148,149
 516 30 516 30 514.5 28.5 c 128,-1,150
 513 27 513 27 514 26 c 0,151,152
 518 18 518 18 564 -20 c 0,153,154
 613 -61 613 -61 620 -64 c 0,155,156
 623 -65 623 -65 656 -51 c 0,157,158
 720 -25 720 -25 769.5 21.5 c 128,-1,159
 819 68 819 68 849 130 c 0,160,161
 855 141 855 141 855.5 143 c 128,-1,162
 856 145 856 145 854 147 c 0,163,164
 826 185 826 185 802 201 c 0,165,166
 796 204 796 204 794.5 204 c 128,-1,167
 793 204 793 204 781 199 c 0,146,147
339 183 m 0,168,169
 310 175 310 175 292.5 162.5 c 128,-1,170
 275 150 275 150 258 124 c 0,171,172
 245 104 245 104 234 71 c 0,173,174
 229 56 229 56 229.5 53.5 c 128,-1,175
 230 51 230 51 236 44 c 0,176,177
 275 1 275 1 327 -29 c 0,178,179
 336 -35 336 -35 337.5 -35 c 128,-1,180
 339 -35 339 -35 343 -30 c 0,181,182
 369 -1 369 -1 399 25 c 2,183,-1
 407 33 l 1,184,-1
 406 34 l 2,185,186
 405 36 405 36 400 44 c 0,187,188
 342 134 342 134 351 184 c 0,189,190
 350 185 350 185 339 183 c 0,168,169
440 54 m 128,-1,192
 416 33 416 33 416 32 c 128,-1,193
 416 31 416 31 433.5 8 c 128,-1,194
 451 -15 451 -15 452 -15 c 256,195,196
 453 -15 453 -15 478 7 c 128,-1,197
 503 29 503 29 503 29.5 c 128,-1,198
 503 30 503 30 491 45 c 0,199,200
 478 60 478 60 473 67 c 0,201,202
 466 75 466 75 465 75 c 128,-1,191
 464 75 464 75 440 54 c 128,-1,192
485 1 m 2,203,204
 504 17 504 17 505 17 c 128,-1,205
 506 17 506 17 506 10 c 2,206,-1
 506 3 l 1,207,-1
 493 -8 l 2,208,209
 480 -19 480 -19 479 -20 c 0,210,211
 478 -20 478 -20 471 -19 c 128,-1,212
 464 -18 464 -18 463 -17 c 1,213,-1
 485 1 l 2,203,204
443 -38 m 0,214,215
 416 -66 416 -66 417 -67 c 0,216,217
 420 -70 420 -70 459.5 -75.5 c 128,-1,218
 499 -81 499 -81 508 -79 c 0,219,220
 510 -79 510 -79 495 -66 c 0,221,222
 485 -57 485 -57 470 -42 c 128,-1,223
 455 -27 455 -27 454.5 -27 c 128,-1,224
 454 -27 454 -27 443 -38 c 0,214,215
EndSplineSet
Validated: 41
EndChar

StartChar: B
Encoding: 66 66 20
Width: 1024
Flags: W
LayerCount: 2
Fore
SplineSet
487 711 m 0,0,1
 472 709 472 709 469 709 c 0,2,3
 403 707 403 707 301 654 c 0,4,5
 240 623 240 623 191 562 c 0,6,7
 150 512 150 512 118 439 c 0,8,9
 89 373 89 373 89 298 c 0,10,11
 89 227 89 227 109 155 c 0,12,13
 114 140 114 140 114 139 c 0,14,15
 114 134 114 134 123 117 c 0,16,17
 126 110 126 110 132 97 c 0,18,19
 186 -20 186 -20 305 -87 c 0,20,21
 331 -102 331 -102 343 -106 c 2,22,23
 343 -106 343 -106 347 -108 c 128,-1,24
 351 -110 351 -110 351 -110 c 2,25,26
 352 -110 352 -110 354 -111 c 0,27,28
 357 -113 357 -113 357 -112 c 1,29,-1
 359 -112 l 1,30,31
 366 -118 366 -118 413 -130 c 0,32,33
 463 -143 463 -143 514 -143 c 0,34,35
 585 -143 585 -143 656 -118 c 0,36,37
 705 -101 705 -101 746 -75 c 0,38,39
 789 -48 789 -48 820 -14 c 0,40,41
 821 -14 821 -14 831 -3 c 0,42,43
 882 53 882 53 903 107 c 1,44,45
 903 107 903 107 908 117 c 0,46,47
 914 129 914 129 924 162 c 0,48,49
 943 225 943 225 944 288 c 0,50,51
 944 353 944 353 922 415 c 0,52,53
 917 429 917 429 917 430 c 128,-1,54
 917 431 917 431 915 435 c 128,-1,55
 913 439 913 439 913 439 c 2,56,57
 913 440 913 440 912 443 c 0,58,59
 910 446 910 446 910 447 c 2,60,61
 910 447 910 447 908 453 c 2,62,63
 908 453 908 453 905 459 c 0,64,65
 897 476 897 476 888 492 c 0,66,67
 857 548 857 548 809 593 c 0,68,69
 760 639 760 639 703 668 c 0,70,71
 680 680 680 680 673 681 c 0,72,73
 672 682 672 682 662 686 c 0,74,75
 632 698 632 698 574 707 c 0,76,77
 540 712 540 712 510 712 c 0,78,79
 494 712 494 712 487 711 c 0,0,1
224 502 m 0,80,81
 231 504 231 504 236 503 c 0,82,83
 265 497 265 497 265 497 c 1,84,85
 267 491 267 491 298 491 c 2,86,87
 298 491 298 491 299 491 c 0,88,89
 303 491 303 491 308 489 c 128,-1,90
 313 487 313 487 314 485 c 2,91,92
 314 485 314 485 314 484 c 0,93,94
 314 479 314 479 297 414 c 0,95,96
 295 406 295 406 285 412 c 0,97,98
 281 415 281 415 255 422 c 0,99,100
 227 430 227 430 222 432 c 128,-1,101
 217 434 217 434 215 437 c 0,102,103
 214 440 214 440 210 443 c 0,104,105
 202 449 202 449 200 461 c 0,106,107
 199 472 199 472 204 487 c 0,108,109
 208 497 208 497 224 502 c 0,80,81
260 493 m 0,110,111
 250 495 250 495 244.5 496.5 c 128,-1,112
 239 498 239 498 235.5 498 c 128,-1,113
 232 498 232 498 231 497 c 128,-1,114
 230 496 230 496 230 493 c 0,115,116
 230 489 230 489 257 482 c 0,117,118
 285 475 285 475 286 480 c 0,119,120
 286 482 286 482 286 483 c 128,-1,121
 286 484 286 484 283 485.5 c 128,-1,122
 280 487 280 487 275 488.5 c 128,-1,123
 270 490 270 490 260 493 c 0,110,111
326 480 m 0,124,125
 326 481 326 481 328 481 c 256,126,127
 330 481 330 481 366 472 c 128,-1,128
 402 463 402 463 403 462 c 2,129,130
 403 462 403 462 403 461 c 0,131,132
 403 456 403 456 394 422 c 0,133,134
 384 383 384 383 382 383 c 0,135,136
 377 381 377 381 372 387 c 0,137,138
 368 391 368 391 338.5 399 c 128,-1,139
 309 407 309 407 308 408 c 1,140,141
 308 408 308 408 308 408 c 1,142,143
 308 409 308 409 317 442 c 0,144,145
 325 477 325 477 326 480 c 0,124,125
424 480 m 0,146,147
 426 481 426 481 433 479.5 c 128,-1,148
 440 478 440 478 488 465 c 0,149,150
 550 448 550 448 563 445 c 0,151,152
 573 442 573 442 611 432 c 0,153,154
 633 426 633 426 659 419 c 0,155,156
 696 409 696 409 705 407 c 0,157,158
 776 387 776 387 793 387 c 0,159,160
 814 387 814 387 814 380 c 0,161,162
 814 375 814 375 812 369.5 c 128,-1,163
 810 364 810 364 808 363 c 0,164,165
 805 363 805 363 801 358 c 2,166,-1
 796 353 l 1,167,-1
 675 383 l 1,168,-1
 553 414 l 1,169,-1
 554 419 l 2,170,171
 554 424 554 424 555 426 c 0,172,173
 556 429 556 429 550 431 c 256,174,175
 544 433 544 433 524 439 c 0,176,177
 499 445 499 445 495 445 c 128,-1,178
 491 445 491 445 489 438 c 128,-1,179
 487 431 487 431 485 431 c 0,180,181
 479 431 479 431 447.5 440 c 128,-1,182
 416 449 416 449 416 450 c 0,183,184
 416 452 416 452 419.5 465 c 128,-1,185
 423 478 423 478 424 480 c 0,146,147
255 471 m 0,186,187
 236 476 236 476 231.5 476 c 128,-1,188
 227 476 227 476 225 471 c 0,189,190
 222 466 222 466 226 463 c 128,-1,191
 230 460 230 460 251 455 c 0,192,193
 275 449 275 449 279 453 c 0,194,195
 288 462 288 462 263 469 c 0,196,197
 260 470 260 470 255 471 c 0,186,187
247 444 m 0,198,199
 227 449 227 449 225 450 c 256,200,201
 223 451 223 451 220.5 448 c 128,-1,202
 218 445 218 445 219 443 c 0,203,204
 221 440 221 440 249 433 c 0,205,206
 271 427 271 427 273 430 c 0,207,208
 275 434 275 434 270.5 436.5 c 128,-1,209
 266 439 266 439 247 444 c 0,198,199
413 436 m 0,210,211
 414 439 414 439 417 439 c 0,212,213
 422 438 422 438 453 430 c 256,214,215
 484 422 484 422 489 422 c 128,-1,216
 494 422 494 422 496 429 c 128,-1,217
 498 436 498 436 498.5 436 c 128,-1,218
 499 436 499 436 522 430 c 0,219,220
 541 425 541 425 543 423.5 c 128,-1,221
 545 422 545 422 542 412 c 2,222,-1
 540 403 l 1,223,-1
 528 403 l 1,224,-1
 516 402 l 1,225,-1
 527 398 l 2,226,227
 538 395 538 395 541 394 c 0,228,229
 547 392 547 392 549 401 c 0,230,231
 550 405 550 405 552 405 c 128,-1,232
 554 405 554 405 673 375 c 128,-1,233
 792 345 792 345 793 344 c 128,-1,234
 794 343 794 343 792 336 c 0,235,236
 787 311 787 311 765 311 c 0,237,238
 761 311 761 311 584 354.5 c 128,-1,239
 407 398 407 398 404 400 c 0,240,241
 404 401 404 401 407.5 416.5 c 128,-1,242
 411 432 411 432 413 436 c 0,210,211
396 380 m 0,243,244
 397 382 397 382 409 379.5 c 128,-1,245
 421 377 421 377 489 360 c 0,246,247
 580 337 580 337 580.5 336.5 c 128,-1,248
 581 336 581 336 576.5 318 c 128,-1,249
 572 300 572 300 570.5 297.5 c 128,-1,250
 569 295 569 295 563 295 c 0,251,252
 553 295 553 295 549 290 c 0,253,254
 546 286 546 286 540 263 c 0,255,256
 536 245 536 245 536 240 c 128,-1,257
 536 235 536 235 539 226 c 2,258,-1
 543 219 l 1,259,-1
 553 216 l 2,260,261
 563 213 563 213 588 206 c 2,262,-1
 614 199 l 1,263,-1
 620 201 l 2,264,265
 639 207 639 207 639 226.5 c 128,-1,266
 639 246 639 246 625 254 c 0,267,268
 617 259 617 259 588 265 c 0,269,270
 567 269 567 269 559 269 c 0,271,272
 556 269 556 269 555 269 c 2,273,-1
 551 268 l 1,274,-1
 553 276 l 2,275,276
 555 282 555 282 557 284.5 c 128,-1,277
 559 287 559 287 563 286 c 0,278,279
 571 284 571 284 575.5 290 c 128,-1,280
 580 296 580 296 584 314 c 0,281,282
 589 333 589 333 591.5 333 c 128,-1,283
 594 333 594 333 675 313 c 0,284,285
 745 295 745 295 758.5 293 c 128,-1,286
 772 291 772 291 784 298 c 0,287,288
 803 307 803 307 811 334 c 0,289,290
 813 343 813 343 815 345 c 128,-1,291
 817 347 817 347 823 346 c 0,292,293
 833 343 833 343 833 332 c 0,294,295
 833 326 833 326 836 325 c 0,296,297
 837 324 837 324 837 321 c 128,-1,298
 837 318 837 318 835 309.5 c 128,-1,299
 833 301 833 301 830 288 c 128,-1,300
 827 275 827 275 822 256 c 1,301,-1
 820 252 l 1,302,-1
 814 253 l 2,303,304
 807 253 807 253 806 251 c 0,305,306
 800 235 800 235 777 244 c 0,307,308
 772 246 772 246 768 248 c 0,309,310
 762 250 762 250 757 250 c 0,311,312
 744 250 744 250 734 237 c 0,313,314
 728 230 728 230 728 223 c 0,315,316
 728 219 728 219 768 88 c 0,317,318
 787 27 787 27 787 20 c 0,319,320
 787 19 787 19 787 19 c 1,321,322
 784 19 784 19 734.5 19 c 128,-1,323
 685 19 685 19 672 25 c 0,324,325
 665 28 665 28 664 36 c 256,326,327
 663 44 663 44 668 53 c 2,328,-1
 673 60 l 1,329,-1
 666 88 l 2,330,331
 660 115 660 115 659 118 c 0,332,333
 658 123 658 123 644 128 c 0,334,335
 633 132 633 132 640 142.5 c 128,-1,336
 647 153 647 153 644 168 c 0,337,338
 642 178 642 178 640 180 c 128,-1,339
 638 182 638 182 630 184 c 0,340,341
 621 186 621 186 616 188 c 0,342,343
 610 191 610 191 574 201 c 0,344,345
 540 211 540 211 537 211 c 0,346,347
 536 211 536 211 536 211 c 2,348,349
 533 210 533 210 522 213 c 0,350,351
 520 213 520 213 495 226 c 0,352,353
 486 230 486 230 479 233 c 0,354,355
 471 236 471 236 460 242 c 0,356,357
 431 255 431 255 422 260 c 0,358,359
 386 276 386 276 386 279 c 0,360,361
 386 280 386 280 386 280 c 1,362,363
 387 280 387 280 388 280 c 0,364,365
 393 280 393 280 396 286.5 c 128,-1,366
 399 293 399 293 405 319 c 0,367,368
 407 326 407 326 407 327 c 0,369,370
 413 349 413 349 413 352.5 c 128,-1,371
 413 356 413 356 409 358 c 0,372,373
 408 359 408 359 407 359 c 0,374,375
 399 362 399 362 395.5 368 c 128,-1,376
 392 374 392 374 396 380 c 0,243,244
394 257 m 0,377,378
 394 259 394 259 402 255 c 0,379,380
 411 251 411 251 415 249 c 0,381,382
 421 247 421 247 421 244 c 256,383,384
 421 241 421 241 416 222 c 0,385,386
 415 218 415 218 413.5 218 c 128,-1,387
 412 218 412 218 404 222 c 0,388,389
 395 226 395 226 393.5 226 c 128,-1,390
 392 226 392 226 390 228 c 2,391,-1
 387 230 l 1,392,-1
 390 243 l 2,393,394
 393 255 393 255 394 257 c 0,377,378
603 248 m 0,395,396
 602 251 602 251 604 251 c 0,397,398
 605 251 605 251 612 249 c 2,399,-1
 620 247 l 1,400,-1
 620 239 l 2,401,402
 620 230 620 230 611.5 219 c 128,-1,403
 603 208 603 208 599 208 c 0,404,405
 591 208 591 208 597 215 c 0,406,407
 602 221 602 221 604 231 c 256,408,409
 606 241 606 241 603 248 c 0,395,396
439 236 m 0,410,411
 440 238 440 238 443 236 c 0,412,413
 462 226 462 226 465 226 c 0,414,415
 466 226 466 226 469 224 c 2,416,-1
 472 222 l 1,417,-1
 469 208 l 2,418,419
 466 197 466 197 464.5 195.5 c 128,-1,420
 463 194 463 194 458 196 c 0,421,422
 453 199 453 199 443 203 c 0,423,424
 434 208 434 208 433 209 c 0,425,426
 431 212 431 212 439 236 c 0,410,411
383 217 m 0,427,428
 384 221 384 221 386 220 c 0,429,430
 389 220 389 220 424 203 c 0,431,432
 433 199 433 199 441 196 c 0,433,434
 463 185 463 185 499 168 c 0,435,436
 507 165 507 165 508 163.5 c 128,-1,437
 509 162 509 162 508 157 c 0,438,439
 506 151 506 151 496 154 c 0,440,441
 489 157 489 157 463 169 c 0,442,443
 448 176 448 176 429 185 c 0,444,445
 421 189 421 189 409 194.5 c 128,-1,446
 397 200 397 200 390 203 c 256,447,448
 383 206 383 206 382.5 208 c 128,-1,449
 382 210 382 210 383 217 c 0,427,428
486 201 m 128,-1,451
 489 214 489 214 490 214 c 0,452,453
 493 213 493 213 506 207 c 128,-1,454
 519 201 519 201 519 199 c 256,455,456
 519 197 519 197 515.5 185.5 c 128,-1,457
 512 174 512 174 511 173 c 128,-1,458
 510 172 510 172 496.5 178.5 c 128,-1,459
 483 185 483 185 483 186.5 c 128,-1,450
 483 188 483 188 486 201 c 128,-1,451
EndSplineSet
Validated: 5
EndChar

StartChar: C
Encoding: 67 67 21
Width: 1024
Flags: W
LayerCount: 2
Fore
SplineSet
444 384 m 0,0,1
 444 397 444 397 449.5 410 c 128,-1,2
 455 423 455 423 464 432 c 128,-1,3
 473 441 473 441 486 446.5 c 128,-1,4
 499 452 499 452 512 452 c 0,5,6
 541 452 541 452 560.5 432 c 128,-1,7
 580 412 580 412 580 384 c 128,-1,8
 580 356 580 356 560.5 336 c 128,-1,9
 541 316 541 316 512.5 316 c 128,-1,10
 484 316 484 316 464 336 c 128,-1,11
 444 356 444 356 444 384 c 0,0,1
283 212 m 0,12,13
 283 230 283 230 292 246 c 128,-1,14
 301 262 301 262 317 271 c 128,-1,15
 333 280 333 280 351 280 c 0,16,17
 379 280 379 280 399 260 c 128,-1,18
 419 240 419 240 419 212 c 128,-1,19
 419 184 419 184 399 164 c 128,-1,20
 379 144 379 144 351 144 c 128,-1,21
 323 144 323 144 303 164 c 128,-1,22
 283 184 283 184 283 212 c 0,12,13
606 213 m 128,-1,24
 606 241 606 241 625.5 261 c 128,-1,25
 645 281 645 281 673.5 281 c 128,-1,26
 702 281 702 281 721.5 261 c 128,-1,27
 741 241 741 241 741 213 c 0,28,29
 741 199 741 199 736 186.5 c 128,-1,30
 731 174 731 174 722 165 c 128,-1,31
 713 156 713 156 700 150.5 c 128,-1,32
 687 145 687 145 674 145 c 0,33,34
 645 145 645 145 625.5 165 c 128,-1,23
 606 185 606 185 606 213 c 128,-1,24
797 510 m 2,35,36
 803 510 803 510 808 507 c 128,-1,37
 813 504 813 504 816 498.5 c 128,-1,38
 819 493 819 493 819 487 c 2,39,-1
 819 101 l 2,40,41
 819 95 819 95 816 89.5 c 128,-1,42
 813 84 813 84 808 81 c 128,-1,43
 803 78 803 78 797 78 c 2,44,-1
 228 78 l 2,45,46
 219 78 219 78 212.5 85 c 128,-1,47
 206 92 206 92 206 101 c 2,48,-1
 206 487 l 2,49,50
 206 496 206 496 212.5 503 c 128,-1,51
 219 510 219 510 228 510 c 2,52,-1
 797 510 l 2,35,36
803 111 m 2,53,-1
 803 477 l 2,54,55
 803 486 803 486 796.5 492 c 128,-1,56
 790 498 790 498 781 498 c 2,57,-1
 243 498 l 2,58,59
 235 498 235 498 228.5 492 c 128,-1,60
 222 486 222 486 222 477 c 2,61,-1
 222 111 l 2,62,63
 222 102 222 102 228.5 96 c 128,-1,64
 235 90 235 90 243 90 c 2,65,-1
 781 90 l 2,66,67
 790 90 790 90 796.5 96 c 128,-1,68
 803 102 803 102 803 111 c 2,53,-1
925.5 407 m 128,-1,70
 941 352 941 352 941 294 c 128,-1,71
 941 236 941 236 925.5 180.5 c 128,-1,72
 910 125 910 125 881.5 78 c 128,-1,73
 853 31 853 31 814.5 -8.5 c 128,-1,74
 776 -48 776 -48 727.5 -76 c 128,-1,75
 679 -104 679 -104 625 -119 c 128,-1,76
 571 -134 571 -134 512.5 -134 c 128,-1,77
 454 -134 454 -134 399 -119 c 0,78,79
 343 -104 343 -104 296 -76 c 256,80,81
 249 -48 249 -48 209.5 -8.5 c 128,-1,82
 170 31 170 31 142 78 c 128,-1,83
 114 125 114 125 99 179 c 0,84,85
 84 236 84 236 84 294 c 128,-1,86
 84 352 84 352 99 407 c 128,-1,87
 114 462 114 462 142 509.5 c 128,-1,88
 170 557 170 557 209.5 596.5 c 128,-1,89
 249 636 249 636 296 663.5 c 128,-1,90
 343 691 343 691 398 706.5 c 128,-1,91
 453 722 453 722 512 722 c 256,92,93
 571 722 571 722 625 706.5 c 128,-1,94
 679 691 679 691 727.5 663.5 c 128,-1,95
 776 636 776 636 814.5 596.5 c 128,-1,96
 853 557 853 557 881.5 509.5 c 128,-1,69
 910 462 910 462 925.5 407 c 128,-1,70
838 89 m 2,97,-1
 838 499 l 2,98,99
 838 509 838 509 831 516 c 128,-1,100
 824 523 824 523 815 523 c 2,101,-1
 210 523 l 2,102,103
 200 523 200 523 193 516 c 128,-1,104
 186 509 186 509 186 499 c 2,105,-1
 186 89 l 2,106,107
 186 79 186 79 193 72 c 128,-1,108
 200 65 200 65 210 65 c 2,109,-1
 815 65 l 2,110,111
 824 65 824 65 831 72 c 128,-1,112
 838 79 838 79 838 89 c 2,97,-1
EndSplineSet
Validated: 1
EndChar

StartChar: D
Encoding: 68 68 22
Width: 1024
Flags: W
LayerCount: 2
Fore
SplineSet
484 767 m 1,0,-1
 480 769 l 1,1,-1
 475 767 l 1,2,-1
 57 565 l 1,3,-1
 39 556 l 1,4,-1
 57 547 l 1,5,-1
 472 341 l 1,6,-1
 476 339 l 1,7,-1
 481 341 l 1,8,-1
 892 546 l 1,9,-1
 910 555 l 1,10,-1
 892 564 l 1,11,-1
 484 767 l 1,0,-1
480 747 m 1,12,-1
 866 555 l 1,13,-1
 476 361 l 1,14,-1
 84 556 l 1,15,-1
 480 747 l 1,12,-1
66 565 m 1,16,-1
 52 572 l 1,17,-1
 52 556 l 1,18,-1
 51 321 l 1,19,-1
 50 85 l 1,20,-1
 50 79 l 1,21,-1
 56 76 l 1,22,-1
 472 -132 l 1,23,-1
 486 -139 l 1,24,-1
 486 -123 l 1,25,-1
 486 350 l 1,26,-1
 486 356 l 1,27,-1
 481 359 l 1,28,-1
 66 565 l 1,16,-1
72 540 m 1,29,-1
 466 344 l 1,30,-1
 466 -107 l 1,31,-1
 70 91 l 1,32,-1
 71 321 l 1,33,-1
 72 540 l 1,29,-1
472 359 m 1,34,-1
 466 356 l 1,35,-1
 466 350 l 1,36,-1
 466 -123 l 1,37,-1
 466 -139 l 1,38,-1
 481 -132 l 1,39,-1
 894 81 l 1,40,-1
 900 84 l 1,41,-1
 900 90 l 1,42,-1
 898 555 l 1,43,-1
 898 571 l 1,44,-1
 884 564 l 1,45,-1
 472 359 l 1,34,-1
486 344 m 1,46,-1
 878 539 l 1,47,-1
 880 96 l 1,48,-1
 486 -107 l 1,49,-1
 486 344 l 1,46,-1
EndSplineSet
Validated: 5
EndChar

StartChar: E
Encoding: 69 69 23
Width: 1024
Flags: W
LayerCount: 2
Fore
SplineSet
482 750 m 1,0,-1
 879 552 l 1,1,-1
 478 353 l 1,2,-1
 75 554 l 1,3,-1
 482 750 l 1,0,-1
54 520 m 1,4,-1
 457 319 l 1,5,-1
 457 -140 l 1,6,-1
 52 62 l 1,7,-1
 53 291 l 1,8,-1
 54 520 l 1,4,-1
500 319 m 1,9,-1
 901 518 l 1,10,-1
 902 67 l 1,11,-1
 500 -140 l 1,12,-1
 500 319 l 1,9,-1
EndSplineSet
Validated: 1
EndChar

StartChar: F
Encoding: 70 70 24
Width: 1024
Flags: W
LayerCount: 2
Fore
SplineSet
770 278 m 1,0,1
 770 275 770 275 768 269 c 128,-1,2
 766 263 766 263 763 255.5 c 128,-1,3
 760 248 760 248 756 240.5 c 128,-1,4
 752 233 752 233 750 227 c 0,5,6
 738 204 738 204 722 185 c 128,-1,7
 706 166 706 166 686 148 c 128,-1,8
 666 130 666 130 644 118 c 128,-1,9
 622 106 622 106 598 98 c 128,-1,10
 574 90 574 90 551 86 c 128,-1,11
 528 82 528 82 502 84 c 0,12,13
 448 84 448 84 399 107 c 0,14,15
 353 126 353 126 316 164 c 0,16,17
 282 200 282 200 260 250 c 0,18,19
 256 259 256 259 253 267.5 c 128,-1,20
 250 276 250 276 250 278 c 1,21,-1
 253 278 l 2,22,23
 260 276 260 276 266 275 c 128,-1,24
 272 274 272 274 279 274 c 0,25,26
 285 273 285 273 290.5 272.5 c 128,-1,27
 296 272 296 272 302 270 c 128,-1,28
 308 268 308 268 314 267.5 c 128,-1,29
 320 267 320 267 325 266 c 128,-1,30
 330 265 330 265 335 264.5 c 128,-1,31
 340 264 340 264 344 263 c 0,32,33
 349 262 349 262 353.5 261.5 c 128,-1,34
 358 261 358 261 364 260 c 0,35,36
 368 259 368 259 372 258.5 c 128,-1,37
 376 258 376 258 380 257 c 0,38,39
 384 257 384 257 387.5 256.5 c 128,-1,40
 391 256 391 256 395 254 c 0,41,42
 401 253 401 253 405.5 252.5 c 128,-1,43
 410 252 410 252 414 252 c 0,44,45
 424 250 424 250 431 249 c 0,46,47
 435 248 435 248 438.5 247.5 c 128,-1,48
 442 247 442 247 446 246 c 0,49,50
 450 246 450 246 454.5 245 c 128,-1,51
 459 244 459 244 463 244 c 0,52,53
 465 243 465 243 468.5 242.5 c 128,-1,54
 472 242 472 242 474 242 c 0,55,56
 478 242 478 242 483 241.5 c 128,-1,57
 488 241 488 241 492 241 c 0,58,59
 494 241 494 241 497 240.5 c 128,-1,60
 500 240 500 240 502 240 c 2,61,62
 502 240 502 240 514 240 c 0,63,64
 520 240 520 240 526 241 c 0,65,66
 530 241 530 241 535 241.5 c 128,-1,67
 540 242 540 242 544 242 c 0,68,69
 552 243 552 243 560 244.5 c 128,-1,70
 568 246 568 246 576 246 c 0,71,72
 583 247 583 247 589 248.5 c 128,-1,73
 595 250 595 250 602 252 c 0,74,75
 609 253 609 253 615.5 253.5 c 128,-1,76
 622 254 622 254 628 256 c 0,77,78
 636 257 636 257 644 258.5 c 128,-1,79
 652 260 652 260 659 260 c 0,80,81
 665 261 665 261 670.5 262.5 c 128,-1,82
 676 264 676 264 682 264 c 0,83,84
 688 265 688 265 693.5 266 c 128,-1,85
 699 267 699 267 705 268 c 128,-1,86
 711 269 711 269 716.5 269.5 c 128,-1,87
 722 270 722 270 728 272 c 0,88,89
 733 273 733 273 737.5 273.5 c 128,-1,90
 742 274 742 274 747 275 c 128,-1,91
 752 276 752 276 756 277 c 256,92,93
 760 278 760 278 766 278 c 2,94,-1
 770 278 l 1,0,1
722 520 m 2,95,96
 720 518 720 518 712 512 c 128,-1,97
 704 506 704 506 691.5 497 c 128,-1,98
 679 488 679 488 664.5 477.5 c 128,-1,99
 650 467 650 467 634.5 456.5 c 128,-1,100
 619 446 619 446 604.5 435 c 128,-1,101
 590 424 590 424 578.5 416 c 128,-1,102
 567 408 567 408 560 403 c 2,103,-1
 552 398 l 1,104,105
 543 455 543 455 533.5 511.5 c 128,-1,106
 524 568 524 568 516 624 c 1,107,-1
 516 625 l 1,108,109
 518 625 518 625 523 624.5 c 128,-1,110
 528 624 528 624 534 624 c 128,-1,111
 540 624 540 624 547 623 c 128,-1,112
 554 622 554 622 558 621 c 0,113,114
 612 611 612 611 658 581 c 0,115,116
 677 569 677 569 693.5 553.5 c 128,-1,117
 710 538 710 538 724 521 c 1,118,-1
 724 520 l 1,119,-1
 722 520 l 2,95,96
432 423 m 0,120,121
 399 447 399 447 365.5 470.5 c 128,-1,122
 332 494 332 494 298 518 c 0,123,124
 296 520 296 520 296 521 c 0,125,126
 310 539 310 539 326 553.5 c 128,-1,127
 342 568 342 568 360 580 c 0,128,129
 382 594 382 594 405 604 c 128,-1,130
 428 614 428 614 454 620 c 0,131,132
 460 622 460 622 468 623 c 128,-1,133
 476 624 476 624 483 624.5 c 128,-1,134
 490 625 490 625 496 625.5 c 128,-1,135
 502 626 502 626 504 625 c 2,136,-1
 504 624 l 1,137,138
 495 568 495 568 485.5 512 c 128,-1,139
 476 456 476 456 468 400 c 1,140,-1
 467 398 l 2,141,142
 466 398 466 398 465 400 c 0,143,144
 457 406 457 406 448.5 411.5 c 128,-1,145
 440 417 440 417 432 423 c 0,120,121
406 338 m 1,146,147
 406 338 406 338 404 338 c 0,148,149
 364 331 364 331 324 324.5 c 128,-1,150
 284 318 284 318 243 310 c 0,151,152
 242 312 242 312 242 314 c 0,153,154
 241 318 241 318 240.5 321 c 128,-1,155
 240 324 240 324 240 327 c 0,156,157
 239 337 239 337 239 346 c 2,158,-1
 239 363 l 2,159,160
 238 373 238 373 240 384 c 0,161,162
 241 392 241 392 242.5 401 c 128,-1,163
 244 410 244 410 246 418 c 0,164,165
 252 442 252 442 261.5 463 c 128,-1,166
 271 484 271 484 284 504 c 0,167,168
 285 504 285 504 285 505 c 128,-1,169
 285 506 285 506 286 506 c 1,170,-1
 286 506 l 1,171,-1
 346 422 l 1,172,-1
 406 338 l 1,146,147
512 722 m 0,173,174
 570 722 570 722 624.5 706.5 c 128,-1,175
 679 691 679 691 726.5 663.5 c 128,-1,176
 774 636 774 636 812.5 597 c 128,-1,177
 851 558 851 558 878.5 510 c 128,-1,178
 906 462 906 462 921.5 408 c 128,-1,179
 937 354 937 354 937 295 c 0,180,181
 937 209 937 209 904.5 131.5 c 128,-1,182
 872 54 872 54 812 -6 c 0,183,184
 783 -35 783 -35 748.5 -58.5 c 128,-1,185
 714 -82 714 -82 675 -98.5 c 128,-1,186
 636 -115 636 -115 593 -123.5 c 128,-1,187
 550 -132 550 -132 505 -132 c 0,188,189
 447 -132 447 -132 392.5 -116 c 128,-1,190
 338 -100 338 -100 291 -72 c 128,-1,191
 244 -44 244 -44 205.5 -4.5 c 128,-1,192
 167 35 167 35 139.5 83 c 128,-1,193
 112 131 112 131 97 185.5 c 128,-1,194
 82 240 82 240 83 300 c 0,195,196
 83 358 83 358 98.5 412 c 128,-1,197
 114 466 114 466 142 513 c 128,-1,198
 170 560 170 560 209 598.5 c 128,-1,199
 248 637 248 637 295.5 664.5 c 128,-1,200
 343 692 343 692 397.5 707 c 128,-1,201
 452 722 452 722 512 722 c 0,173,174
506 -66 m 0,202,203
 556 -66 556 -66 603 -54 c 128,-1,204
 650 -42 650 -42 690.5 -18 c 128,-1,205
 731 6 731 6 764.5 39 c 128,-1,206
 798 72 798 72 822 112 c 128,-1,207
 846 152 846 152 859 198.5 c 128,-1,208
 872 245 872 245 872 295 c 256,209,210
 872 345 872 345 859 391.5 c 128,-1,211
 846 438 846 438 822.5 478 c 128,-1,212
 799 518 799 518 766 551 c 128,-1,213
 733 584 733 584 692.5 607.5 c 128,-1,214
 652 631 652 631 606 644 c 128,-1,215
 560 657 560 657 510 657 c 256,216,217
 460 657 460 657 413.5 644 c 128,-1,218
 367 631 367 631 327 607.5 c 128,-1,219
 287 584 287 584 254 551 c 128,-1,220
 221 518 221 518 197.5 478 c 128,-1,221
 174 438 174 438 161 392 c 256,222,223
 148 346 148 346 148 296 c 0,224,225
 148 222 148 222 176 156 c 128,-1,226
 204 90 204 90 253 41 c 128,-1,227
 302 -8 302 -8 367 -37 c 128,-1,228
 432 -66 432 -66 506 -66 c 0,202,203
780 374 m 0,229,230
 780 369 780 369 780.5 365 c 128,-1,231
 781 361 781 361 781 356 c 2,232,-1
 781 345 l 2,233,234
 780 340 780 340 780 335 c 2,235,-1
 780 326 l 2,236,237
 780 320 780 320 778 316 c 2,238,-1
 778 313 l 1,239,-1
 778 311 l 1,240,-1
 776 311 l 2,241,242
 768 313 768 313 760 314 c 0,243,244
 752 314 752 314 744 316 c 0,245,246
 736 317 736 317 727 318.5 c 128,-1,247
 718 320 718 320 710 322 c 0,248,249
 702 323 702 323 694.5 324.5 c 128,-1,250
 687 326 687 326 680 326 c 0,251,252
 672 328 672 328 664.5 329 c 128,-1,253
 657 330 657 330 650 332 c 0,254,255
 643 333 643 333 636.5 334 c 128,-1,256
 630 335 630 335 624 336 c 0,257,258
 622 336 622 336 619 336 c 0,259,260
 616 338 616 338 614 338 c 2,261,-1
 613 338 l 1,262,-1
 614 340 l 1,263,264
 644 382 644 382 674 423 c 128,-1,265
 704 464 704 464 734 506 c 1,266,-1
 736 505 l 1,267,268
 748 488 748 488 756 469.5 c 128,-1,269
 764 451 764 451 770 432 c 0,270,271
 772 424 772 424 774 415 c 2,272,-1
 778 397 l 2,273,274
 779 391 779 391 779.5 385.5 c 128,-1,275
 780 380 780 380 780 374 c 0,229,230
EndSplineSet
Validated: 37
EndChar

StartChar: G
Encoding: 71 71 25
Width: 1024
Flags: W
LayerCount: 2
Fore
SplineSet
430 249 m 0,0,1
 440 250 440 250 440 239 c 0,2,3
 441 231 441 231 433 230 c 0,4,5
 428 229 428 229 424.5 231.5 c 128,-1,6
 421 234 421 234 421 238 c 0,7,8
 421 248 421 248 430 249 c 0,0,1
392 255 m 0,9,10
 405 253 405 253 406 240 c 0,11,12
 406 227 406 227 394 223 c 0,13,14
 377 219 377 219 361 222 c 0,15,16
 348 225 348 225 348 241 c 0,17,18
 348 246 348 246 352.5 250.5 c 128,-1,19
 357 255 357 255 363 256 c 2,20,21
 363 256 363 256 376 256 c 0,22,23
 391 255 391 255 392 255 c 0,9,10
533 284 m 0,24,25
 542 284 542 284 542 275 c 0,26,27
 543 251 543 251 542 236 c 0,28,29
 542 224 542 224 531 224 c 0,30,31
 514 224 514 224 480 225 c 0,32,33
 479 225 479 225 472 228 c 1,34,35
 471 239 471 239 471 240 c 0,36,37
 470 259 470 259 470 272 c 256,38,39
 470 285 470 285 482 285 c 0,40,41
 498 285 498 285 533 284 c 0,24,25
530 243 m 0,42,43
 531 247 531 247 531 251 c 0,44,45
 531 261 531 261 522 262 c 0,46,47
 520 262 520 262 506 262 c 1,48,49
 506 262 506 262 506 262 c 1,50,51
 493 262 493 262 492 262 c 0,52,53
 483 261 483 261 482 252 c 0,54,55
 482 247 482 247 483 244 c 0,56,57
 484 236 484 236 490 236 c 0,58,59
 505 235 505 235 522 236 c 0,60,61
 528 236 528 236 530 243 c 0,42,43
309 551 m 1,62,63
 310 534 310 534 310 522 c 1,64,65
 306 530 306 530 309 551 c 1,62,63
397 360 m 0,66,67
 392 357 392 357 386.5 359 c 128,-1,68
 381 361 381 361 381 367 c 0,69,70
 377 404 377 404 381 431 c 0,71,72
 383 439 383 439 391 439 c 0,73,74
 401 439 401 439 402 430 c 0,75,76
 403 426 403 426 402 419 c 0,77,78
 402 417 402 417 402 400 c 1,79,80
 402 400 402 400 401 400 c 1,81,82
 401 373 401 373 401 369 c 0,83,84
 401 363 401 363 397 360 c 0,66,67
357 358 m 0,85,86
 350 359 350 359 348.5 365 c 128,-1,87
 347 371 347 371 346 378 c 0,88,89
 346 380 346 380 346 397 c 1,90,91
 346 397 346 397 347 397 c 1,92,93
 347 420 347 420 347 423 c 0,94,95
 347 427 347 427 348 432 c 0,96,97
 351 440 351 440 361 439 c 0,98,99
 368 438 368 438 371 431 c 0,100,101
 372 426 372 426 372 421 c 0,102,103
 371 398 371 398 370 374 c 0,104,105
 370 368 370 368 368 364 c 0,106,107
 366 356 366 356 357 358 c 0,85,86
698 385 m 0,108,109
 702 384 702 384 706 380 c 128,-1,110
 710 376 710 376 709 372 c 0,111,112
 709 366 709 366 705 362.5 c 128,-1,113
 701 359 701 359 696 359 c 0,114,115
 684 360 684 360 684 372 c 0,116,117
 684 378 684 378 688 381.5 c 128,-1,118
 692 385 692 385 698 385 c 0,108,109
743 378 m 0,119,120
 744 361 744 361 746.5 326.5 c 128,-1,121
 749 292 749 292 750 274 c 0,122,123
 750 273 750 273 750 257 c 1,124,125
 750 257 750 257 749 257 c 256,126,127
 748 257 748 257 747 257 c 0,128,129
 742 285 742 285 741 286 c 0,130,131
 738 304 738 304 732.5 338 c 128,-1,132
 727 372 727 372 724 387 c 0,133,134
 723 393 723 393 721 399 c 0,135,136
 718 411 718 411 705 411 c 0,137,138
 698 412 698 412 688 412 c 0,139,140
 675 412 675 412 672 400 c 0,141,142
 668 385 668 385 666 375 c 0,143,144
 663 355 663 355 656.5 317 c 128,-1,145
 650 279 650 279 648.5 272.5 c 128,-1,146
 647 266 647 266 645 261 c 1,147,148
 644 282 644 282 644 283 c 0,149,150
 647 315 647 315 652 390 c 0,151,152
 654 413 654 413 655 418 c 0,153,154
 657 431 657 431 663.5 436 c 128,-1,155
 670 441 670 441 683 442 c 0,156,157
 694 443 694 443 709 442 c 0,158,159
 725 442 725 442 732 435 c 128,-1,160
 739 428 739 428 741 413 c 0,161,162
 741 406 741 406 741.5 394 c 128,-1,163
 742 382 742 382 743 378 c 0,119,120
925.5 406 m 128,-1,165
 941 351 941 351 941 293 c 128,-1,166
 941 235 941 235 925.5 179.5 c 128,-1,167
 910 124 910 124 881.5 77 c 128,-1,168
 853 30 853 30 814.5 -9.5 c 128,-1,169
 776 -49 776 -49 727.5 -77 c 128,-1,170
 679 -105 679 -105 625 -120 c 128,-1,171
 571 -135 571 -135 512.5 -135 c 128,-1,172
 454 -135 454 -135 399 -120 c 128,-1,173
 344 -105 344 -105 296.5 -77 c 128,-1,174
 249 -49 249 -49 209.5 -9.5 c 128,-1,175
 170 30 170 30 142 77 c 128,-1,176
 114 124 114 124 99 179 c 0,177,178
 84 235 84 235 84 293.5 c 128,-1,179
 84 352 84 352 99 406.5 c 128,-1,180
 114 461 114 461 142.5 509 c 128,-1,181
 171 557 171 557 210 596 c 128,-1,182
 249 635 249 635 296 662.5 c 128,-1,183
 343 690 343 690 398 706 c 128,-1,184
 453 722 453 722 512 722 c 256,185,186
 571 722 571 722 625 706 c 128,-1,187
 679 690 679 690 727.5 662.5 c 128,-1,188
 776 635 776 635 814.5 596 c 128,-1,189
 853 557 853 557 881.5 509 c 128,-1,164
 910 461 910 461 925.5 406 c 128,-1,165
268 181 m 0,190,191
 268 208 268 208 266 215 c 1,192,193
 254 213 254 213 250.5 209.5 c 128,-1,194
 247 206 247 206 246 195 c 0,195,196
 241 133 241 133 244 84 c 0,197,198
 245 66 245 66 246 54 c 0,199,200
 248 40 248 40 257 33 c 0,201,202
 259 32 259 32 261 32 c 128,-1,203
 263 32 263 32 265 33.5 c 128,-1,204
 267 35 267 35 267 37 c 0,205,206
 267 40 267 40 266.5 46.5 c 128,-1,207
 266 53 266 53 266 56 c 0,208,209
 266 73 266 73 267 115.5 c 128,-1,210
 268 158 268 158 268 181 c 0,190,191
637 32 m 0,211,212
 647 32 647 32 647 41 c 0,213,214
 647 67 647 67 644 79 c 1,215,-1
 624 80 l 1,216,217
 519 81 519 81 461 81 c 0,218,219
 451 81 451 81 426 80 c 0,220,221
 418 79 418 79 417 73 c 0,222,223
 417 69 417 69 416 60.5 c 128,-1,224
 415 52 415 52 415 47.5 c 128,-1,225
 415 43 415 43 416 34 c 1,226,227
 416 34 416 34 424 32 c 0,228,229
 429 32 429 32 476 32 c 0,230,231
 484 32 484 32 524.5 31.5 c 128,-1,232
 565 31 565 31 587 31 c 0,233,234
 614 31 614 31 637 32 c 0,211,212
778 38 m 0,235,236
 782 92 782 92 782 104 c 0,237,238
 781 152 781 152 779 241.5 c 128,-1,239
 777 331 777 331 777 354 c 0,240,241
 777 420 777 420 775 504 c 0,242,243
 774 546 774 546 774 554 c 0,244,245
 774 566 774 566 764 573 c 0,246,247
 761 575 761 575 752 575 c 0,248,249
 739 575 739 575 722 575.5 c 128,-1,250
 705 576 705 576 691 576 c 128,-1,251
 677 576 677 576 661.5 576.5 c 128,-1,252
 646 577 646 577 630.5 577 c 128,-1,253
 615 577 615 577 601 577 c 0,254,255
 508 578 508 578 493 578 c 0,256,257
 457 577 457 577 448 575 c 1,258,259
 448 575 448 575 446 569 c 0,260,261
 446 564 446 564 445.5 552.5 c 128,-1,262
 445 541 445 541 445 534 c 0,263,264
 444 513 444 513 441 512 c 0,265,266
 439 511 439 511 434.5 511 c 128,-1,267
 430 511 430 511 425 511.5 c 128,-1,268
 420 512 420 512 420 513 c 0,269,270
 418 517 418 517 418 522 c 128,-1,271
 418 527 418 527 418 538 c 128,-1,272
 418 549 418 549 418 555 c 0,273,274
 417 565 417 565 416 572 c 0,275,276
 416 576 416 576 410 576 c 0,277,278
 403 576 403 576 403 570 c 0,279,280
 403 566 403 566 402 539 c 0,281,282
 402 519 402 519 399 512 c 0,283,284
 396 513 396 513 393 514 c 0,285,286
 390 525 390 525 353.5 543.5 c 128,-1,287
 317 562 317 562 315 573 c 1,288,289
 311 570 311 570 308 568 c 1,290,291
 306 572 306 572 306 573 c 0,292,293
 305 575 305 575 304 575 c 0,294,295
 300 574 300 574 300 573 c 0,296,297
 298 569 298 569 298 564 c 0,298,299
 298 557 298 557 297.5 538 c 128,-1,300
 297 519 297 519 297 509 c 0,301,302
 296 483 296 483 293 477 c 0,303,304
 294 476 294 476 294 469 c 0,305,306
 294 468 294 468 296 459 c 1,307,308
 292 455 292 455 292 448 c 0,309,310
 292 447 292 447 292.5 444 c 128,-1,311
 293 441 293 441 293 440 c 128,-1,312
 293 439 293 439 293 436 c 0,313,314
 291 426 291 426 288 358 c 0,315,316
 287 339 287 339 286 301.5 c 128,-1,317
 285 264 285 264 285 259 c 0,318,319
 285 252 285 252 284.5 236.5 c 128,-1,320
 284 221 284 221 283 212 c 0,321,322
 283 174 283 174 282 136 c 0,323,324
 280 72 280 72 282 54 c 0,325,326
 285 46 285 46 289 22 c 0,327,328
 291 11 291 11 303 11 c 0,329,330
 326 11 326 11 336 10 c 0,331,332
 346 10 346 10 349 19 c 0,333,334
 353 32 353 32 354 41 c 0,335,336
 355 47 355 47 356 62.5 c 128,-1,337
 357 78 357 78 359 86 c 0,338,339
 361 100 361 100 366 105 c 128,-1,340
 371 110 371 110 387 110 c 0,341,342
 399 110 399 110 440.5 110 c 128,-1,343
 482 110 482 110 494 110 c 0,344,345
 540 108 540 108 627 109 c 0,346,347
 677 109 677 109 681 109 c 0,348,349
 691 108 691 108 695.5 105 c 128,-1,350
 700 102 700 102 702 92 c 0,351,352
 704 85 704 85 704 72 c 0,353,354
 705 51 705 51 712 18 c 0,355,356
 714 9 714 9 724 9 c 0,357,358
 744 8 744 8 760 9 c 0,359,360
 768 10 768 10 770.5 12 c 128,-1,361
 773 14 773 14 775 21 c 0,362,363
 778 33 778 33 778 38 c 0,235,236
700 464 m 0,364,365
 686 463 686 463 674.5 473.5 c 128,-1,366
 663 484 663 484 663 497 c 0,367,368
 663 511 663 511 673.5 522 c 128,-1,369
 684 533 684 533 698 533 c 0,370,371
 713 533 713 533 722 522.5 c 128,-1,372
 731 512 731 512 731 498 c 0,373,374
 732 483 732 483 722 473.5 c 128,-1,375
 712 464 712 464 700 464 c 0,364,365
604 236 m 0,376,377
 604 227 604 227 604.5 210 c 128,-1,378
 605 193 605 193 606 184 c 0,379,380
 606 169 606 169 606 158 c 0,381,382
 605 149 605 149 596 148 c 0,383,384
 582 146 582 146 573 146 c 0,385,386
 552 146 552 146 509 146.5 c 128,-1,387
 466 147 466 147 445 147 c 0,388,389
 439 147 439 147 321 148 c 2,390,-1
 314 148 l 2,391,392
 303 148 303 148 299.5 151.5 c 128,-1,393
 296 155 296 155 297 167 c 0,394,395
 297 192 297 192 299 247 c 0,396,397
 299 263 299 263 300 293 c 128,-1,398
 301 323 301 323 302 332 c 0,399,400
 304 392 304 392 305 425 c 0,401,402
 305 430 305 430 305 442 c 128,-1,403
 305 454 305 454 306 460 c 0,404,405
 306 470 306 470 316 471 c 0,406,407
 325 473 325 473 335 472 c 0,408,409
 344 472 344 472 355.5 472 c 128,-1,410
 367 472 367 472 378 471.5 c 128,-1,411
 389 471 389 471 398 471 c 0,412,413
 410 471 410 471 476 470 c 0,414,415
 495 470 495 470 530 470 c 128,-1,416
 565 470 565 470 575 470 c 0,417,418
 583 470 583 470 584 470 c 0,419,420
 597 468 597 468 598 455 c 0,421,422
 598 448 598 448 598.5 439.5 c 128,-1,423
 599 431 599 431 599 421 c 128,-1,424
 599 411 599 411 599 405 c 0,425,426
 600 397 600 397 603 305 c 0,427,428
 604 242 604 242 604 236 c 0,376,377
512 342 m 0,429,430
 499 343 499 343 501 329 c 0,431,432
 502 321 502 321 510 320 c 0,433,434
 518 320 518 320 527 321 c 0,435,436
 535 322 535 322 534 329 c 2,437,-1
 533 339 l 1,438,-1
 529 341 l 2,439,440
 526 341 526 341 523 341.5 c 128,-1,441
 520 342 520 342 517 342 c 128,-1,442
 514 342 514 342 512 342 c 0,429,430
570 380 m 0,443,444
 571 435 571 435 570 438 c 0,445,446
 570 445 570 445 568 447.5 c 128,-1,447
 566 450 566 450 558 450 c 0,448,449
 557 450 557 450 550.5 450 c 128,-1,450
 544 450 544 450 542 449 c 2,451,-1
 528 447 l 1,452,453
 538 444 538 444 541 442 c 0,454,455
 545 430 545 430 547.5 403 c 128,-1,456
 550 376 550 376 549.5 348.5 c 128,-1,457
 549 321 549 321 547 307 c 1,458,459
 540 304 540 304 516 304 c 0,460,461
 477 304 477 304 466 307 c 1,462,463
 464 314 464 314 463 326 c 0,464,465
 463 328 463 328 463.5 333.5 c 128,-1,466
 464 339 464 339 464 340 c 0,467,468
 464 367 464 367 463.5 372.5 c 128,-1,469
 463 378 463 378 466.5 404 c 128,-1,470
 470 430 470 430 471 435 c 0,471,472
 472 443 472 443 479 445 c 0,473,474
 480 445 480 445 493 447 c 1,475,476
 481 450 481 450 467 450 c 0,477,478
 431 451 431 451 400 451 c 0,479,480
 375 451 375 451 350 450 c 0,481,482
 349 450 349 450 338 448 c 1,483,-1
 336 437 l 2,484,485
 335 414 335 414 335 390 c 0,486,487
 334 336 334 336 334 291 c 0,488,489
 333 253 333 253 334 225 c 0,490,491
 334 212 334 212 338 207 c 0,492,493
 339 207 339 207 348 207 c 128,-1,494
 357 207 357 207 361.5 207 c 128,-1,495
 366 207 366 207 398.5 207 c 128,-1,496
 431 207 431 207 448 207 c 0,497,498
 462 207 462 207 494 206.5 c 128,-1,499
 526 206 526 206 544 206 c 0,500,501
 560 206 560 206 567 209 c 1,502,-1
 570 222 l 1,503,504
 570 243 570 243 570 316 c 0,505,506
 570 327 570 327 570 348.5 c 128,-1,507
 570 370 570 370 570 380 c 0,443,444
EndSplineSet
Validated: 33
EndChar

StartChar: H
Encoding: 72 72 26
Width: 1024
Flags: W
HStem: -124 73<422 606> 36 46<469.675 559.452> 60 22<440.061 479 549.094 588.939> 132 21<461.076 569.853> 400 22<469.39 560.019> 445 21<461.75 570.623> 516 46<468.504 560.496> 516 22<440.051 478.875 551.375 589.842> 649 73<426.516 606>
VStem: 92 72<186.011 412.201> 252 46<253.827 345.188> 276 22<225.293 262.137 335.621 373.201> 348 66<272 327.5> 616 23<253.841 345.91> 661.5 20.5<245.745 351.995> 732 46<254.016 343.602> 732 22<226.258 261.999 334.501 363 365 374.75> 865 73<187.511 412.311>
LayerCount: 2
Fore
SplineSet
938 300 m 0,0,1
 938 242 938 242 923 187.5 c 128,-1,2
 908 133 908 133 880.5 86 c 128,-1,3
 853 39 853 39 814.5 0.5 c 128,-1,4
 776 -38 776 -38 729.5 -65.5 c 128,-1,5
 683 -93 683 -93 629 -108.5 c 128,-1,6
 575 -124 575 -124 517 -124 c 0,7,8
 458 -124 458 -124 404 -109 c 128,-1,9
 350 -94 350 -94 302 -67 c 128,-1,10
 254 -40 254 -40 215.5 -1 c 128,-1,11
 177 38 177 38 149.5 85 c 128,-1,12
 122 132 122 132 107 186 c 128,-1,13
 92 240 92 240 92 298 c 256,14,15
 92 356 92 356 107 410.5 c 128,-1,16
 122 465 122 465 149 512 c 128,-1,17
 176 559 176 559 214.5 597.5 c 128,-1,18
 253 636 253 636 299.5 663.5 c 128,-1,19
 346 691 346 691 400 706.5 c 128,-1,20
 454 722 454 722 512 722 c 256,21,22
 570 722 570 722 624 708 c 128,-1,23
 678 694 678 694 725 666.5 c 128,-1,24
 772 639 772 639 811 600.5 c 128,-1,25
 850 562 850 562 878 515 c 128,-1,26
 906 468 906 468 922 414 c 128,-1,27
 938 360 938 360 938 300 c 0,0,1
298 236 m 1,28,29
 337 198 337 198 374.5 159 c 128,-1,30
 412 120 412 120 451 82 c 1,31,-1
 578 82 l 1,32,33
 617 120 617 120 654.5 158.5 c 128,-1,34
 692 197 692 197 732 236 c 1,35,-1
 732 241 l 1,36,-1
 732 357 l 1,37,38
 732 357 732 357 732 361 c 0,39,40
 732 362 732 362 732 363 c 2,41,-1
 730 365 l 2,42,43
 730 366 730 366 728 368 c 0,44,45
 656 440 656 440 583 512 c 1,46,-1
 580 514 l 2,47,48
 578 516 578 516 576 516 c 2,49,-1
 574 516 l 1,50,-1
 456 516 l 1,51,-1
 451 516 l 1,52,53
 412 477 412 477 374 439.5 c 128,-1,54
 336 402 336 402 298 362 c 1,55,-1
 298 236 l 1,28,29
164 300 m 1,56,-1
 164 226 l 1,57,-1
 164 210 l 2,58,59
 164 206 164 206 167 205 c 2,60,-1
 168 204 l 1,61,-1
 189 183 l 1,62,-1
 210 162 l 1,63,-1
 213 159 l 2,64,65
 216 157 216 157 218 159 c 2,66,-1
 220 162 l 2,67,68
 228 169 228 169 235 177 c 0,69,70
 245 186 245 186 254 195 c 0,71,72
 262 204 262 204 272 214 c 0,73,74
 276 216 276 216 276 221 c 2,75,-1
 276 248 l 2,76,77
 276 254 276 254 272 256 c 0,78,79
 262 264 262 264 254 275 c 0,80,81
 252 277 252 277 252 281 c 2,82,-1
 252 318 l 2,83,84
 252 320 252 320 254 322 c 128,-1,85
 256 324 256 324 256 326 c 0,86,87
 260 330 260 330 264.5 335 c 128,-1,88
 269 340 269 340 273 344 c 0,89,90
 276 346 276 346 276 348 c 2,91,-1
 276 379 l 2,92,93
 276 382 276 382 274 383 c 0,94,95
 272 383 272 383 272 385 c 2,96,97
 272 385 272 385 246 410 c 0,98,99
 234 422 234 422 220 436 c 2,100,101
 220 436 220 436 218 438 c 2,102,103
 218 438 218 438 218 439 c 0,104,105
 216 441 216 441 213 439 c 2,106,-1
 210 437 l 2,107,108
 206 432 206 432 201 427 c 2,109,-1
 192 418 l 2,110,111
 185 412 185 412 179 406 c 0,112,113
 174 400 174 400 168 394 c 0,114,115
 164 391 164 391 164 387 c 2,116,-1
 164 384 l 1,117,-1
 164 300 l 1,56,-1
578 538 m 1,118,-1
 593 538 l 2,119,120
 597 538 597 538 600 542 c 0,121,122
 613 555 613 555 626 568 c 0,123,124
 638 580 638 580 652 594 c 0,125,126
 656 598 656 598 652 603 c 0,127,128
 641 613 641 613 630.5 624 c 128,-1,129
 620 635 620 635 610 645 c 2,130,-1
 606 649 l 1,131,-1
 601 649 l 1,132,-1
 428 649 l 2,133,134
 427 649 427 649 426.5 649.5 c 128,-1,135
 426 650 426 650 424 649 c 2,136,-1
 422 648 l 1,137,138
 420 646 l 2,139,-1
 399 625 l 1,140,-1
 377 603 l 1,141,-1
 375 601 l 2,142,143
 372 598 372 598 374 596 c 0,144,145
 374 595 374 595 375 595 c 2,146,-1
 376 594 l 1,147,-1
 403 567 l 2,148,149
 416 554 416 554 430 542 c 0,150,151
 432 538 432 538 436 538 c 2,152,-1
 464 538 l 2,153,154
 468 538 468 538 471 542 c 2,155,-1
 480 550 l 2,156,157
 484 555 484 555 490 559 c 0,158,159
 494 562 494 562 496 562 c 0,160,161
 514 560 514 560 532 562 c 0,162,163
 536 562 536 562 540 559 c 0,164,165
 546 555 546 555 550 550.5 c 128,-1,166
 554 546 554 546 558 542 c 0,167,168
 561 538 561 538 565 538 c 2,169,-1
 578 538 l 1,118,-1
606 -51 m 1,170,-1
 608 -50 l 2,171,172
 608 -49 608 -49 610 -48 c 2,173,-1
 631 -27 l 2,174,175
 642 -16 642 -16 653 -4 c 2,176,-1
 654 -3 l 2,177,178
 656 -1 656 -1 654 2 c 2,179,-1
 653 4 l 1,180,-1
 626 31 l 2,181,182
 614 44 614 44 600 57 c 0,183,184
 598 60 598 60 593 60 c 2,185,-1
 565 60 l 2,186,187
 560 60 560 60 558 57 c 0,188,189
 553 53 553 53 548 48 c 2,190,-1
 539 39 l 2,191,192
 536 36 536 36 533 36 c 2,193,-1
 496 36 l 2,194,195
 493 36 493 36 490 40 c 0,196,197
 484 44 484 44 480 48 c 2,198,-1
 472 56 l 2,199,200
 470 60 470 60 463 60 c 2,201,-1
 442 60 l 1,202,-1
 435 60 l 2,203,204
 432 60 432 60 430 58 c 2,205,-1
 430 57 l 1,206,-1
 429 56 l 2,207,208
 416 44 416 44 403.5 31 c 128,-1,209
 391 18 391 18 377 5 c 2,210,-1
 374 2 l 2,211,212
 372 0 372 0 375 -2 c 0,213,214
 376 -4 376 -4 378 -6 c 2,215,-1
 398 -26 l 1,216,-1
 419 -47 l 1,217,-1
 421 -49 l 2,218,219
 422 -50 422 -50 422 -51 c 1,220,-1
 606 -51 l 1,170,-1
754 253 m 1,221,-1
 754 218 l 1,222,-1
 755 216 l 2,223,224
 755 215 755 215 755.5 214.5 c 128,-1,225
 756 214 756 214 757 214 c 2,226,-1
 783 188 l 2,227,228
 796 176 796 176 809 162 c 0,229,230
 812 162 812 162 812 160 c 0,231,232
 814 158 814 158 816 160 c 2,233,-1
 818 161 l 1,234,235
 829 173 829 173 840 184 c 0,236,237
 852 194 852 194 862 204 c 0,238,239
 866 208 866 208 865 212 c 2,240,-1
 865 387 l 2,241,242
 866 391 866 391 862 394 c 0,243,244
 852 404 852 404 840.5 415 c 128,-1,245
 829 426 829 426 818 438 c 0,246,247
 816 440 816 440 816 439 c 1,248,249
 814 442 814 442 812 440 c 2,250,-1
 812 439 l 1,251,-1
 810 438 l 1,252,-1
 783 411 l 1,253,-1
 756 384 l 2,254,255
 754 382 754 382 754 378 c 2,256,-1
 754 349 l 2,257,258
 754 345 754 345 756 343 c 0,259,260
 760 339 760 339 765 334.5 c 128,-1,261
 770 330 770 330 774 324 c 0,262,263
 778 320 778 320 778 316 c 2,264,-1
 778 283 l 1,265,-1
 778 278 l 2,266,267
 778 276 778 276 774 272 c 0,268,269
 770 267 770 267 765 262 c 128,-1,270
 760 257 760 257 754 253 c 1,221,-1
392 506 m 1,271,272
 391 507 391 507 390 508 c 2,273,-1
 390 510 l 1,274,-1
 370 530 l 1,275,-1
 350 550 l 1,276,-1
 348 550 l 1,277,278
 342 544 342 544 336 538.5 c 128,-1,279
 330 533 330 533 324 526 c 1,280,-1
 324 524 l 1,281,282
 336 514 336 514 346 504 c 2,283,-1
 366 484 l 1,284,-1
 368 483 l 1,285,-1
 380 494 l 2,286,287
 385 500 385 500 392 506 c 1,271,272
288 490 m 1,288,289
 286 488 286 488 282 484 c 2,290,-1
 274 478 l 2,291,292
 270 474 270 474 267 470 c 0,293,294
 264 468 264 468 264 466 c 2,295,-1
 265 464 l 1,296,-1
 285 444 l 1,297,-1
 305 424 l 1,298,-1
 306 424 l 1,299,300
 306 422 306 422 307 422 c 2,301,-1
 312 428 l 2,302,303
 316 431 316 431 320 434.5 c 128,-1,304
 324 438 324 438 327 442 c 128,-1,305
 330 446 330 446 330 447 c 0,306,307
 329 448 329 448 323 454.5 c 128,-1,308
 317 461 317 461 310 468 c 2,309,-1
 296 482 l 1,310,-1
 288 490 l 1,288,289
662 483 m 1,311,-1
 664 484 l 1,312,-1
 684 504 l 2,313,314
 694 514 694 514 705 524 c 2,315,-1
 706 525 l 1,316,-1
 706 526 l 1,317,-1
 706 527 l 1,318,-1
 705 528 l 2,319,320
 699 534 699 534 693.5 539 c 128,-1,321
 688 544 688 544 682 550 c 1,322,-1
 681 550 l 1,323,324
 671 540 671 540 661.5 531 c 128,-1,325
 652 522 652 522 644 512 c 0,326,327
 642 511 642 511 641 510 c 0,328,329
 640 510 640 510 638 508 c 2,330,-1
 638 507 l 1,331,-1
 638 506 l 1,332,333
 644 500 644 500 650 494.5 c 128,-1,334
 656 489 656 489 662 483 c 1,311,-1
722 422 m 2,335,-1
 726 426 l 2,336,337
 728 428 728 428 730 429 c 0,338,339
 731 431 731 431 732.5 432.5 c 128,-1,340
 734 434 734 434 735 436 c 0,341,342
 739 440 739 440 741 441 c 0,343,344
 743 443 743 443 745 444.5 c 128,-1,345
 747 446 747 446 748 448 c 2,346,-1
 751 451 l 2,347,348
 752 452 752 452 754 453 c 2,349,-1
 760 460 l 1,350,-1
 762 462 l 1,351,-1
 766 466 l 1,352,-1
 754 478 l 2,353,354
 748 484 748 484 741 490 c 1,355,-1
 734 482 l 1,356,-1
 720 468 l 2,357,358
 712 461 712 461 706 454.5 c 128,-1,359
 700 448 700 448 699 446 c 0,360,361
 700 444 700 444 703.5 441 c 128,-1,362
 707 438 707 438 710.5 434 c 128,-1,363
 714 430 714 430 717 426.5 c 128,-1,364
 720 423 720 423 722 422 c 2,335,-1
307 176 m 1,365,-1
 306 176 l 1,366,367
 306 175 306 175 305 175 c 0,368,369
 295 164 295 164 284.5 154 c 128,-1,370
 274 144 274 144 264 133 c 1,371,-1
 264 132 l 1,372,-1
 276 120 l 1,373,-1
 288 108 l 1,374,-1
 293 113 l 1,375,-1
 298 118 l 2,376,377
 300 120 300 120 303 124 c 128,-1,378
 306 128 306 128 310 130 c 0,379,380
 312 133 312 133 315 135.5 c 128,-1,381
 318 138 318 138 320 141 c 0,382,383
 322 143 322 143 325 145.5 c 128,-1,384
 328 148 328 148 330 152 c 0,385,386
 329 154 329 154 325.5 157 c 128,-1,387
 322 160 322 160 318.5 164 c 128,-1,388
 315 168 315 168 312 172 c 2,389,-1
 307 176 l 1,365,-1
699 152 m 0,390,391
 700 151 700 151 706 144 c 128,-1,392
 712 137 712 137 720 129.5 c 128,-1,393
 728 122 728 122 734 115.5 c 128,-1,394
 740 109 740 109 742 108 c 0,395,396
 744 108 744 108 743 109 c 1,397,-1
 754 120 l 1,398,-1
 765 131 l 1,399,-1
 766 132 l 1,400,-1
 762 136 l 2,401,402
 752 146 752 146 742.5 156 c 128,-1,403
 733 166 733 166 723 176 c 1,404,-1
 722 176 l 1,405,-1
 718 172 l 1,406,-1
 710 164 l 1,407,-1
 703 157 l 2,408,409
 700 154 700 154 699 152 c 0,390,391
324 72 m 1,410,411
 326 70 326 70 330 66 c 2,412,-1
 336 58 l 2,413,414
 340 54 340 54 343.5 51.5 c 128,-1,415
 347 49 347 49 348 48 c 0,416,417
 350 48 350 48 350 50 c 0,418,419
 360 60 360 60 370 69.5 c 128,-1,420
 380 79 380 79 390 89 c 1,421,-1
 390 90 l 2,422,423
 392 91 392 91 392 92 c 0,424,425
 390 94 390 94 386 97 c 128,-1,426
 382 100 382 100 378 104 c 2,427,-1
 371 111 l 1,428,-1
 367 115 l 1,429,430
 357 103 357 103 346.5 93.5 c 128,-1,431
 336 84 336 84 324 72 c 1,410,411
706 72 m 1,432,-1
 706 73 l 1,433,-1
 704 74 l 2,434,435
 692 84 692 84 682 94.5 c 128,-1,436
 672 105 672 105 662 115 c 1,437,-1
 662 114 l 1,438,439
 662 114 662 114 661 114 c 0,440,441
 655 108 655 108 649.5 103 c 128,-1,442
 644 98 644 98 638 92 c 1,443,-1
 638 90 l 2,444,445
 638 89 638 89 639 88 c 2,446,-1
 640 88 l 1,447,-1
 660 68 l 1,448,-1
 680 48 l 1,449,-1
 681 48 l 1,450,-1
 682 48 l 1,451,452
 687 53 687 53 693.5 59 c 128,-1,453
 700 65 700 65 706 72 c 1,432,-1
682 300 m 0,454,455
 682 266 682 266 669 235 c 128,-1,456
 656 204 656 204 633.5 181 c 128,-1,457
 611 158 611 158 580.5 145 c 128,-1,458
 550 132 550 132 514 132 c 0,459,460
 479 132 479 132 448.5 145 c 128,-1,461
 418 158 418 158 395.5 181 c 128,-1,462
 373 204 373 204 360 234 c 0,463,464
 348 266 348 266 348 300 c 0,465,466
 348 335 348 335 361 365.5 c 128,-1,467
 374 396 374 396 397 418 c 128,-1,468
 420 440 420 440 450.5 453 c 128,-1,469
 481 466 481 466 515 466 c 128,-1,470
 549 466 549 466 579.5 453 c 128,-1,471
 610 440 610 440 633 417.5 c 128,-1,472
 656 395 656 395 669 365 c 128,-1,473
 682 335 682 335 682 300 c 0,454,455
616 300 m 0,474,475
 616 321 616 321 608 339 c 128,-1,476
 600 357 600 357 586 370.5 c 128,-1,477
 572 384 572 384 554 392 c 0,478,479
 534 400 534 400 514 400 c 0,480,481
 493 400 493 400 475 392 c 128,-1,482
 457 384 457 384 443.5 370 c 128,-1,483
 430 356 430 356 422 338 c 128,-1,484
 414 320 414 320 414 299 c 128,-1,485
 414 278 414 278 422 259.5 c 128,-1,486
 430 241 430 241 444 227.5 c 128,-1,487
 458 214 458 214 476 206 c 128,-1,488
 494 198 494 198 516 198 c 0,489,490
 536 198 536 198 554 206 c 128,-1,491
 572 214 572 214 585.5 227.5 c 128,-1,492
 599 241 599 241 607.5 259.5 c 128,-1,493
 616 278 616 278 616 300 c 0,474,475
418 220 m 1,494,495
 388 258 388 258 391 306 c 0,496,497
 393 331 393 331 402 352 c 0,498,499
 410 372 410 372 428 389 c 0,500,501
 458 416 458 416 501 422 c 0,502,503
 527 425 527 425 549.5 418.5 c 128,-1,504
 572 412 572 412 594 396 c 1,505,506
 598 399 598 399 603 403.5 c 128,-1,507
 608 408 608 408 609 411 c 0,508,509
 589 429 589 429 562.5 437.5 c 128,-1,510
 536 446 536 446 509 445 c 128,-1,511
 482 444 482 444 455 432 c 0,512,513
 428 422 428 422 406 398 c 0,514,515
 378 370 378 370 371 330 c 0,516,517
 363 290 363 290 376 250 c 0,518,519
 378 244 378 244 381.5 237 c 128,-1,520
 385 230 385 230 388.5 224 c 128,-1,521
 392 218 392 218 396 213 c 128,-1,522
 400 208 400 208 403 205 c 1,523,-1
 410 212 l 1,524,-1
 418 220 l 1,494,495
420 188 m 1,525,526
 441 170 441 170 467.5 161 c 128,-1,527
 494 152 494 152 521.5 153 c 128,-1,528
 549 154 549 154 575.5 165.5 c 128,-1,529
 602 177 602 177 623 200 c 0,530,531
 643 222 643 222 652.5 249 c 128,-1,532
 662 276 662 276 661.5 302 c 128,-1,533
 661 328 661 328 651.5 352 c 128,-1,534
 642 376 642 376 626 394 c 1,535,536
 624 392 624 392 618 386 c 0,537,538
 614 380 614 380 612 378 c 0,539,540
 628 358 628 358 634 335.5 c 128,-1,541
 640 313 640 313 639 291.5 c 128,-1,542
 638 270 638 270 629 250 c 256,543,544
 620 230 620 230 605 214 c 0,545,546
 575 182 575 182 531 176 c 0,547,548
 505 172 505 172 481 179 c 0,549,550
 458 186 458 186 436 202 c 1,551,552
 432 198 432 198 428 195 c 128,-1,553
 424 192 424 192 420 188 c 1,525,526
EndSplineSet
Validated: 33
EndChar

StartChar: I
Encoding: 73 73 27
Width: 1024
Flags: W
HStem: 187 17<262.098 306 339 490 523 674 707 749.902> 235 16<264.098 305 339 490 523 674 707 747.902> 282 16<263.067 305 339 490 523 674 707 749> 328 17<265.067 305 339 490 523 674 707 748> 375 15<263.067 305 339 490 523 674 707 748> 462 23<440 572> 534 12<353.009 428 585 659.03> 544.5 12.5<470.936 541.607>
VStem: 305 34<205 235 251 281 298 328 345 374> 428 13<485 514.881> 490 33<204 235 251 282 298 328 345 375> 572 13<485 514.762> 674 33<205 235 251 281 298 328 345 374>
LayerCount: 2
Fore
SplineSet
478 721 m 0,0,1
 577 728 577 728 667.5 690 c 128,-1,2
 758 652 758 652 820 585 c 128,-1,3
 882 518 882 518 913 425 c 128,-1,4
 944 332 944 332 930 233 c 0,5,6
 914 122 914 122 846.5 34 c 128,-1,7
 779 -54 779 -54 678 -98.5 c 128,-1,8
 577 -143 577 -143 465 -132 c 0,9,10
 352 -121 352 -121 260.5 -56.5 c 128,-1,11
 169 8 169 8 120.5 108 c 128,-1,12
 72 208 72 208 79 322 c 0,13,14
 86 427 86 427 140 516 c 128,-1,15
 194 605 194 605 283 659.5 c 128,-1,16
 372 714 372 714 478 721 c 0,0,1
437 594 m 2,17,18
 402 583 402 583 371 561 c 0,19,20
 353 548 353 548 353 547 c 256,21,22
 353 546 353 546 390 546 c 2,23,-1
 428 546 l 1,24,-1
 428 552 l 1,25,-1
 428 557 l 1,26,-1
 506 557 l 1,27,-1
 584 557 l 1,28,-1
 584 552 l 1,29,-1
 584 546 l 1,30,-1
 622 546 l 2,31,32
 634 546 634 546 642 546.5 c 128,-1,33
 650 547 650 547 655 547 c 128,-1,34
 660 547 660 547 659 547 c 0,35,36
 658 550 658 550 641 562 c 0,37,38
 613 581 613 581 577 593 c 2,39,-1
 570 596 l 1,40,-1
 507 596 l 1,41,-1
 445 596 l 1,42,-1
 437 594 l 2,17,18
487 544 m 0,43,44
 467 540 467 540 454.5 525.5 c 128,-1,45
 442 511 442 511 441 491 c 2,46,-1
 440 485 l 1,47,-1
 506 485 l 1,48,-1
 572 485 l 1,49,-1
 572 491 l 2,50,51
 571 510 571 510 559.5 524 c 128,-1,52
 548 538 548 538 530 543 c 0,53,54
 525 544 525 544 509 544.5 c 128,-1,55
 493 545 493 545 487 544 c 0,43,44
261 533 m 0,56,57
 247 530 247 530 236.5 519.5 c 128,-1,58
 226 509 226 509 223 495 c 0,59,60
 223 490 223 490 223 440 c 2,61,-1
 223 390 l 1,62,-1
 506 390 l 1,63,-1
 790 390 l 1,64,-1
 790 440 l 2,65,66
 790 490 790 490 789 495 c 0,67,68
 784 522 784 522 757 532 c 2,69,-1
 751 534 l 1,70,-1
 668 534 l 1,71,-1
 585 534 l 1,72,-1
 585 498 l 1,73,-1
 585 462 l 1,74,-1
 506 462 l 1,75,-1
 428 462 l 1,76,-1
 428 498 l 1,77,-1
 428 534 l 1,78,-1
 346 534 l 2,79,80
 265 534 265 534 261 533 c 0,56,57
339 360 m 1,81,-1
 339 345 l 1,82,-1
 414 345 l 1,83,-1
 490 345 l 1,84,-1
 490 360 l 1,85,-1
 490 375 l 1,86,-1
 414 375 l 1,87,-1
 339 375 l 1,88,-1
 339 360 l 1,81,-1
523 360 m 1,89,-1
 523 345 l 1,90,-1
 598 345 l 1,91,-1
 674 345 l 1,92,-1
 674 360 l 1,93,-1
 674 375 l 1,94,-1
 598 375 l 1,95,-1
 523 375 l 1,96,-1
 523 360 l 1,89,-1
263 373 m 0,97,98
 255 370 255 370 254 361 c 128,-1,99
 253 352 253 352 261 347 c 2,100,-1
 264 345 l 1,101,-1
 285 345 l 1,102,-1
 305 345 l 1,103,-1
 305 359 l 1,104,-1
 305 374 l 1,105,-1
 285 374 l 2,106,107
 265 374 265 374 263 373 c 0,97,98
707 359 m 1,108,-1
 707 345 l 1,109,-1
 727 345 l 1,110,-1
 748 345 l 1,111,-1
 751 347 l 2,112,113
 758 351 758 351 758 359.5 c 128,-1,114
 758 368 758 368 751 372 c 2,115,-1
 748 374 l 1,116,-1
 727 374 l 1,117,-1
 707 374 l 1,118,-1
 707 359 l 1,108,-1
265 327 m 0,119,120
 256 325 256 325 254.5 315.5 c 128,-1,121
 253 306 253 306 261 300 c 2,122,-1
 263 299 l 1,123,-1
 284 298 l 1,124,-1
 305 298 l 1,125,-1
 305 313 l 1,126,-1
 305 328 l 1,127,-1
 286 328 l 2,128,129
 267 328 267 328 265 327 c 0,119,120
339 313 m 1,130,-1
 339 298 l 1,131,-1
 414 298 l 1,132,-1
 490 298 l 1,133,-1
 490 313 l 1,134,-1
 490 328 l 1,135,-1
 414 328 l 1,136,-1
 339 328 l 1,137,-1
 339 313 l 1,130,-1
523 313 m 1,138,-1
 523 298 l 1,139,-1
 598 298 l 1,140,-1
 674 298 l 1,141,-1
 674 313 l 1,142,-1
 674 328 l 1,143,-1
 598 328 l 1,144,-1
 523 328 l 1,145,-1
 523 313 l 1,138,-1
707 313 m 1,146,-1
 707 298 l 1,147,-1
 728 298 l 1,148,-1
 749 299 l 1,149,-1
 752 300 l 2,150,151
 759 306 759 306 758.5 314 c 128,-1,152
 758 322 758 322 750 326 c 0,153,154
 748 328 748 328 727 328 c 2,155,-1
 707 328 l 1,156,-1
 707 313 l 1,146,-1
339 266 m 1,157,-1
 339 251 l 1,158,-1
 414 251 l 1,159,-1
 490 251 l 1,160,-1
 490 266 l 1,161,-1
 490 282 l 1,162,-1
 414 282 l 1,163,-1
 339 282 l 1,164,-1
 339 266 l 1,157,-1
523 266 m 1,165,-1
 523 251 l 1,166,-1
 598 251 l 1,167,-1
 674 251 l 1,168,-1
 674 266 l 1,169,-1
 674 282 l 1,170,-1
 598 282 l 1,171,-1
 523 282 l 1,172,-1
 523 266 l 1,165,-1
263 280 m 0,173,174
 258 278 258 278 255.5 271.5 c 128,-1,175
 253 265 253 265 255.5 259.5 c 128,-1,176
 258 254 258 254 263 252.5 c 128,-1,177
 268 251 268 251 286 251 c 2,178,-1
 305 251 l 1,179,-1
 305 266 l 1,180,-1
 305 281 l 1,181,-1
 285 281 l 2,182,183
 265 281 265 281 263 280 c 0,173,174
707 266 m 1,184,-1
 707 251 l 1,185,-1
 726 251 l 2,186,187
 745 251 745 251 748 252 c 0,188,189
 756 255 756 255 758 263 c 128,-1,190
 760 271 760 271 754 277 c 0,191,192
 750 281 750 281 727 281 c 2,193,-1
 707 281 l 1,194,-1
 707 266 l 1,184,-1
264 234 m 0,195,196
 255 231 255 231 254 221 c 128,-1,197
 253 211 253 211 262 207 c 0,198,199
 265 205 265 205 286 205 c 2,200,-1
 306 205 l 1,201,-1
 306 220 l 1,202,-1
 306 235 l 1,203,-1
 286 235 l 2,204,205
 267 235 267 235 264 234 c 0,195,196
339 220 m 1,206,-1
 339 204 l 1,207,-1
 414 204 l 1,208,-1
 490 204 l 1,209,-1
 490 220 l 1,210,-1
 490 235 l 1,211,-1
 414 235 l 1,212,-1
 339 235 l 1,213,-1
 339 220 l 1,206,-1
523 220 m 1,214,-1
 523 204 l 1,215,-1
 598 204 l 1,216,-1
 674 204 l 1,217,-1
 674 220 l 1,218,-1
 674 235 l 1,219,-1
 598 235 l 1,220,-1
 523 235 l 1,221,-1
 523 220 l 1,214,-1
707 220 m 1,222,-1
 707 205 l 1,223,-1
 727 205 l 2,224,225
 747 205 747 205 750 207 c 0,226,227
 759 211 759 211 758.5 220.5 c 128,-1,228
 758 230 758 230 749 234 c 0,229,230
 746 235 746 235 727 235 c 2,231,-1
 707 235 l 1,232,-1
 707 220 l 1,222,-1
223 137 m 2,233,234
 223 87 223 87 223 83 c 0,235,236
 226 68 226 68 236.5 57 c 128,-1,237
 247 46 247 46 261 44 c 0,238,239
 267 43 267 43 506.5 43 c 128,-1,240
 746 43 746 43 751 44 c 0,241,242
 766 46 766 46 776.5 57 c 128,-1,243
 787 68 787 68 789 83 c 0,244,245
 790 87 790 87 790 137 c 2,246,-1
 790 187 l 1,247,-1
 506 187 l 1,248,-1
 223 187 l 1,249,-1
 223 137 l 2,233,234
EndSplineSet
Validated: 37
EndChar

StartChar: L
Encoding: 76 76 28
Width: 1024
Flags: W
HStem: -137 69<422 562> 173 241<249 338 659 744> 578 20G<414 581.206> 651 67<417 566>
VStem: 63 68<222 365> 832 64<202 385>
LayerCount: 2
Fore
SplineSet
581 718 m 1,0,-1
 896 402 l 1,1,-1
 896 185 l 1,2,-1
 575 -137 l 1,3,-1
 409 -137 l 1,4,-1
 63 209 l 1,5,-1
 63 378 l 1,6,-1
 403 718 l 1,7,-1
 581 718 l 1,0,-1
832 202 m 1,8,-1
 832 385 l 1,9,-1
 566 651 l 1,10,-1
 417 651 l 1,11,-1
 131 365 l 1,12,-1
 131 222 l 1,13,-1
 422 -68 l 1,14,-1
 562 -68 l 1,15,-1
 832 202 l 1,8,-1
748 412 m 1,16,-1
 788 372 l 1,17,-1
 788 215 l 1,18,-1
 744 172 l 1,19,-1
 656 172 l 1,20,-1
 656 84 l 1,21,-1
 557 -15 l 1,22,-1
 438 -15 l 1,23,-1
 338 85 l 1,24,-1
 338 173 l 1,25,-1
 249 173 l 1,26,-1
 190 233 l 1,27,-1
 190 354 l 1,28,-1
 249 414 l 1,29,-1
 338 414 l 1,30,-1
 338 502 l 1,31,-1
 434 598 l 1,32,-1
 561 598 l 1,33,-1
 659 501 l 1,34,-1
 659 412 l 1,35,-1
 748 412 l 1,16,-1
EndSplineSet
Validated: 1
EndChar

StartChar: M
Encoding: 77 77 29
Width: 1024
Flags: W
LayerCount: 2
Fore
SplineSet
924.5 406 m 128,-1,1
 940 351 940 351 940 293 c 128,-1,2
 940 235 940 235 924.5 179.5 c 128,-1,3
 909 124 909 124 881 76.5 c 128,-1,4
 853 29 853 29 814 -10 c 128,-1,5
 775 -49 775 -49 727 -77 c 128,-1,6
 679 -105 679 -105 624.5 -120.5 c 128,-1,7
 570 -136 570 -136 511.5 -136 c 128,-1,8
 453 -136 453 -136 398 -120.5 c 128,-1,9
 343 -105 343 -105 295.5 -77 c 128,-1,10
 248 -49 248 -49 208.5 -10 c 128,-1,11
 169 29 169 29 141 76.5 c 128,-1,12
 113 124 113 124 98 178 c 0,13,14
 83 235 83 235 83 293 c 128,-1,15
 83 351 83 351 98 406 c 128,-1,16
 113 461 113 461 141.5 509 c 128,-1,17
 170 557 170 557 209 596 c 128,-1,18
 248 635 248 635 295.5 662.5 c 128,-1,19
 343 690 343 690 397.5 706 c 128,-1,20
 452 722 452 722 512 722 c 0,21,22
 570 722 570 722 624.5 706 c 128,-1,23
 679 690 679 690 727 662.5 c 128,-1,24
 775 635 775 635 814 596 c 128,-1,25
 853 557 853 557 881 509 c 128,-1,0
 909 461 909 461 924.5 406 c 128,-1,1
225 571 m 1,26,27
 202 547 202 547 183 519 c 1,28,-1
 512 190 l 1,29,-1
 559 237 l 1,30,-1
 559 238 l 1,31,-1
 840 519 l 1,32,33
 821 547 821 547 797 571 c 1,34,-1
 511 285 l 1,35,-1
 225 571 l 1,26,27
697 261 m 1,36,-1
 880 444 l 1,37,38
 869 470 869 470 856 494 c 0,39,40
 852 500 852 500 848 506 c 1,41,-1
 511 170 l 1,42,-1
 175 507 l 1,43,44
 170 500 170 500 167 494 c 0,45,46
 153 470 153 470 142 445 c 1,47,-1
 325 262 l 1,48,-1
 302 238 l 1,49,-1
 511 29 l 1,50,-1
 540 58 l 1,51,-1
 720 238 l 1,52,-1
 697 261 l 1,36,-1
511 88 m 1,53,-1
 461 137 l 1,54,-1
 560 137 l 1,55,-1
 511 88 l 1,53,-1
EndSplineSet
Validated: 1
EndChar

StartChar: N
Encoding: 78 78 30
Width: 1024
Flags: W
LayerCount: 2
Fore
SplineSet
512 722 m 0,0,1
 571 722 571 722 625.5 707 c 128,-1,2
 680 692 680 692 727.5 664 c 128,-1,3
 775 636 775 636 813.5 597 c 128,-1,4
 852 558 852 558 880 510.5 c 128,-1,5
 908 463 908 463 923 408.5 c 128,-1,6
 938 354 938 354 938 296 c 0,7,8
 938 210 938 210 906 132 c 128,-1,9
 874 54 874 54 813 -6 c 0,10,11
 784 -35 784 -35 750 -58.5 c 128,-1,12
 716 -82 716 -82 677 -98 c 128,-1,13
 638 -114 638 -114 595 -123 c 128,-1,14
 552 -132 552 -132 506 -131 c 0,15,16
 448 -131 448 -131 394 -115 c 128,-1,17
 340 -99 340 -99 293 -71 c 128,-1,18
 246 -43 246 -43 207 -3.5 c 128,-1,19
 168 36 168 36 141 84 c 128,-1,20
 114 132 114 132 99 186 c 256,21,22
 84 240 84 240 84 300 c 0,23,24
 84 358 84 358 100 412 c 128,-1,25
 116 466 116 466 144 513 c 128,-1,26
 172 560 172 560 211 599 c 128,-1,27
 250 638 250 638 297 665 c 128,-1,28
 344 692 344 692 398 707 c 128,-1,29
 452 722 452 722 512 722 c 0,0,1
500 662 m 2,30,31
 500 657 500 657 502 655 c 0,32,33
 504 652 504 652 506 652 c 0,34,35
 508 650 508 650 510 648.5 c 128,-1,36
 512 647 512 647 514 646 c 0,37,38
 522 644 522 644 532 644 c 2,39,40
 532 644 532 644 543 644 c 2,41,-1
 554 644 l 2,42,43
 557 644 557 644 560 644 c 0,44,45
 564 646 564 646 566 646 c 0,46,47
 569 646 569 646 572 646 c 0,48,49
 576 648 576 648 578 648 c 2,50,51
 578 648 578 648 584 648 c 2,52,-1
 591 648 l 2,53,54
 595 648 595 648 598 648 c 0,55,56
 602 650 602 650 605 650 c 0,57,58
 611 650 611 650 616 650 c 0,59,60
 620 648 620 648 624 648 c 128,-1,61
 628 648 628 648 632 647.5 c 128,-1,62
 636 647 636 647 640 646 c 0,63,64
 644 646 644 646 647.5 645 c 128,-1,65
 651 644 651 644 655 644 c 2,66,-1
 656 643 l 1,67,68
 656 643 656 643 658 648 c 0,69,70
 660 650 660 650 660 652 c 1,71,72
 659 652 659 652 658.5 652.5 c 128,-1,73
 658 653 658 653 656 653 c 0,74,75
 642 659 642 659 627 663.5 c 128,-1,76
 612 668 612 668 597 672 c 0,77,78
 590 674 590 674 583 675 c 128,-1,79
 576 676 576 676 568 676 c 0,80,81
 559 678 559 678 549 678 c 2,82,83
 549 678 549 678 532 678 c 2,84,-1
 514 678 l 2,85,86
 511 677 511 677 508.5 676.5 c 128,-1,87
 506 676 506 676 504 675 c 256,88,89
 502 674 502 674 501 674 c 1,90,91
 501 673 501 673 500.5 672 c 128,-1,92
 500 671 500 671 500 670 c 2,93,94
 500 670 500 670 500 666 c 2,95,-1
 500 662 l 2,30,31
458 601 m 2,96,97
 458 601 458 601 458 594 c 0,98,99
 458 590 458 590 457 586 c 0,100,101
 457 584 457 584 458 582 c 0,102,103
 460 580 460 580 463 578 c 128,-1,104
 466 576 466 576 468 573 c 0,105,106
 476 567 476 567 484.5 563 c 128,-1,107
 493 559 493 559 502 556 c 0,108,109
 512 553 512 553 522 551.5 c 128,-1,110
 532 550 532 550 542 550 c 2,111,-1
 554 550 l 1,112,-1
 565 550 l 1,113,-1
 586 553 l 2,114,115
 600 558 600 558 610 564 c 0,116,117
 618 570 618 570 626 572 c 0,118,119
 642 578 642 578 656 574 c 0,120,121
 684 569 684 569 702 547 c 0,122,123
 703 545 703 545 704 543.5 c 128,-1,124
 705 542 705 542 706 542 c 1,125,-1
 706 540 l 1,126,-1
 707 542 l 1,127,-1
 708 542 l 1,128,129
 708 542 708 542 708 544 c 0,130,131
 712 560 712 560 708 578 c 0,132,133
 705 593 705 593 697 606 c 0,134,135
 686 622 686 622 670 630 c 0,136,137
 654 640 654 640 636 640 c 0,138,139
 620 642 620 642 604 640 c 0,140,141
 600 640 600 640 595 639 c 128,-1,142
 590 638 590 638 586 638 c 0,143,144
 580 637 580 637 574 635.5 c 128,-1,145
 568 634 568 634 563 634 c 128,-1,146
 558 634 558 634 553 633 c 128,-1,147
 548 632 548 632 544 632 c 2,148,-1
 530 632 l 2,149,150
 526 632 526 632 521 632.5 c 128,-1,151
 516 633 516 633 512 634 c 0,152,153
 504 636 504 636 498 640 c 0,154,155
 494 642 494 642 491 648 c 0,156,157
 490 650 490 650 490 654 c 2,158,-1
 490 663 l 1,159,-1
 490 666 l 1,160,-1
 488 666 l 2,161,162
 482 664 482 664 478 662 c 0,163,164
 474 662 474 662 469 658 c 128,-1,165
 464 654 464 654 462 650 c 0,166,167
 460 648 460 648 461 647 c 0,168,169
 461 643 461 643 460 639 c 0,170,171
 460 636 460 636 460 632 c 2,172,-1
 460 621 l 2,173,174
 460 616 460 616 459 610 c 0,175,176
 458 608 458 608 458 606 c 2,177,178
 458 606 458 606 458 601 c 2,96,97
429 572 m 1,179,-1
 428 572 l 2,180,181
 427 571 427 571 426 571 c 0,182,183
 412 566 412 566 396 558 c 0,184,185
 378 549 378 549 363 537.5 c 128,-1,186
 348 526 348 526 334 513 c 0,187,188
 327 506 327 506 321.5 498.5 c 128,-1,189
 316 491 316 491 310 483 c 0,190,191
 297 465 297 465 286 446 c 128,-1,192
 275 427 275 427 267 406 c 0,193,194
 263 396 263 396 259.5 386 c 128,-1,195
 256 376 256 376 254 364 c 0,196,197
 254 363 254 363 254 362 c 2,198,-1
 253 360 l 2,199,200
 254 358 254 358 258 356 c 128,-1,201
 262 354 262 354 267 352 c 128,-1,202
 272 350 272 350 277 350 c 2,203,204
 277 350 277 350 291 346 c 0,205,206
 298 344 298 344 306 342 c 2,207,-1
 307 342 l 1,208,209
 307 341 307 341 306.5 340 c 128,-1,210
 306 339 306 339 306 338 c 0,211,212
 304 329 304 329 302 320 c 0,213,214
 298 310 298 310 296 301 c 2,215,-1
 296 298 l 1,216,217
 298 298 298 298 301 297 c 128,-1,218
 304 296 304 296 307 296 c 0,219,220
 319 292 319 292 332 289 c 2,221,-1
 358 283 l 2,222,223
 378 279 378 279 397 274.5 c 128,-1,224
 416 270 416 270 436 266 c 1,225,-1
 440 266 l 2,226,227
 442 268 442 268 448 270 c 0,228,229
 448 271 448 271 450 271 c 1,230,231
 450 275 450 275 451 278 c 128,-1,232
 452 281 452 281 452 284 c 0,233,234
 453 290 453 290 454.5 296 c 128,-1,235
 456 302 456 302 456 307 c 2,236,-1
 456 308 l 1,237,-1
 457 308 l 1,238,239
 457 308 457 308 460 308 c 0,240,241
 465 307 465 307 469.5 306.5 c 128,-1,242
 474 306 474 306 480 304 c 0,243,244
 486 303 486 303 492 302.5 c 128,-1,245
 498 302 498 302 506 300 c 2,246,-1
 508 300 l 1,247,-1
 508 301 l 2,248,249
 510 311 510 311 512 319 c 0,250,251
 516 335 516 335 519 351.5 c 128,-1,252
 522 368 522 368 525 384 c 128,-1,253
 528 400 528 400 531 415 c 128,-1,254
 534 430 534 430 538 446 c 0,255,256
 542 466 542 466 547 485 c 2,257,258
 547 485 547 485 557 523 c 1,259,-1
 557 525 l 1,260,261
 557 525 557 525 546 525 c 0,262,263
 540 526 540 526 534 526 c 128,-1,264
 528 526 528 526 523 526.5 c 128,-1,265
 518 527 518 527 512 528 c 1,266,267
 512 526 512 526 513 524 c 2,268,-1
 513 516 l 2,269,270
 514 508 514 508 506 502 c 0,271,272
 500 496 500 496 492 494 c 2,273,-1
 491 494 l 1,274,275
 491 495 491 495 490.5 496 c 128,-1,276
 490 497 490 497 490 498 c 0,277,278
 488 504 488 504 487 510.5 c 128,-1,279
 486 517 486 517 484 524 c 0,280,281
 484 527 484 527 481 529 c 2,282,283
 481 529 481 529 479 531 c 0,284,285
 478 532 478 532 476 532 c 0,286,287
 472 533 472 533 468.5 534.5 c 128,-1,288
 465 536 465 536 461 536 c 2,289,-1
 452 536 l 2,290,291
 446 536 446 536 441 534 c 0,292,293
 435 534 435 534 432 533 c 0,294,295
 423 529 423 529 418 524 c 0,296,297
 416 520 416 520 416 518 c 2,298,-1
 416 488 l 1,299,-1
 416 486 l 1,300,301
 415 486 415 486 413.5 486.5 c 128,-1,302
 412 487 412 487 410 487 c 0,303,304
 406 488 406 488 402.5 490 c 128,-1,305
 399 492 399 492 396 494 c 0,306,307
 390 498 390 498 388 504 c 0,308,309
 385 512 385 512 385.5 518.5 c 128,-1,310
 386 525 386 525 392 532 c 0,311,312
 394 536 394 536 396 536 c 0,313,314
 404 543 404 543 414 548 c 0,315,316
 419 550 419 550 424.5 551 c 128,-1,317
 430 552 430 552 435 554 c 0,318,319
 437 554 437 554 438 554 c 0,320,321
 440 556 440 556 442 556 c 1,322,323
 442 556 442 556 438 560 c 2,324,-1
 435 563 l 1,325,326
 435 563 435 563 433 567 c 0,327,328
 432 570 432 570 430 572 c 2,329,-1
 429 572 l 1,179,-1
205 383 m 0,330,331
 205 382 205 382 204 381 c 2,332,-1
 204 380 l 1,333,334
 206 380 206 380 206.5 379 c 128,-1,335
 207 378 207 378 208 377 c 0,336,337
 211 375 211 375 213.5 373.5 c 128,-1,338
 216 372 216 372 220 370 c 2,339,-1
 222 368 l 1,340,341
 222 368 222 368 220 360 c 2,342,-1
 218 352 l 2,343,344
 214 343 214 343 214 335 c 1,345,-1
 215 334 l 2,346,347
 219 331 219 331 223.5 328.5 c 128,-1,348
 228 326 228 326 232 324 c 2,349,-1
 234 323 l 2,350,351
 240 321 240 321 246 319.5 c 128,-1,352
 252 318 252 318 260 318 c 0,353,354
 262 316 262 316 262 317 c 2,355,-1
 262 318 l 2,356,357
 264 322 264 322 264 326.5 c 128,-1,358
 264 331 264 331 266 335 c 2,359,-1
 266 337 l 1,360,-1
 265 338 l 1,361,-1
 264 338 l 2,362,363
 258 340 258 340 251 342.5 c 128,-1,364
 244 345 244 345 237 347 c 0,365,366
 237 348 237 348 236 348 c 0,367,368
 234 348 234 348 234 349 c 2,369,-1
 234 352 l 2,370,371
 234 355 234 355 235 357.5 c 128,-1,372
 236 360 236 360 236 364 c 0,373,374
 238 376 238 376 241.5 386 c 128,-1,375
 245 396 245 396 249 406 c 0,376,377
 255 424 255 424 264 440 c 2,378,379
 264 440 264 440 284 472 c 0,380,381
 293 486 293 486 303.5 498 c 128,-1,382
 314 510 314 510 326 522 c 0,383,384
 338 533 338 533 351 542.5 c 128,-1,385
 364 552 364 552 378 560 c 0,386,387
 390 566 390 566 401 570 c 128,-1,388
 412 574 412 574 426 577 c 0,389,390
 427 577 427 577 427 577.5 c 128,-1,391
 427 578 427 578 428 578 c 1,392,393
 427 580 427 580 427 582 c 0,394,395
 426 584 426 584 426 586 c 1,396,397
 424 586 424 586 425 586 c 1,398,399
 419 584 419 584 412 582 c 2,400,-1
 398 578 l 2,401,402
 362 566 362 566 332 545 c 0,403,404
 322 538 322 538 312.5 530 c 128,-1,405
 303 522 303 522 293 514 c 0,406,407
 286 508 286 508 279 501 c 128,-1,408
 272 494 272 494 265 486 c 0,409,410
 251 470 251 470 239.5 452.5 c 128,-1,411
 228 435 228 435 219 416 c 0,412,413
 215 408 215 408 211 399.5 c 128,-1,414
 207 391 207 391 205 383 c 0,330,331
389 188 m 0,415,416
 390 188 390 188 390 189 c 2,417,-1
 389 190 l 1,418,419
 373 194 373 194 357.5 199 c 128,-1,420
 342 204 342 204 326 208 c 0,421,422
 318 210 318 210 308.5 214 c 128,-1,423
 299 218 299 218 290 221 c 128,-1,424
 281 224 281 224 274 226 c 0,425,426
 268 228 268 228 266 230 c 0,427,428
 266 234 266 234 266 239 c 0,429,430
 268 244 268 244 268 248 c 2,431,-1
 268 257 l 1,432,-1
 268 266 l 1,433,434
 267 266 267 266 266 267 c 2,435,-1
 266 268 l 1,436,437
 252 272 252 272 240 276 c 0,438,439
 234 278 234 278 232 278 c 2,440,-1
 226 278 l 1,441,442
 226 278 226 278 224 278 c 1,443,-1
 224 279 l 1,444,-1
 224 284 l 2,445,446
 224 288 224 288 225 290 c 0,447,448
 225 292 225 292 224 294 c 0,449,450
 223 295 223 295 222 297 c 2,451,-1
 221 300 l 1,452,-1
 219 304 l 2,453,454
 218 306 218 306 218 308 c 1,455,-1
 215 308 l 1,456,-1
 214 308 l 2,457,458
 212 309 212 309 210 309.5 c 128,-1,459
 208 310 208 310 206 310 c 0,460,461
 202 310 202 310 198 310 c 0,462,463
 194 312 194 312 190 312 c 2,464,-1
 188 312 l 1,465,-1
 188 310 l 2,466,467
 186 296 186 296 185 284 c 0,468,469
 185 276 185 276 184.5 268 c 128,-1,470
 184 260 184 260 186 251 c 0,471,472
 187 243 187 243 187.5 235.5 c 128,-1,473
 188 228 188 228 189 220 c 0,474,475
 191 207 191 207 194.5 193.5 c 128,-1,476
 198 180 198 180 203 166 c 0,477,478
 220 120 220 120 248 80 c 0,479,480
 260 63 260 63 273 48 c 128,-1,481
 286 33 286 33 302 20 c 0,482,483
 338 -12 338 -12 384 -30 c 1,484,-1
 386 -30 l 1,485,-1
 386 -29 l 2,486,487
 384 -20 384 -20 383 -12 c 0,488,489
 382 -6 382 -6 381.5 0 c 128,-1,490
 381 6 381 6 380 12 c 0,491,492
 380 20 380 20 379.5 27 c 128,-1,493
 379 34 379 34 379 42 c 2,494,-1
 379 68 l 2,495,496
 379 74 379 74 380 80 c 0,497,498
 380 88 380 88 380 94 c 2,499,-1
 380 106 l 2,500,501
 380 110 380 110 381 116 c 0,502,503
 381 120 381 120 381.5 124 c 128,-1,504
 382 128 382 128 382 132 c 0,505,506
 382 137 382 137 383 142 c 0,507,508
 384 148 384 148 384 152 c 128,-1,509
 384 156 384 156 385 160 c 128,-1,510
 386 164 386 164 386 168 c 0,511,512
 387 173 387 173 387.5 177.5 c 128,-1,513
 388 182 388 182 389 188 c 0,415,416
582 -46 m 0,514,515
 588 -41 588 -41 594 -35.5 c 128,-1,516
 600 -30 600 -30 605 -25 c 0,517,518
 615 -13 615 -13 625.5 -0.5 c 128,-1,519
 636 12 636 12 644 25 c 0,520,521
 670 67 670 67 686 114 c 2,522,-1
 693 140 l 2,523,524
 695 147 695 147 696.5 153.5 c 128,-1,525
 698 160 698 160 699 168 c 0,526,527
 699 170 699 170 699.5 171 c 128,-1,528
 700 172 700 172 700 174 c 1,529,530
 699 174 699 174 699 175 c 0,531,532
 697 177 697 177 694.5 178.5 c 128,-1,533
 692 180 692 180 690 181 c 2,534,-1
 688 182 l 2,535,536
 683 182 683 182 678 182 c 0,537,538
 674 184 674 184 668 184 c 2,539,-1
 665 184 l 1,540,-1
 662 184 l 2,541,542
 659 184 659 184 656 184 c 0,543,544
 652 186 652 186 649 186 c 0,545,546
 644 188 644 188 638 187 c 0,547,548
 634 188 634 188 630 188 c 128,-1,549
 626 188 626 188 622 189 c 128,-1,550
 618 190 618 190 613 190.5 c 128,-1,551
 608 191 608 191 604 192 c 0,552,553
 598 193 598 193 593 193.5 c 128,-1,554
 588 194 588 194 583 195 c 0,555,556
 577 196 577 196 572 197 c 0,557,558
 568 198 568 198 562 198 c 2,559,-1
 560 198 l 1,560,561
 558 188 558 188 556 179 c 128,-1,562
 554 170 554 170 552 160 c 1,563,-1
 550 160 l 1,564,-1
 545 160 l 2,565,566
 540 160 540 160 535.5 161 c 128,-1,567
 531 162 531 162 526 162 c 0,568,569
 520 163 520 163 514 164 c 0,570,571
 510 166 510 166 504 166 c 0,572,573
 497 168 497 168 490.5 169 c 128,-1,574
 484 170 484 170 477 172 c 2,575,-1
 476 172 l 1,576,577
 477 182 477 182 477.5 192 c 128,-1,578
 478 202 478 202 480 212 c 0,579,580
 480 214 480 214 478 214 c 0,581,582
 474 214 474 214 470.5 215 c 128,-1,583
 467 216 467 216 463 216 c 256,584,585
 459 216 459 216 455 217 c 0,586,587
 450 218 450 218 446 218 c 0,588,589
 442 219 442 219 437 220 c 128,-1,590
 432 221 432 221 428 222 c 2,591,-1
 426 222 l 1,592,-1
 422 220 l 1,593,-1
 418 218 l 1,594,-1
 418 215 l 1,595,-1
 418 212 l 2,596,597
 416 203 416 203 414 194.5 c 128,-1,598
 412 186 412 186 411 177 c 0,599,600
 410 170 410 170 409 162 c 0,601,602
 408 156 408 156 408 148 c 2,603,-1
 406 132 l 1,604,-1
 404 116 l 2,605,606
 404 110 404 110 404 104 c 0,607,608
 402 98 402 98 402 91 c 2,609,-1
 402 74 l 1,610,-1
 402 55 l 1,611,-1
 402 40 l 1,612,-1
 402 25 l 2,613,614
 402 18 402 18 403 11 c 128,-1,615
 404 4 404 4 405 -4 c 2,616,-1
 407 -20 l 2,617,618
 408 -28 408 -28 410 -36 c 2,619,-1
 410 -38 l 1,620,-1
 412 -39 l 2,621,622
 417 -41 417 -41 422 -42 c 0,623,624
 426 -42 426 -42 431 -44 c 0,625,626
 438 -46 438 -46 444 -47 c 128,-1,627
 450 -48 450 -48 458 -50 c 2,628,-1
 464 -50 l 2,629,630
 468 -50 468 -50 472 -51 c 0,631,632
 480 -52 480 -52 487 -52 c 0,633,634
 493 -52 493 -52 498 -52 c 0,635,636
 502 -54 502 -54 507 -54 c 0,637,638
 528 -54 528 -54 546 -52 c 0,639,640
 550 -52 550 -52 552 -51 c 0,641,642
 556 -51 556 -51 560 -50.5 c 128,-1,643
 564 -50 564 -50 568 -49 c 0,644,645
 570 -49 570 -49 573 -48.5 c 128,-1,646
 576 -48 576 -48 579 -47 c 0,647,648
 580 -48 580 -48 582 -46 c 0,514,515
824 168 m 0,649,650
 825 172 825 172 823 174 c 0,651,652
 816 187 816 187 804 192 c 0,653,654
 802 192 802 192 801 192.5 c 128,-1,655
 800 193 800 193 798 193 c 1,656,-1
 798 191 l 1,657,-1
 798 184 l 1,658,-1
 798 178 l 2,659,660
 796 162 796 162 790 146 c 0,661,662
 789 143 789 143 788.5 142.5 c 128,-1,663
 788 142 788 142 784 142 c 0,664,665
 777 140 777 140 770.5 139 c 128,-1,666
 764 138 764 138 758 138 c 128,-1,667
 752 138 752 138 747 137.5 c 128,-1,668
 742 137 742 137 736 136 c 2,669,-1
 724 136 l 2,670,671
 718 136 718 136 710 137 c 2,672,-1
 706 137 l 1,673,-1
 706 136 l 1,674,-1
 706 134 l 2,675,676
 705 126 705 126 703.5 119.5 c 128,-1,677
 702 113 702 113 700 106 c 0,678,679
 682 34 682 34 632 -20 c 0,680,681
 628 -24 628 -24 623.5 -28 c 128,-1,682
 619 -32 619 -32 615 -36 c 2,683,-1
 614 -38 l 1,684,-1
 616 -38 l 1,685,686
 630 -34 630 -34 643 -28.5 c 128,-1,687
 656 -23 656 -23 670 -16 c 0,688,689
 677 -12 677 -12 684 -8.5 c 128,-1,690
 691 -5 691 -5 698 0 c 0,691,692
 710 8 710 8 719.5 17 c 128,-1,693
 729 26 729 26 739 35 c 0,694,695
 759 57 759 57 776 80 c 0,696,697
 796 105 796 105 810 132 c 0,698,699
 813 138 813 138 815.5 144 c 128,-1,700
 818 150 818 150 821 157 c 0,701,702
 822 159 822 159 823 161.5 c 128,-1,703
 824 164 824 164 824 168 c 0,649,650
836 241 m 0,704,705
 838 252 838 252 838 264 c 0,706,707
 839 272 839 272 838 280 c 0,708,709
 838 288 838 288 837 296 c 0,710,711
 837 304 837 304 835.5 312 c 128,-1,712
 834 320 834 320 833 327 c 0,713,714
 831 340 831 340 828 352 c 128,-1,715
 825 364 825 364 821 376 c 0,716,717
 815 396 815 396 806 414 c 128,-1,718
 797 432 797 432 786 450 c 0,719,720
 766 482 766 482 740 506 c 0,721,722
 732 514 732 514 722 522 c 128,-1,723
 712 530 712 530 702 536 c 0,724,725
 696 540 696 540 690 543 c 128,-1,726
 684 546 684 546 676 548 c 0,727,728
 661 552 661 552 645 548 c 0,729,730
 641 547 641 547 638 546 c 0,731,732
 634 546 634 546 630 544 c 0,733,734
 617 538 617 538 603 534 c 0,735,736
 588 529 588 529 574 527 c 1,737,-1
 572 526 l 2,738,739
 572 524 572 524 571.5 523 c 128,-1,740
 571 522 571 522 571 520 c 0,741,742
 569 512 569 512 568 504 c 2,743,-1
 566 488 l 2,744,745
 564 478 564 478 563 469 c 128,-1,746
 562 460 562 460 560 450 c 256,747,748
 558 440 558 440 556.5 429.5 c 128,-1,749
 555 419 555 419 553 409 c 128,-1,750
 551 399 551 399 549.5 388.5 c 128,-1,751
 548 378 548 378 546 368 c 0,752,753
 545 358 545 358 543.5 348 c 128,-1,754
 542 338 542 338 540 328 c 128,-1,755
 538 318 538 318 536.5 309 c 128,-1,756
 535 300 535 300 533 290 c 0,757,758
 532 281 532 281 530 272 c 0,759,760
 528 262 528 262 526 254 c 2,761,-1
 526 252 l 1,762,-1
 526 251 l 1,763,-1
 528 250 l 2,764,765
 542 247 542 247 556 244.5 c 128,-1,766
 570 242 570 242 584 239 c 0,767,768
 586 238 586 238 588 238 c 2,769,-1
 592 260 l 2,770,771
 594 272 594 272 596 282 c 1,772,-1
 597 282 l 1,773,774
 631 276 631 276 664.5 271 c 128,-1,775
 698 266 698 266 733 262 c 1,776,777
 732 256 732 256 731 250 c 0,778,779
 730 242 730 242 730 236 c 1,780,-1
 731 236 l 1,781,-1
 732 236 l 1,782,-1
 768 224 l 1,783,-1
 770 223 l 2,784,785
 776 223 776 223 782 222.5 c 128,-1,786
 788 222 788 222 793 222 c 2,787,-1
 809 222 l 1,788,-1
 826 222 l 2,789,790
 828 222 828 222 830 222.5 c 128,-1,791
 832 223 832 223 833 223 c 2,792,-1
 834 226 l 2,793,794
 835 230 835 230 835.5 233.5 c 128,-1,795
 836 237 836 237 836 241 c 0,704,705
EndSplineSet
Validated: 37
EndChar

StartChar: O
Encoding: 79 79 31
Width: 1024
Flags: W
LayerCount: 2
Fore
SplineSet
390 325 m 0,0,1
 368 326 368 326 345 334 c 0,2,3
 332 338 332 338 320 349 c 0,4,5
 315 354 315 354 317 359 c 0,6,7
 320 367 320 367 329 364 c 0,8,9
 332 363 332 363 336 361 c 0,10,11
 371 341 371 341 422 351 c 0,12,13
 423 352 423 352 448 359 c 1,14,15
 451 365 451 365 447 375 c 0,16,17
 444 384 444 384 440 395 c 128,-1,18
 436 406 436 406 432.5 417 c 128,-1,19
 429 428 429 428 426 436 c 0,20,21
 419 454 419 454 426 465 c 0,22,23
 429 470 429 470 433 469 c 1,24,25
 430 457 430 457 430.5 453.5 c 128,-1,26
 431 450 431 450 436 438 c 0,27,28
 439 430 439 430 443 420.5 c 128,-1,29
 447 411 447 411 450.5 402.5 c 128,-1,30
 454 394 454 394 458 385 c 128,-1,31
 462 376 462 376 465.5 367 c 128,-1,32
 469 358 469 358 473 349 c 1,33,34
 473 349 473 349 473 345 c 0,35,36
 469 342 469 342 469 342 c 1,37,38
 425 324 425 324 390 325 c 0,0,1
385 509 m 0,39,40
 345 500 345 500 331 500 c 0,41,42
 310 500 310 500 296 512 c 1,43,44
 293 528 293 528 293 529 c 0,45,46
 293 531 293 531 293 551 c 1,47,48
 305 569 305 569 306 570 c 0,49,50
 307 572 307 572 311 575.5 c 128,-1,51
 315 579 315 579 316 582 c 0,52,53
 318 585 318 585 327 592 c 0,54,55
 348 608 348 608 372 619 c 0,56,57
 403 634 403 634 434 636 c 0,58,59
 450 637 450 637 467 628 c 0,60,61
 493 614 493 614 481 588 c 0,62,63
 469 560 469 560 440 539 c 0,64,65
 419 524 419 524 417 523 c 0,66,67
 403 514 403 514 385 509 c 0,39,40
523 371 m 0,68,69
 523 370 523 370 516 368 c 0,70,71
 515 370 515 370 512 375 c 128,-1,72
 509 380 509 380 508 383 c 0,73,74
 511 390 511 390 523 400 c 0,75,76
 548 422 548 422 565 449 c 0,77,78
 576 467 576 467 577 487 c 0,79,80
 578 496 578 496 578 498 c 0,81,82
 580 504 580 504 586 504 c 0,83,84
 591 505 591 505 594 498 c 0,85,86
 599 478 599 478 591 456 c 0,87,88
 569 401 569 401 523 371 c 0,68,69
925.5 407 m 128,-1,90
 941 352 941 352 941 294 c 128,-1,91
 941 236 941 236 925.5 180.5 c 128,-1,92
 910 125 910 125 881.5 78 c 128,-1,93
 853 31 853 31 814.5 -8.5 c 128,-1,94
 776 -48 776 -48 727.5 -76 c 128,-1,95
 679 -104 679 -104 625 -119 c 128,-1,96
 571 -134 571 -134 512.5 -134 c 128,-1,97
 454 -134 454 -134 399 -119 c 0,98,99
 343 -104 343 -104 296 -76 c 256,100,101
 249 -48 249 -48 209.5 -8.5 c 128,-1,102
 170 31 170 31 142 78 c 128,-1,103
 114 125 114 125 99 179 c 0,104,105
 84 236 84 236 84 294 c 128,-1,106
 84 352 84 352 99 407 c 128,-1,107
 114 462 114 462 142 509.5 c 128,-1,108
 170 557 170 557 209.5 596.5 c 128,-1,109
 249 636 249 636 296 663.5 c 128,-1,110
 343 691 343 691 398 706.5 c 128,-1,111
 453 722 453 722 512 722 c 256,112,113
 571 722 571 722 625 706.5 c 128,-1,114
 679 691 679 691 727.5 663.5 c 128,-1,115
 776 636 776 636 814.5 596.5 c 128,-1,116
 853 557 853 557 881.5 509.5 c 128,-1,89
 910 462 910 462 925.5 407 c 128,-1,90
322 319 m 0,117,118
 322 318 322 318 322 317.5 c 128,-1,119
 322 317 322 317 323 317 c 0,120,121
 342 289 342 289 362 282 c 0,122,123
 405 265 405 265 451 274 c 0,124,125
 504 284 504 284 552 317 c 0,126,127
 569 330 569 330 584 344 c 0,128,129
 598 358 598 358 611 382 c 0,130,131
 629 416 629 416 625 446 c 0,132,133
 624 451 624 451 621 461 c 128,-1,134
 618 471 618 471 617 475 c 0,135,136
 612 497 612 497 588 521 c 0,137,138
 577 531 577 531 575 534 c 0,139,140
 571 539 571 539 564.5 549 c 128,-1,141
 558 559 558 559 554 564 c 0,142,143
 541 582 541 582 536 585 c 0,144,145
 522 594 522 594 509 616 c 0,146,147
 493 642 493 642 467 648 c 0,148,149
 445 653 445 653 429 650 c 0,150,151
 381 643 381 643 344 622 c 0,152,153
 339 620 339 620 335 616.5 c 128,-1,154
 331 613 331 613 326.5 609.5 c 128,-1,155
 322 606 322 606 318.5 603 c 128,-1,156
 315 600 315 600 310.5 596 c 128,-1,157
 306 592 306 592 303 589 c 0,158,159
 297 584 297 584 294 575 c 0,160,161
 293 574 293 574 290 572 c 0,162,163
 285 569 285 569 284 563 c 0,164,165
 284 561 284 561 282 547 c 1,166,167
 273 543 273 543 273 538 c 0,168,169
 274 511 274 511 274 507 c 0,170,171
 275 496 275 496 282 490 c 1,172,173
 282 494 282 494 281 499 c 1,174,-1
 282 499 l 1,175,176
 282 493 282 493 282 490 c 256,177,178
 282 487 282 487 283.5 481.5 c 128,-1,179
 285 476 285 476 286 471 c 128,-1,180
 287 466 287 466 286 461 c 0,181,182
 283 434 283 434 296 406 c 0,183,184
 303 390 303 390 303 377 c 0,185,186
 303 343 303 343 322 319 c 0,117,118
338 252 m 0,187,188
 356 218 356 218 392 208 c 0,189,190
 421 201 421 201 451 202 c 0,191,192
 474 203 474 203 508 214 c 0,193,194
 573 235 573 235 611 274 c 0,195,196
 617 279 617 279 624 285 c 0,197,198
 655 311 655 311 667 356 c 0,199,200
 677 390 677 390 659 424 c 0,201,202
 653 435 653 435 646 439 c 1,203,204
 646 411 646 411 646 409 c 0,205,206
 642 357 642 357 593 311 c 0,207,208
 567 287 567 287 546 276 c 0,209,210
 510 257 510 257 499 253 c 0,211,212
 468 243 468 243 434 242 c 0,213,214
 392 240 392 240 355 263 c 0,215,216
 340 272 340 272 334 284 c 0,217,218
 331 289 331 289 327 289 c 0,219,220
 326 275 326 275 338 252 c 0,187,188
387 176 m 0,221,222
 400 166 400 166 403 164 c 0,223,224
 449 142 449 142 495 151 c 0,225,226
 527 157 527 157 562 170 c 0,227,228
 605 187 605 187 647 228 c 0,229,230
 676 256 676 256 688 297 c 0,231,232
 694 317 694 317 688 337 c 1,233,234
 683 331 683 331 676 317 c 0,235,236
 659 280 659 280 632 254 c 0,237,238
 620 242 620 242 608 234 c 0,239,240
 573 209 573 209 555 200 c 0,241,242
 505 177 505 177 459 175 c 0,243,244
 419 174 419 174 401 180 c 0,245,246
 391 184 391 184 386 181 c 0,247,248
 387 177 387 177 387 176 c 0,221,222
436 122 m 0,249,250
 442 116 442 116 442 116 c 2,251,252
 459 104 459 104 482 101 c 0,253,254
 519 97 519 97 557 107 c 0,255,256
 606 120 606 120 646 150 c 0,257,258
 692 185 692 185 707 236 c 0,259,260
 712 255 712 255 706 274 c 1,261,262
 700 267 700 267 700 266 c 0,263,264
 697 257 697 257 678 228 c 0,265,266
 666 209 666 209 645 192 c 0,267,268
 625 175 625 175 588 154 c 0,269,270
 523 118 523 118 453 125 c 0,271,272
 444 126 444 126 441 126 c 0,273,274
 437 126 437 126 436 122 c 0,249,250
453 88 m 1,275,276
 457 80 457 80 468 74 c 0,277,278
 498 59 498 59 534 60 c 0,279,280
 562 60 562 60 592 70 c 0,281,282
 647 89 647 89 679 122 c 0,283,284
 715 160 715 160 723 203 c 0,285,286
 724 210 724 210 719 211 c 1,287,288
 715 206 715 206 715 206 c 2,289,290
 692 173 692 173 692 172 c 0,291,292
 672 146 672 146 637 123 c 0,293,294
 608 105 608 105 566 92 c 0,295,296
 517 77 517 77 471 85 c 2,297,298
 471 85 471 85 453 88 c 1,275,276
748 19 m 1,299,300
 748 19 748 19 748 33 c 1,301,302
 741 24 741 24 740 23 c 0,303,304
 740 22 740 22 737.5 18 c 128,-1,305
 735 14 735 14 734 12 c 0,306,307
 686 -40 686 -40 622 -46 c 0,308,309
 617 -46 617 -46 607 -46.5 c 128,-1,310
 597 -47 597 -47 592 -48 c 0,311,312
 586 -48 586 -48 586 -53 c 1,313,314
 594 -57 594 -57 595 -57 c 0,315,316
 601 -59 601 -59 608 -61 c 0,317,318
 669 -73 669 -73 719 -29 c 0,319,320
 740 -11 740 -11 748 19 c 1,299,300
741 47 m 0,321,322
 756 76 756 76 750 107 c 0,323,324
 749 112 749 112 738 143 c 0,325,326
 738 144 738 144 733 152 c 1,327,328
 724 135 724 135 724 134 c 0,329,330
 713 115 713 115 709 111 c 0,331,332
 671 65 671 65 615 45 c 0,333,334
 570 30 570 30 524 35 c 0,335,336
 503 37 503 37 496 36 c 1,337,338
 501 26 501 26 501 26 c 1,339,340
 525 -6 525 -6 534 -17 c 0,341,342
 541 -26 541 -26 555 -30 c 0,343,344
 580 -38 580 -38 604 -34 c 0,345,346
 641 -28 641 -28 673 -13 c 0,347,348
 719 7 719 7 741 47 c 0,321,322
EndSplineSet
Validated: 37
EndChar

StartChar: P
Encoding: 80 80 32
Width: 1024
Flags: W
LayerCount: 2
Fore
SplineSet
925 407 m 128,-1,1
 941 352 941 352 941 294 c 128,-1,2
 941 236 941 236 925 180.5 c 128,-1,3
 909 125 909 125 881 77.5 c 128,-1,4
 853 30 853 30 814.5 -9 c 128,-1,5
 776 -48 776 -48 727.5 -76 c 128,-1,6
 679 -104 679 -104 625 -119.5 c 128,-1,7
 571 -135 571 -135 512.5 -135 c 128,-1,8
 454 -135 454 -135 398.5 -119.5 c 128,-1,9
 343 -104 343 -104 296 -76 c 128,-1,10
 249 -48 249 -48 209.5 -9 c 128,-1,11
 170 30 170 30 142 77.5 c 128,-1,12
 114 125 114 125 99 179 c 0,13,14
 84 236 84 236 84 294 c 128,-1,15
 84 352 84 352 99 407 c 128,-1,16
 114 462 114 462 142 509.5 c 128,-1,17
 170 557 170 557 209.5 596.5 c 128,-1,18
 249 636 249 636 296 663.5 c 128,-1,19
 343 691 343 691 398 706.5 c 128,-1,20
 453 722 453 722 512 722 c 0,21,22
 570 722 570 722 624.5 706.5 c 128,-1,23
 679 691 679 691 727.5 663.5 c 128,-1,24
 776 636 776 636 814.5 596.5 c 128,-1,25
 853 557 853 557 881 509.5 c 128,-1,0
 909 462 909 462 925 407 c 128,-1,1
591 596 m 0,26,27
 588 594 588 594 572 585 c 1,28,29
 572 576 572 576 580 566 c 0,30,31
 584 560 584 560 593 549 c 128,-1,32
 602 538 602 538 604 534 c 0,33,34
 612 524 612 524 616 523.5 c 128,-1,35
 620 523 620 523 630 532 c 0,36,37
 631 533 631 533 632 534 c 0,38,39
 632 535 632 535 632 539 c 1,40,41
 629 539 629 539 624 540 c 128,-1,42
 619 541 619 541 617 541 c 0,43,44
 612 546 612 546 613 555 c 0,45,46
 613 567 613 567 604 570 c 0,47,48
 588 576 588 576 597 591 c 0,49,50
 598 592 598 592 595 596 c 0,51,52
 594 596 594 596 593 596 c 128,-1,53
 592 596 592 596 591 596 c 0,26,27
511 670 m 1,54,55
 511 670 511 670 507 666 c 1,56,57
 549 608 549 608 561 595 c 1,58,59
 568 597 568 597 568 605 c 0,60,61
 569 608 569 608 569.5 620.5 c 128,-1,62
 570 633 570 633 570 640 c 0,63,64
 571 665 571 665 548 668 c 0,65,66
 542 669 542 669 511 670 c 1,54,55
334 463 m 0,67,68
 372 467 372 467 407 456 c 0,69,70
 420 452 420 452 431 443 c 0,71,72
 457 424 457 424 480 392 c 0,73,74
 480 391 480 391 483 382 c 1,75,76
 467 372 467 372 463 370 c 0,77,78
 461 369 461 369 462 365.5 c 128,-1,79
 463 362 463 362 466 362 c 0,80,81
 472 363 472 363 480 365 c 0,82,83
 500 370 500 370 514 356 c 0,84,85
 534 337 534 337 534 312 c 0,86,87
 535 256 535 256 535 208 c 0,88,89
 536 175 536 175 538 125 c 0,90,91
 538 124 538 124 540 115 c 1,92,93
 548 113 548 113 556 112 c 128,-1,94
 564 111 564 111 574.5 111 c 128,-1,95
 585 111 585 111 590 111 c 0,96,97
 612 109 612 109 640 110 c 0,98,99
 644 110 644 110 649.5 110 c 128,-1,100
 655 110 655 110 659.5 109.5 c 128,-1,101
 664 109 664 109 669 109 c 128,-1,102
 674 109 674 109 679 109.5 c 128,-1,103
 684 110 684 110 688 112 c 0,104,105
 692 117 692 117 693 130 c 0,106,107
 694 220 694 220 694 222 c 0,108,109
 694 226 694 226 694.5 233.5 c 128,-1,110
 695 241 695 241 695 247 c 128,-1,111
 695 253 695 253 694 258 c 0,112,113
 692 265 692 265 683 300.5 c 128,-1,114
 674 336 674 336 668 354 c 0,115,116
 662 375 662 375 640 422 c 0,117,118
 617 468 617 468 587 508 c 0,119,120
 568 532 568 532 529 586 c 0,121,122
 504 621 504 621 481 653 c 0,123,124
 473 665 473 665 460 667.5 c 128,-1,125
 447 670 447 670 435 661 c 0,126,127
 434 661 434 661 428.5 657 c 128,-1,128
 423 653 423 653 420 651 c 0,129,130
 374 615 374 615 368 610 c 0,131,132
 361 604 361 604 351.5 596.5 c 128,-1,133
 342 589 342 589 332.5 581.5 c 128,-1,134
 323 574 323 574 316 567 c 0,135,136
 310 562 310 562 298.5 553 c 128,-1,137
 287 544 287 544 278 536 c 128,-1,138
 269 528 269 528 262 520 c 1,139,140
 253 517 253 517 253 504 c 0,141,142
 252 498 252 498 254 492.5 c 128,-1,143
 256 487 256 487 258.5 483 c 128,-1,144
 261 479 261 479 264 473 c 128,-1,145
 267 467 267 467 268 463 c 0,146,147
 269 463 269 463 270 462 c 0,148,149
 297 448 297 448 315 457 c 0,150,151
 327 463 327 463 334 463 c 0,67,68
443 378 m 0,152,153
 460 383 460 383 464 389 c 0,154,155
 464 394 464 394 463 394 c 0,156,157
 442 424 442 424 415 438 c 1,158,159
 415 438 415 438 406 440 c 1,160,161
 406 403 406 403 392 374 c 1,162,163
 415 368 415 368 443 378 c 0,152,153
513 -89 m 1,164,165
 528 -93 528 -93 554.5 -92 c 128,-1,166
 581 -91 581 -91 594 -86 c 1,167,168
 583 -79 583 -79 556 -72 c 128,-1,169
 529 -65 529 -65 518 -66 c 1,170,171
 514 -79 514 -79 513 -81 c 2,172,173
 513 -81 513 -81 513 -89 c 1,164,165
686 -46 m 0,174,175
 689 -42 689 -42 688.5 -36.5 c 128,-1,176
 688 -31 688 -31 684 -28 c 256,177,178
 680 -25 680 -25 673 -25 c 0,179,180
 632 -24 632 -24 554 -22 c 0,181,182
 553 -22 553 -22 529 -22 c 1,183,184
 523 -38 523 -38 523 -39 c 0,185,186
 522 -46 522 -46 527 -49 c 0,187,188
 532 -51 532 -51 538 -53 c 0,189,190
 545 -55 545 -55 577 -63.5 c 128,-1,191
 609 -72 609 -72 626 -77 c 0,192,193
 639 -81 639 -81 665 -73 c 0,194,195
 670 -71 670 -71 672 -67 c 0,196,197
 675 -58 675 -58 686 -46 c 0,174,175
757 50 m 0,198,199
 769 51 769 51 773 55 c 128,-1,200
 777 59 777 59 776 71 c 0,201,202
 775 78 775 78 768 80 c 0,203,204
 765 81 765 81 759 82 c 0,205,206
 681 84 681 84 655 84 c 0,207,208
 638 85 638 85 608.5 85.5 c 128,-1,209
 579 86 579 86 570 86 c 0,210,211
 538 86 538 86 501 87 c 0,212,213
 491 87 491 87 485 82 c 0,214,215
 476 73 476 73 467 78 c 0,216,217
 458 82 458 82 445 75 c 1,218,219
 436 78 436 78 436 86 c 0,220,221
 435 99 435 99 435 104 c 0,222,223
 436 141 436 141 419 194 c 0,224,225
 416 204 416 204 411 215 c 0,226,227
 408 220 408 220 402 221 c 0,228,229
 391 223 391 223 383 216 c 1,230,231
 391 190 391 190 391 188 c 0,232,233
 401 160 401 160 402 140 c 0,234,235
 403 130 403 130 404.5 108 c 128,-1,236
 406 86 406 86 406 74 c 0,237,238
 410 24 410 24 408 10 c 0,239,240
 406 2 406 2 412 -2 c 0,241,242
 414 -3 414 -3 419.5 -7 c 128,-1,243
 425 -11 425 -11 427.5 -12.5 c 128,-1,244
 430 -14 430 -14 435 -16.5 c 128,-1,245
 440 -19 440 -19 443.5 -20 c 128,-1,246
 447 -21 447 -21 452 -22 c 128,-1,247
 457 -23 457 -23 462 -23 c 0,248,249
 479 -21 479 -21 489 -32 c 1,250,251
 489 -32 489 -32 496 -34 c 1,252,253
 506 -27 506 -27 507 -27 c 0,254,255
 517 -20 517 -20 510 -9 c 0,256,257
 506 -3 506 -3 508 0 c 0,258,259
 520 2 520 2 547 1 c 0,260,261
 563 1 563 1 583 0.5 c 128,-1,262
 603 0 603 0 624.5 -0.5 c 128,-1,263
 646 -1 646 -1 661 -1 c 2,264,265
 661 -1 661 -1 690 -1 c 0,266,267
 701 -1 701 -1 706 10 c 0,268,269
 709 15 709 15 711 23 c 0,270,271
 712 26 712 26 712 31 c 128,-1,272
 712 36 712 36 712 38 c 0,273,274
 713 43 713 43 714.5 45.5 c 128,-1,275
 716 48 716 48 718.5 49 c 128,-1,276
 721 50 721 50 725 50 c 0,277,278
 731 50 731 50 742.5 50 c 128,-1,279
 754 50 754 50 757 50 c 0,198,199
556 376 m 0,280,281
 551 380 551 380 549.5 386.5 c 128,-1,282
 548 393 548 393 550.5 398.5 c 128,-1,283
 553 404 553 404 558 407 c 0,284,285
 579 421 579 421 602 415 c 0,286,287
 617 411 617 411 625 404 c 0,288,289
 640 389 640 389 624 376 c 0,290,291
 609 363 609 363 588 364 c 0,292,293
 573 363 573 363 556 376 c 0,280,281
EndSplineSet
Validated: 33
EndChar

StartChar: U
Encoding: 85 85 33
Width: 1024
Flags: W
LayerCount: 2
Fore
SplineSet
566 572 m 1,0,1
 566 572 566 572 566 574 c 1,2,3
 566 574 566 574 566 572 c 1,0,1
566 606 m 2,4,5
 566 604 566 604 567 602 c 0,6,7
 568 598 568 598 568 596 c 0,8,9
 568 592 568 592 567 591 c 1,10,11
 566 598 566 598 564 603 c 128,-1,12
 562 608 562 608 562 614 c 1,13,-1
 562 614 l 1,14,15
 563 612 563 612 564 610 c 0,16,17
 565 610 565 610 566 608 c 2,18,-1
 566 606 l 2,4,5
353 443 m 1,19,20
 355 443 355 443 357 447 c 0,21,22
 358 447 358 447 360 445 c 1,23,-1
 357 443 l 2,24,25
 355 441 355 441 351 443 c 0,26,27
 349 445 349 445 349 447 c 0,28,29
 347 449 347 449 348 453 c 0,30,31
 349 454 349 454 350 454.5 c 128,-1,32
 351 455 351 455 351 457 c 1,33,34
 353 457 353 457 353 456 c 2,35,-1
 353 455 l 1,36,37
 349 453 349 453 352 449 c 1,38,-1
 353 449 l 2,39,40
 355 449 355 449 355 446 c 0,41,42
 355 445 355 445 353 443 c 1,19,20
558 654 m 1,43,-1
 558 650 l 1,44,45
 558 650 558 650 556 648 c 0,46,47
 556 647 556 647 556 646 c 1,48,49
 554 646 554 646 554 644 c 1,50,-1
 553 644 l 1,51,-1
 550 644 l 2,52,53
 548 644 548 644 548 643 c 0,54,55
 548 640 548 640 546 642 c 0,56,57
 544 642 544 642 540 643 c 128,-1,58
 536 644 536 644 534 646 c 128,-1,59
 532 648 532 648 531 650 c 128,-1,60
 530 652 530 652 530 654 c 0,61,62
 530 661 530 661 532 666 c 0,63,64
 533 668 533 668 535.5 669 c 128,-1,65
 538 670 538 670 544 670 c 2,66,-1
 546 670 l 1,67,-1
 549 670 l 2,68,69
 552 670 552 670 554 668 c 2,70,-1
 554 667 l 1,71,72
 558 662 558 662 559 658 c 2,73,-1
 558 656 l 1,74,-1
 558 654 l 1,43,-1
553 625 m 1,75,76
 552 627 552 627 552 630 c 1,77,78
 552 629 552 629 552.5 627.5 c 128,-1,79
 553 626 553 626 553 625 c 1,75,76
612 196 m 2,80,81
 610 198 610 198 610 200 c 2,82,-1
 610 202 l 1,83,-1
 610 228 l 1,84,-1
 610 232 l 1,85,-1
 610 237 l 1,86,-1
 610 238 l 1,87,-1
 611 238 l 2,88,89
 612 236 612 236 612 234 c 0,90,91
 614 230 614 230 614.5 227 c 128,-1,92
 615 224 615 224 617 220 c 2,93,-1
 617 214 l 1,94,-1
 617 200 l 2,95,96
 617 196 617 196 615 194 c 2,97,-1
 612 196 l 2,80,81
611 185 m 2,98,99
 610 185 610 185 610 185 c 1,100,-1
 610 187 l 1,101,-1
 610 189 l 1,102,-1
 610 190 l 2,103,104
 610 191 610 191 611 190 c 0,105,106
 612 190 612 190 612 189 c 2,107,-1
 615 187 l 2,108,109
 617 187 617 187 618 189 c 0,110,111
 618 191 618 191 620 191 c 0,112,113
 621 190 621 190 621 189 c 2,114,-1
 621 186 l 2,115,116
 621 185 621 185 620 184 c 2,117,-1
 619 183 l 2,118,119
 619 182 619 182 617 182 c 2,120,-1
 611 185 l 2,98,99
600 543 m 2,121,122
 600 545 600 545 599 546 c 128,-1,123
 598 547 598 547 598 549 c 1,124,-1
 601 549 l 1,125,126
 602 545 602 545 606 545 c 2,127,-1
 608 545 l 2,128,129
 610 543 610 543 610 541 c 0,130,131
 612 537 612 537 612 535 c 2,132,-1
 612 533 l 1,133,134
 611 533 611 533 608 531 c 0,135,136
 607 532 607 532 605.5 531.5 c 128,-1,137
 604 531 604 531 604 533 c 2,138,-1
 604 534 l 1,139,-1
 602 535 l 1,140,-1
 600 543 l 2,121,122
396 459 m 1,141,-1
 398 459 l 1,142,-1
 400 459 l 1,143,-1
 399 457 l 2,144,145
 397 458 397 458 396 459 c 1,141,-1
598 202 m 0,146,147
 598 203 598 203 597 205 c 0,148,149
 593 212 593 212 589.5 218 c 128,-1,150
 586 224 586 224 583 228 c 0,151,152
 582 229 582 229 582 230 c 0,153,154
 580 239 580 239 579 249 c 2,155,-1
 579 251 l 1,156,-1
 579 254 l 1,157,158
 583 253 583 253 590 252.5 c 128,-1,159
 597 252 597 252 603 252 c 1,160,-1
 603 250 l 1,161,-1
 603 246 l 2,162,163
 604 244 604 244 604 242 c 2,164,-1
 604 230 l 2,165,166
 604 224 604 224 602 218 c 2,167,-1
 602 208 l 1,168,-1
 602 202 l 1,169,-1
 600 200 l 2,170,171
 598 200 598 200 598 202 c 0,146,147
598 194 m 0,172,173
 600 191 600 191 598 192 c 0,174,175
 594 192 594 192 593 193 c 128,-1,176
 592 194 592 194 591 196 c 2,177,-1
 591 197 l 2,178,179
 591 200 591 200 593 200 c 0,180,181
 596 200 596 200 597 198 c 128,-1,182
 598 196 598 196 598 194 c 0,172,173
512 722 m 0,183,184
 570 722 570 722 624.5 706.5 c 128,-1,185
 679 691 679 691 727 663.5 c 128,-1,186
 775 636 775 636 814 596.5 c 128,-1,187
 853 557 853 557 881 509.5 c 128,-1,188
 909 462 909 462 924.5 407 c 128,-1,189
 940 352 940 352 940 294 c 256,190,191
 940 236 940 236 924.5 180.5 c 128,-1,192
 909 125 909 125 881 78 c 128,-1,193
 853 31 853 31 814 -8.5 c 128,-1,194
 775 -48 775 -48 727 -76 c 128,-1,195
 679 -104 679 -104 624.5 -119 c 128,-1,196
 570 -134 570 -134 512 -134 c 256,197,198
 454 -134 454 -134 398.5 -119 c 128,-1,199
 343 -104 343 -104 296 -76 c 128,-1,200
 249 -48 249 -48 209.5 -8.5 c 128,-1,201
 170 31 170 31 142 78 c 128,-1,202
 114 125 114 125 99 179 c 0,203,204
 84 236 84 236 84 294 c 256,205,206
 84 352 84 352 99 407 c 128,-1,207
 114 462 114 462 142 509.5 c 128,-1,208
 170 557 170 557 209.5 596.5 c 128,-1,209
 249 636 249 636 296 663.5 c 128,-1,210
 343 691 343 691 398 706.5 c 128,-1,211
 453 722 453 722 512 722 c 0,183,184
667 -62 m 1,212,-1
 669 -59 l 2,213,214
 669 -58 669 -58 669 -56 c 0,215,216
 668 -53 668 -53 667.5 -50.5 c 128,-1,217
 667 -48 667 -48 667 -45 c 2,218,-1
 667 -38 l 1,219,-1
 667 -32 l 2,220,221
 667 -30 667 -30 666 -27.5 c 128,-1,222
 665 -25 665 -25 664 -23 c 2,223,-1
 663 -20 l 2,224,225
 662 -17 662 -17 660.5 -14 c 128,-1,226
 659 -11 659 -11 658 -8 c 2,227,-1
 657 -3 l 1,228,-1
 657 4 l 1,229,-1
 657 7 l 2,230,231
 657 8 657 8 656 9 c 128,-1,232
 655 10 655 10 655 11 c 2,233,-1
 653 13 l 2,234,235
 651 13 651 13 651 14 c 0,236,237
 650 16 650 16 649.5 16.5 c 128,-1,238
 649 17 649 17 649 19 c 0,239,240
 648 21 648 21 646.5 23 c 128,-1,241
 645 25 645 25 645 27 c 128,-1,242
 645 29 645 29 644 30 c 128,-1,243
 643 31 643 31 643 33 c 2,244,-1
 641 35 l 1,245,246
 641 35 641 35 640 37 c 0,247,248
 641 39 641 39 640 41 c 128,-1,249
 639 43 639 43 639 45 c 0,250,251
 637 47 637 47 638 51 c 0,252,253
 637 55 637 55 636 60 c 128,-1,254
 635 65 635 65 633 69 c 0,255,256
 632 71 632 71 631.5 73 c 128,-1,257
 631 75 631 75 631 77 c 2,258,-1
 626 93 l 1,259,-1
 624 101 l 2,260,261
 623 105 623 105 621 109 c 0,262,263
 620 113 620 113 618.5 116 c 128,-1,264
 617 119 617 119 617 121 c 2,265,-1
 615 122 l 2,266,267
 612 123 612 123 612 125 c 2,268,-1
 612 126 l 1,269,-1
 612 127 l 2,270,271
 612 129 612 129 610 130 c 0,272,273
 609 131 609 131 609 132 c 0,274,275
 609 134 609 134 607 137 c 2,276,-1
 606 137 l 1,277,278
 606 137 606 137 605 138 c 2,279,-1
 604 138 l 2,280,281
 602 138 602 138 602 141 c 2,282,-1
 602 147 l 2,283,284
 602 149 602 149 601 149 c 2,285,-1
 600 151 l 1,286,-1
 600 152 l 2,287,288
 600 155 600 155 599 157 c 128,-1,289
 598 159 598 159 598 161 c 1,290,291
 596 161 596 161 595.5 163 c 128,-1,292
 595 165 595 165 595 166 c 0,293,294
 596 168 596 168 595.5 170.5 c 128,-1,295
 595 173 595 173 596 175 c 0,296,297
 596 178 596 178 600 179 c 0,298,299
 601 179 601 179 602 180 c 2,300,-1
 602 181 l 1,301,-1
 603 182 l 2,302,303
 604 184 604 184 606 183 c 2,304,-1
 608 181 l 2,305,306
 609 180 609 180 610.5 179.5 c 128,-1,307
 612 179 612 179 614 179 c 2,308,-1
 618 179 l 2,309,310
 621 179 621 179 623 183 c 2,311,-1
 623 185 l 2,312,313
 623 186 623 186 623 187 c 0,314,315
 625 189 625 189 625 191 c 0,316,317
 625 196 625 196 625 200 c 0,318,319
 623 202 623 202 623 206 c 128,-1,320
 623 210 623 210 622.5 215 c 128,-1,321
 622 220 622 220 621 222 c 0,322,323
 620 226 620 226 619.5 229 c 128,-1,324
 619 232 619 232 618 236 c 2,325,-1
 616 242 l 1,326,-1
 614 248 l 1,327,-1
 612 252 l 1,328,-1
 612 254 l 1,329,-1
 612 260 l 2,330,331
 612 262 612 262 612 266 c 2,332,-1
 614 270 l 1,333,-1
 614 275 l 2,334,335
 612 278 612 278 612 280 c 0,336,337
 612 284 612 284 611.5 287 c 128,-1,338
 611 290 611 290 610 294 c 0,339,340
 610 298 610 298 608 304 c 0,341,342
 607 308 607 308 605.5 313 c 128,-1,343
 604 318 604 318 603 326 c 0,344,345
 602 332 602 332 602 334 c 0,346,347
 602 338 602 338 600.5 342 c 128,-1,348
 599 346 599 346 598 350 c 0,349,350
 597 351 597 351 597 352.5 c 128,-1,351
 597 354 597 354 596 355 c 1,352,353
 598 355 598 355 599.5 354.5 c 128,-1,354
 601 354 601 354 602 354 c 0,355,356
 604 354 604 354 607 353.5 c 128,-1,357
 610 353 610 353 612.5 353 c 128,-1,358
 615 353 615 353 616 353.5 c 128,-1,359
 617 354 617 354 619 354 c 2,360,-1
 620 354 l 2,361,362
 622 356 622 356 624.5 356.5 c 128,-1,363
 627 357 627 357 629 359 c 2,364,-1
 630 360 l 2,365,366
 631 360 631 360 633 361 c 128,-1,367
 635 362 635 362 637 364 c 0,368,369
 639 365 639 365 641 366.5 c 128,-1,370
 643 368 643 368 645 369 c 0,371,372
 649 372 649 372 649 378 c 0,373,374
 650 383 650 383 649 387 c 0,375,376
 649 392 649 392 649 397 c 0,377,378
 649 399 649 399 648 401.5 c 128,-1,379
 647 404 647 404 647 407 c 2,380,-1
 647 409 l 2,381,382
 648 411 648 411 646 413 c 2,383,-1
 644 417 l 2,384,385
 643 419 643 419 641 421 c 0,386,387
 641 423 641 423 641 424 c 0,388,389
 639 425 639 425 639 427 c 0,390,391
 639 430 639 430 640 431 c 2,392,-1
 644 439 l 2,393,394
 643 440 643 440 642 440.5 c 128,-1,395
 641 441 641 441 640 441 c 2,396,-1
 639 442 l 2,397,398
 637 443 637 443 637 444 c 0,399,400
 636 445 636 445 635.5 446 c 128,-1,401
 635 447 635 447 634 448 c 0,402,403
 632 450 632 450 630 452.5 c 128,-1,404
 628 455 628 455 626 458 c 0,405,406
 626 459 626 459 625.5 460 c 128,-1,407
 625 461 625 461 624 461 c 1,408,409
 624 462 624 462 623.5 462.5 c 128,-1,410
 623 463 623 463 623 464 c 2,411,-1
 621 467 l 2,412,413
 619 469 619 469 619 471 c 1,414,415
 621 471 621 471 623 472 c 0,416,417
 625 472 625 472 624 473 c 1,418,419
 625 474 625 474 625 475 c 128,-1,420
 625 476 625 476 626 477 c 2,421,-1
 627 479 l 2,422,423
 628 481 628 481 627.5 482 c 128,-1,424
 627 483 627 483 627 485 c 2,425,-1
 627 489 l 1,426,-1
 627 493 l 2,427,428
 627 494 627 494 627 495 c 1,429,-1
 626 495 l 1,430,431
 625 499 625 499 623.5 502 c 128,-1,432
 622 505 622 505 621 509 c 0,433,434
 620 511 620 511 619.5 513 c 128,-1,435
 619 515 619 515 617 517 c 2,436,-1
 616 521 l 2,437,438
 615 523 615 523 615 525 c 128,-1,439
 615 527 615 527 617 527 c 0,440,441
 619 526 619 526 619 529 c 2,442,-1
 620 531 l 1,443,-1
 621 531 l 1,444,-1
 621 537 l 2,445,446
 621 538 621 538 621 538 c 257,447,448
 621 538 621 538 621 539 c 0,449,450
 620 540 620 540 620 541 c 0,451,452
 619 543 619 543 619 544 c 0,453,454
 617 546 617 546 618 548 c 2,455,-1
 617 549 l 1,456,-1
 617 551 l 2,457,458
 617 553 617 553 614.5 553 c 128,-1,459
 612 553 612 553 612 554 c 1,460,461
 611 554 611 554 610.5 554.5 c 128,-1,462
 610 555 610 555 609 555 c 2,463,-1
 608 555 l 2,464,465
 606 557 606 557 604 556 c 1,466,-1
 604 557 l 1,467,468
 604 557 604 557 602 557 c 2,469,-1
 600 555 l 2,470,471
 598 555 598 555 598 553 c 1,472,473
 594 555 594 555 595 555 c 1,474,-1
 594 555 l 1,475,476
 594 555 594 555 594 557 c 0,477,478
 592 559 592 559 590 558 c 2,479,-1
 583 558 l 1,480,-1
 582 559 l 1,481,-1
 580 559 l 2,482,483
 578 560 578 560 577 562 c 0,484,485
 574 565 574 565 574 569 c 2,486,-1
 574 571 l 2,487,488
 574 573 574 573 572 573 c 2,489,-1
 571 574 l 2,490,491
 570 576 570 576 570 579 c 128,-1,492
 570 582 570 582 568 585 c 2,493,-1
 568 586 l 2,494,495
 568 588 568 588 568 589 c 1,496,497
 570 589 570 589 570 591 c 2,498,-1
 570 598 l 2,499,500
 570 602 570 602 568 604 c 0,501,502
 567 608 567 608 567 610 c 128,-1,503
 567 612 567 612 566 612 c 2,504,-1
 564 614 l 1,505,-1
 562 616 l 2,506,507
 561 616 561 616 560 618 c 128,-1,508
 559 620 559 620 558.5 623 c 128,-1,509
 558 626 558 626 557 629 c 0,510,511
 558 631 558 631 558 632 c 2,512,-1
 558 633 l 2,513,514
 558 635 558 635 557 636.5 c 128,-1,515
 556 638 556 638 556 640 c 2,516,-1
 556 642 l 1,517,-1
 557 642 l 1,518,519
 562 647 562 647 562 656 c 0,520,521
 562 660 562 660 560 664 c 0,522,523
 558 666 558 666 557 668 c 0,524,525
 554 672 554 672 549 672 c 0,526,527
 548 672 548 672 547 673 c 2,528,-1
 544 673 l 1,529,-1
 542 672 l 2,530,531
 541 672 541 672 536 672 c 0,532,533
 534 672 534 672 532 670 c 0,534,535
 530 669 530 669 529.5 667.5 c 128,-1,536
 529 666 529 666 528 665 c 0,537,538
 527 662 527 662 527 661 c 0,539,540
 526 656 526 656 528 652 c 0,541,542
 530 646 530 646 533 642 c 0,543,544
 534 641 534 641 536 640 c 2,545,546
 536 640 536 640 542 640 c 0,547,548
 543 640 543 640 544 640 c 2,549,-1
 546 638 l 2,550,551
 550 638 550 638 549 634 c 0,552,553
 548 632 548 632 550 627 c 0,554,555
 550 626 550 626 550.5 625 c 128,-1,556
 551 624 551 624 552 624 c 2,557,-1
 554 622 l 1,558,-1
 554 621 l 1,559,-1
 554 620 l 2,560,561
 554 618 554 618 555 616 c 128,-1,562
 556 614 556 614 556 612 c 128,-1,563
 556 610 556 610 558 604 c 0,564,565
 560 600 560 600 560.5 595.5 c 128,-1,566
 561 591 561 591 562 589 c 128,-1,567
 563 587 563 587 564 585 c 0,568,569
 564 581 564 581 564 579 c 2,570,-1
 564 578 l 1,571,-1
 564 577 l 2,572,573
 562 571 562 571 565 566 c 0,574,575
 566 564 566 564 567 562.5 c 128,-1,576
 568 561 568 561 568 558 c 2,577,-1
 566 557 l 1,578,-1
 561 557 l 2,579,580
 558 557 558 557 558 559 c 128,-1,581
 558 561 558 561 557 563 c 128,-1,582
 556 565 556 565 556 567 c 0,583,584
 554 576 554 576 551 585 c 0,585,586
 550 589 550 589 549 597 c 1,587,-1
 548 596 l 1,588,589
 548 598 548 598 547 597 c 2,590,-1
 546 596 l 2,591,592
 546 593 546 593 547 589 c 2,593,-1
 549 581 l 1,594,-1
 551 573 l 2,595,596
 552 568 552 568 552 566 c 256,597,598
 552 564 552 564 553 562.5 c 128,-1,599
 554 561 554 561 554 559 c 256,600,601
 554 557 554 557 553 557 c 2,602,-1
 548 557 l 2,603,604
 546 557 546 557 545 556 c 1,605,-1
 544 557 l 1,606,-1
 539 557 l 1,607,-1
 534 557 l 1,608,-1
 530 557 l 2,609,610
 528 557 528 557 526 558 c 2,611,-1
 522 558 l 1,612,-1
 524 560 l 2,613,614
 525 561 525 561 525.5 562 c 128,-1,615
 526 563 526 563 527 564 c 2,616,-1
 528 565 l 1,617,-1
 532 573 l 2,618,619
 535 575 535 575 536 580 c 2,620,-1
 536 581 l 1,621,622
 542 584 542 584 543 587 c 128,-1,623
 544 590 544 590 544 593 c 0,624,625
 544 597 544 597 545 599 c 2,626,-1
 546 600 l 1,627,-1
 546 601 l 1,628,-1
 546 602 l 2,629,630
 546 604 546 604 547 606 c 128,-1,631
 548 608 548 608 547 608 c 1,632,633
 547 610 547 610 546.5 611 c 128,-1,634
 546 612 546 612 546 614 c 0,635,636
 545 616 545 616 543 618 c 0,637,638
 538 619 538 619 536 620 c 2,639,-1
 534 620 l 2,640,641
 533 622 533 622 532.5 624 c 128,-1,642
 532 626 532 626 530 628 c 2,643,-1
 530 629 l 2,644,645
 529 632 529 632 527.5 634 c 128,-1,646
 526 636 526 636 524 636 c 0,647,648
 522 637 522 637 521 638.5 c 128,-1,649
 520 640 520 640 518 641 c 128,-1,650
 516 642 516 642 515 643 c 2,651,-1
 512 643 l 2,652,653
 510 644 510 644 508 643 c 128,-1,654
 506 642 506 642 505 642 c 2,655,-1
 504 643 l 1,656,-1
 501 644 l 2,657,658
 499 646 499 646 496.5 648 c 128,-1,659
 494 650 494 650 491 650 c 0,660,661
 490 650 490 650 488 650.5 c 128,-1,662
 486 651 486 651 481 651 c 2,663,-1
 479 651 l 2,664,665
 477 650 477 650 474 651 c 1,666,-1
 474 650 l 1,667,-1
 472 650 l 1,668,-1
 469 650 l 2,669,670
 465 650 465 650 461 647 c 0,671,672
 459 646 459 646 457.5 645 c 128,-1,673
 456 644 456 644 455 644 c 128,-1,674
 454 644 454 644 454 642 c 0,675,676
 452 641 452 641 450 640 c 0,677,678
 450 638 450 638 448 637 c 2,679,-1
 446 634 l 1,680,-1
 443 632 l 1,681,-1
 441 628 l 2,682,683
 440 626 440 626 440 624 c 2,684,-1
 440 622 l 2,685,686
 439 616 439 616 440 612 c 2,687,-1
 440 609 l 1,688,-1
 440 608 l 1,689,-1
 438 608 l 1,690,-1
 438 606 l 1,691,-1
 438 602 l 1,692,-1
 438 589 l 2,693,694
 438 585 438 585 439 581 c 0,695,696
 440 575 440 575 440 571 c 0,697,698
 442 567 442 567 444 565 c 0,699,700
 444 564 444 564 445 563.5 c 128,-1,701
 446 563 446 563 446 561 c 0,702,703
 446 555 446 555 451 552 c 2,704,-1
 453 550 l 2,705,706
 454 549 454 549 456 548 c 0,707,708
 457 546 457 546 458 545.5 c 128,-1,709
 459 545 459 545 460 543 c 0,710,711
 462 543 462 543 462 541 c 0,712,713
 461 540 461 540 460 539.5 c 128,-1,714
 459 539 459 539 458 537 c 0,715,716
 456 535 456 535 455 533 c 0,717,718
 453 527 453 527 450 523 c 2,719,-1
 448 521 l 1,720,721
 448 521 448 521 448 520 c 2,722,-1
 447 519 l 2,723,724
 445 517 445 517 442.5 515.5 c 128,-1,725
 440 514 440 514 438 512 c 0,726,727
 437 511 437 511 437 510 c 2,728,-1
 433 506 l 2,729,730
 430 504 430 504 428 502 c 0,731,732
 424 498 424 498 425 496 c 0,733,734
 424 492 424 492 424 487.5 c 128,-1,735
 424 483 424 483 422 478 c 2,736,-1
 422 475 l 1,737,-1
 422 468 l 1,738,-1
 422 461 l 2,739,740
 422 459 422 459 423 458 c 1,741,742
 419 458 419 458 418 459 c 0,743,744
 416 460 416 460 415 461 c 128,-1,745
 414 462 414 462 412 463 c 0,746,747
 410 463 410 463 410 464 c 0,748,749
 410 467 410 467 407 467 c 2,750,-1
 406 467 l 1,751,-1
 405 469 l 2,752,753
 403 469 403 469 403 471 c 128,-1,754
 403 473 403 473 402 473 c 128,-1,755
 401 473 401 473 400 475 c 1,756,757
 399 473 399 473 398 473.5 c 128,-1,758
 397 474 397 474 395 473 c 0,759,760
 393 473 393 473 393 477 c 0,761,762
 392 479 392 479 389 479 c 2,763,-1
 387 481 l 1,764,-1
 382 483 l 2,765,766
 379 485 379 485 375 486 c 0,767,768
 373 487 373 487 372 487 c 128,-1,769
 371 487 371 487 370 485 c 0,770,771
 369 484 369 484 369 482.5 c 128,-1,772
 369 481 369 481 367 481 c 1,773,774
 371 479 371 479 375 475 c 256,775,776
 379 471 379 471 382 469 c 1,777,-1
 379 467 l 2,778,779
 377 467 377 467 378 467 c 1,780,781
 378 468 378 468 376 468.5 c 128,-1,782
 374 469 374 469 373 471 c 0,783,784
 369 474 369 474 365 476.5 c 128,-1,785
 361 479 361 479 359 481 c 0,786,787
 355 485 355 485 350 488 c 128,-1,788
 345 491 345 491 341 495 c 2,789,-1
 338 497 l 1,790,-1
 335 498 l 1,791,-1
 334 499 l 1,792,-1
 333 499 l 2,793,794
 331 499 331 499 329 500 c 2,795,-1
 327 501 l 2,796,797
 326 501 326 501 325 501 c 1,798,-1
 325 502 l 2,799,800
 323 503 323 503 322 503 c 128,-1,801
 321 503 321 503 319 502 c 2,802,-1
 319 501 l 1,803,-1
 319 500 l 1,804,805
 317 500 317 500 317 501 c 0,806,807
 314 502 314 502 311.5 503.5 c 128,-1,808
 309 505 309 505 307 507 c 0,809,810
 305 507 305 507 304 507.5 c 128,-1,811
 303 508 303 508 301 508 c 0,812,813
 300 509 300 509 299 509 c 0,814,815
 297 510 297 510 295 510.5 c 128,-1,816
 293 511 293 511 291 512 c 256,817,818
 289 513 289 513 288 513 c 2,819,-1
 286 513 l 1,820,-1
 285 509 l 1,821,-1
 285 508 l 1,822,-1
 286 507 l 1,823,-1
 287 507 l 2,824,825
 289 505 289 505 291 503 c 0,826,827
 293 503 293 503 295 501 c 2,828,-1
 295 499 l 2,829,830
 295 497 295 497 297 497 c 0,831,832
 301 493 301 493 305 490.5 c 128,-1,833
 309 488 309 488 313 484 c 0,834,835
 315 482 315 482 318 481 c 2,836,-1
 323 478 l 2,837,838
 325 477 325 477 327 477 c 1,839,-1
 327 476 l 1,840,-1
 329 476 l 2,841,842
 331 475 331 475 332 474 c 2,843,-1
 335 471 l 2,844,845
 341 467 341 467 348 463 c 2,846,-1
 350 462 l 2,847,848
 351 462 351 462 351 461 c 2,849,-1
 351 458 l 2,850,851
 351 457 351 457 350 457 c 0,852,853
 349 456 349 456 349 455.5 c 128,-1,854
 349 455 349 455 347 453 c 128,-1,855
 345 451 345 451 346 447 c 0,856,857
 346 445 346 445 349 443 c 0,858,859
 351 441 351 441 356 440 c 2,860,-1
 357 440 l 1,861,-1
 357 441 l 2,862,863
 358 442 358 442 359 442 c 128,-1,864
 360 442 360 442 361 443 c 1,865,866
 363 441 363 441 361 439 c 0,867,868
 360 439 360 439 360 437 c 0,869,870
 361 435 361 435 361 433 c 0,871,872
 363 431 363 431 361 429 c 2,873,-1
 361 423 l 1,874,-1
 361 421 l 1,875,-1
 361 420 l 1,876,-1
 361 415 l 1,877,-1
 361 413 l 1,878,-1
 362 413 l 2,879,880
 363 413 363 413 363 410 c 0,881,882
 361 407 361 407 365 407 c 2,883,-1
 366 407 l 1,884,-1
 371 407 l 2,885,886
 373 407 373 407 375 405 c 0,887,888
 379 405 379 405 381 403 c 0,889,890
 385 401 385 401 387 402 c 0,891,892
 389 402 389 402 392 400 c 0,893,894
 393 400 393 400 394 399.5 c 128,-1,895
 395 399 395 399 396 398 c 2,896,-1
 399 394 l 2,897,898
 399 393 399 393 400 393.5 c 128,-1,899
 401 394 401 394 401 393 c 1,900,-1
 403 394 l 2,901,902
 405 397 405 397 405 394 c 2,903,-1
 407 393 l 1,904,-1
 422 386 l 2,905,906
 424 385 424 385 425 383.5 c 128,-1,907
 426 382 426 382 430 382 c 0,908,909
 434 381 434 381 436 378 c 0,910,911
 440 376 440 376 442 373 c 2,912,-1
 442 372 l 2,913,914
 442 370 442 370 445 368 c 0,915,916
 446 367 446 367 446 366 c 0,917,918
 446 360 446 360 448 354 c 2,919,-1
 448 352 l 2,920,921
 448 350 448 350 450 349 c 0,922,923
 452 349 452 349 452 347 c 2,924,-1
 452 345 l 1,925,-1
 452 344 l 2,926,927
 453 343 453 343 452.5 342.5 c 128,-1,928
 452 342 452 342 452 340 c 128,-1,929
 452 338 452 338 451 339 c 0,930,931
 448 338 448 338 448 335 c 0,932,933
 447 331 447 331 446.5 327.5 c 128,-1,934
 446 324 446 324 444 317 c 2,935,-1
 443 312 l 2,936,937
 442 310 442 310 440 309 c 2,938,-1
 440 308 l 1,939,-1
 440 306 l 2,940,941
 439 303 439 303 437 301 c 0,942,943
 436 300 436 300 436 299.5 c 128,-1,944
 436 299 436 299 434 298 c 0,945,946
 432 296 432 296 430 293 c 0,947,948
 426 288 426 288 423 284 c 0,949,950
 422 282 422 282 421 279 c 2,951,-1
 422 277 l 2,952,953
 424 276 424 276 422 274 c 2,954,-1
 421 273 l 2,955,956
 421 272 421 272 419 270 c 0,957,958
 419 265 419 265 418.5 263.5 c 128,-1,959
 418 262 418 262 417 260 c 0,960,961
 416 259 416 259 415.5 257.5 c 128,-1,962
 415 256 415 256 414 254 c 0,963,964
 414 253 414 253 414 252 c 1,965,966
 412 252 412 252 412 251 c 0,967,968
 410 250 410 250 410 249 c 128,-1,969
 410 248 410 248 409 247 c 2,970,-1
 409 246 l 2,971,972
 408 244 408 244 407 242 c 0,973,974
 405 240 405 240 405 238 c 0,975,976
 404 237 404 237 403.5 236 c 128,-1,977
 403 235 403 235 403 234 c 0,978,979
 403 232 403 232 401 230 c 2,980,-1
 399 226 l 1,981,-1
 398 224 l 1,982,-1
 397 222 l 2,983,984
 397 220 397 220 395 218 c 0,985,986
 394 216 394 216 394 214 c 0,987,988
 393 212 393 212 393 210 c 2,989,-1
 393 208 l 1,990,-1
 393 207 l 1,991,-1
 393 206 l 2,992,993
 393 205 393 205 392 204 c 2,994,-1
 390 200 l 2,995,996
 389 198 389 198 389 196 c 0,997,998
 387 192 387 192 387 190 c 0,999,1000
 386 188 386 188 385.5 185.5 c 128,-1,1001
 385 183 385 183 384 181 c 0,1002,1003
 385 177 385 177 381 173 c 0,1004,1005
 380 171 380 171 379.5 169.5 c 128,-1,1006
 379 168 379 168 378 166 c 2,1007,-1
 378 163 l 2,1008,1009
 378 159 378 159 378.5 154 c 128,-1,1010
 379 149 379 149 379 146 c 2,1011,-1
 379 143 l 1,1012,-1
 379 141 l 2,1013,1014
 378 139 378 139 378 137 c 2,1015,-1
 378 133 l 1,1016,-1
 378 128 l 1,1017,-1
 378 122 l 2,1018,1019
 378 121 378 121 379 121 c 1,1020,-1
 379 119 l 2,1021,1022
 379 118 379 118 379 117 c 0,1023,1024
 377 115 377 115 377 113 c 0,1025,1026
 377 109 377 109 378 105 c 0,1027,1028
 379 103 379 103 379 99 c 2,1029,-1
 379 94 l 2,1030,1031
 380 90 380 90 379.5 85.5 c 128,-1,1032
 379 81 379 81 379 76 c 2,1033,-1
 379 66 l 1,1034,-1
 379 65 l 1,1035,-1
 379 59 l 1,1036,-1
 379 54 l 1,1037,-1
 379 47 l 1,1038,-1
 379 39 l 1,1039,-1
 379 31 l 1,1040,-1
 379 30 l 1,1041,-1
 378 29 l 1,1042,-1
 379 28 l 1,1043,-1
 377 27 l 1,1044,-1
 377 24 l 1,1045,-1
 377 23 l 1,1046,-1
 377 21 l 2,1047,1048
 379 19 379 19 377 19 c 1,1049,1050
 377 17 377 17 375 14 c 0,1051,1052
 375 12 375 12 374 10.5 c 128,-1,1053
 373 9 373 9 373 7 c 0,1054,1055
 372 5 372 5 370.5 3 c 128,-1,1056
 369 1 369 1 367 -1 c 0,1057,1058
 367 -2 367 -2 367 -3 c 2,1059,-1
 365 -5 l 2,1060,1061
 364 -8 364 -8 363.5 -9.5 c 128,-1,1062
 363 -11 363 -11 362 -12 c 2,1063,-1
 361 -15 l 2,1064,1065
 360 -16 360 -16 359 -17 c 0,1066,1067
 359 -18 359 -18 358 -18 c 0,1068,1069
 356 -20 356 -20 353 -21 c 128,-1,1070
 350 -22 350 -22 347 -24 c 0,1071,1072
 345 -24 345 -24 341 -26 c 0,1073,1074
 339 -27 339 -27 337 -27.5 c 128,-1,1075
 335 -28 335 -28 333 -29 c 2,1076,-1
 333 -30 l 1,1077,1078
 333 -30 333 -30 332 -30 c 2,1079,-1
 331 -30 l 2,1080,1081
 327 -30 327 -30 325 -34 c 0,1082,1083
 325 -36 325 -36 323 -38 c 2,1084,-1
 323 -39 l 2,1085,1086
 321 -40 321 -40 323 -42 c 128,-1,1087
 325 -44 325 -44 329 -46 c 0,1088,1089
 333 -50 333 -50 339 -50 c 2,1090,-1
 343 -50 l 2,1091,1092
 349 -50 349 -50 353 -49 c 256,1093,1094
 357 -48 357 -48 363 -48 c 0,1095,1096
 365 -48 365 -48 368 -47 c 128,-1,1097
 371 -46 371 -46 375 -46 c 0,1098,1099
 377 -46 377 -46 378 -45.5 c 128,-1,1100
 379 -45 379 -45 381 -45 c 0,1101,1102
 387 -43 387 -43 391 -42.5 c 128,-1,1103
 395 -42 395 -42 399 -42 c 0,1104,1105
 401 -42 401 -42 405 -41 c 0,1106,1107
 407 -41 407 -41 408 -40.5 c 128,-1,1108
 409 -40 409 -40 410 -40 c 2,1109,-1
 415 -40 l 2,1110,1111
 416 -40 416 -40 416 -38 c 0,1112,1113
 417 -33 417 -33 417 -28 c 2,1114,-1
 417 -18 l 1,1115,-1
 417 -11 l 2,1116,1117
 416 -8 416 -8 416 -3 c 2,1118,-1
 416 -2 l 2,1119,1120
 415 2 415 2 415.5 6 c 128,-1,1121
 416 10 416 10 416 14 c 2,1122,-1
 416 15 l 2,1123,1124
 417 16 417 16 416.5 17.5 c 128,-1,1125
 416 19 416 19 417 21 c 128,-1,1126
 418 23 418 23 418 25 c 2,1127,-1
 418 30 l 2,1128,1129
 418 32 418 32 418 35 c 0,1130,1131
 420 37 420 37 420 40 c 2,1132,-1
 420 49 l 1,1133,-1
 420 53 l 2,1134,1135
 420 55 420 55 421 57 c 2,1136,-1
 422 58 l 1,1137,-1
 422 59 l 1,1138,-1
 422 63 l 2,1139,1140
 422 65 422 65 424 70 c 2,1141,-1
 425 81 l 2,1142,1143
 426 85 426 85 427 88 c 128,-1,1144
 428 91 428 91 430 94 c 0,1145,1146
 431 98 431 98 432 101 c 0,1147,1148
 432 103 432 103 434 107 c 0,1149,1150
 434 109 434 109 436 111 c 0,1151,1152
 436 113 436 113 438 117 c 2,1153,-1
 439 119 l 2,1154,1155
 439 121 439 121 438 123 c 2,1156,1157
 438 123 438 123 438 125 c 2,1158,-1
 438 131 l 2,1159,1160
 438 133 438 133 440 133 c 0,1161,1162
 443 135 443 135 441 138 c 2,1163,-1
 440 140 l 1,1164,1165
 441 140 441 140 441.5 140.5 c 128,-1,1166
 442 141 442 141 443 141 c 1,1167,1168
 443 142 443 142 443.5 143 c 128,-1,1169
 444 144 444 144 442 145 c 0,1170,1171
 441 146 441 146 442 149 c 0,1172,1173
 443 153 443 153 444 153 c 0,1174,1175
 445 155 445 155 445 154 c 1,1176,1177
 447 158 447 158 448 163 c 0,1178,1179
 450 167 450 167 452 169 c 0,1180,1181
 456 174 456 174 458 180 c 2,1182,-1
 463 187 l 2,1183,1184
 466 194 466 194 470 200 c 0,1185,1186
 472 204 472 204 475 208 c 128,-1,1187
 478 212 478 212 480 218 c 0,1188,1189
 488 224 488 224 493 228 c 256,1190,1191
 498 232 498 232 502 238 c 1,1192,-1
 503 238 l 1,1193,-1
 504 240 l 1,1194,1195
 505 238 505 238 506 234 c 0,1196,1197
 508 227 508 227 510 218.5 c 128,-1,1198
 512 210 512 210 515 202 c 0,1199,1200
 516 200 516 200 516 198 c 256,1201,1202
 516 196 516 196 517 195 c 128,-1,1203
 518 194 518 194 518 191 c 0,1204,1205
 522 183 522 183 524 175 c 0,1206,1207
 525 173 525 173 526 171 c 2,1208,1209
 526 171 526 171 526 169 c 0,1210,1211
 527 165 527 165 527.5 161 c 128,-1,1212
 528 157 528 157 530 152 c 0,1213,1214
 531 148 531 148 531.5 144.5 c 128,-1,1215
 532 141 532 141 534 138 c 2,1216,-1
 534 137 l 1,1217,-1
 534 135 l 2,1218,1219
 534 133 534 133 536 131 c 128,-1,1220
 538 129 538 129 542 127 c 0,1221,1222
 542 126 542 126 543 124.5 c 128,-1,1223
 544 123 544 123 544 122 c 2,1224,-1
 544 121 l 1,1225,-1
 545 120 l 1,1226,-1
 546 117 l 2,1227,1228
 548 117 548 117 548 113 c 0,1229,1230
 550 111 550 111 550 109 c 1,1231,1232
 551 109 551 109 552 109 c 1,1233,1234
 552 109 552 109 552 107 c 128,-1,1235
 552 105 552 105 554 105 c 0,1236,1237
 556 101 556 101 556 99 c 0,1238,1239
 556 98 556 98 557 97 c 128,-1,1240
 558 96 558 96 558 95 c 0,1241,1242
 558 93 558 93 560 91 c 0,1243,1244
 563 87 563 87 565 83 c 1,1245,-1
 566 83 l 1,1246,-1
 566 81 l 2,1247,1248
 567 80 567 80 568 79.5 c 128,-1,1249
 569 79 569 79 570 78 c 2,1250,-1
 576 72 l 2,1251,1252
 577 71 577 71 577.5 70 c 128,-1,1253
 578 69 578 69 580 69 c 2,1254,-1
 581 66 l 2,1255,1256
 581 63 581 63 582 63 c 0,1257,1258
 583 61 583 61 583.5 59.5 c 128,-1,1259
 584 58 584 58 586 56 c 2,1260,-1
 590 50 l 2,1261,1262
 592 48 592 48 594 45.5 c 128,-1,1263
 596 43 596 43 597 41 c 2,1264,-1
 598 38 l 2,1265,1266
 599 37 599 37 600 36 c 0,1267,1268
 602 32 602 32 604 27.5 c 128,-1,1269
 606 23 606 23 608 17 c 2,1270,-1
 608 15 l 2,1271,1272
 608 13 608 13 609 13 c 1,1273,1274
 609 12 609 12 610 11 c 2,1275,-1
 610 9 l 1,1276,-1
 610 7 l 1,1277,1278
 610 7 610 7 611 7 c 0,1279,1280
 612 5 612 5 612 3 c 128,-1,1281
 612 1 612 1 614 -1 c 2,1282,-1
 615 -3 l 2,1283,1284
 616 -6 616 -6 616 -5 c 1,1285,1286
 615 -8 615 -8 616 -12 c 2,1287,-1
 616 -16 l 2,1288,1289
 617 -17 617 -17 617 -18 c 2,1290,-1
 617 -23 l 2,1291,1292
 618 -27 618 -27 618.5 -30.5 c 128,-1,1293
 619 -34 619 -34 618 -38 c 0,1294,1295
 617 -40 617 -40 617 -44 c 2,1296,-1
 617 -48 l 2,1297,1298
 617 -50 617 -50 616 -52 c 0,1299,1300
 615 -56 615 -56 615 -58 c 2,1301,-1
 615 -62 l 2,1302,1303
 615 -64 615 -64 614 -66 c 2,1304,-1
 619 -70 l 1,1305,-1
 621 -72 l 1,1306,-1
 623 -74 l 1,1307,-1
 625 -74 l 1,1308,-1
 629 -74 l 1,1309,-1
 629 -75 l 1,1310,1311
 631 -75 631 -75 633 -76 c 2,1312,1313
 633 -76 633 -76 635 -76 c 2,1314,-1
 637 -76 l 2,1315,1316
 639 -76 639 -76 642 -75.5 c 128,-1,1317
 645 -75 645 -75 649 -75 c 0,1318,1319
 650 -75 650 -75 651.5 -74.5 c 128,-1,1320
 653 -74 653 -74 655 -74 c 2,1321,-1
 657 -74 l 1,1322,-1
 659 -72 l 1,1323,1324
 659 -72 659 -72 660 -70 c 2,1325,-1
 663 -66 l 2,1326,1327
 665 -64 665 -64 665 -62 c 1,1328,-1
 667 -62 l 1,212,-1
420 426 m 0,1329,1330
 420 423 420 423 418 427 c 2,1331,-1
 418 428 l 2,1332,1333
 418 429 418 429 419 431 c 1,1334,1335
 419 430 419 430 420 429 c 0,1336,1337
 420 428 420 428 420.5 427.5 c 128,-1,1338
 421 427 421 427 420 426 c 0,1329,1330
389 467 m 1,1339,-1
 391 465 l 1,1340,-1
 392 464 l 2,1341,1342
 393 463 393 463 393 462 c 128,-1,1343
 393 461 393 461 395 459 c 1,1344,1345
 393 460 393 460 391 461.5 c 128,-1,1346
 389 463 389 463 387 464 c 1,1347,1348
 389 466 389 466 389 467 c 1,1339,-1
425 445 m 1,1349,-1
 427 439 l 2,1350,1351
 428 436 428 436 430 432 c 0,1352,1353
 430 429 430 429 428 428 c 0,1354,1355
 426 426 426 426 426 423 c 128,-1,1356
 426 420 426 420 425 418 c 0,1357,1358
 425 417 425 417 424.5 417 c 128,-1,1359
 424 417 424 417 424 416 c 2,1360,-1
 424 415 l 1,1361,-1
 423 413 l 1,1362,-1
 422 411 l 1,1363,-1
 418 413 l 1,1364,-1
 414 415 l 2,1365,1366
 413 415 413 415 413 417 c 256,1367,1368
 413 419 413 419 410 419 c 2,1369,-1
 406 421 l 2,1370,1371
 405 423 405 423 403 425 c 0,1372,1373
 403 427 403 427 402 428 c 1,1374,-1
 403 429 l 1,1375,-1
 403 429 l 1,1376,1377
 405 429 405 429 405 428 c 1,1378,-1
 405 431 l 1,1379,-1
 407 428 l 2,1380,1381
 407 427 407 427 409 425 c 0,1382,1383
 410 425 410 425 412 424 c 2,1384,-1
 412 423 l 2,1385,1386
 414 421 414 421 416 423 c 0,1387,1388
 416 425 416 425 418 425 c 128,-1,1389
 420 425 420 425 420 426 c 2,1390,-1
 420 429 l 1,1391,-1
 420 433 l 2,1392,1393
 421 434 421 434 421 437 c 0,1394,1395
 420 438 420 438 420 439 c 2,1396,-1
 418 440 l 1,1397,-1
 418 441 l 2,1398,1399
 418 443 418 443 416 443 c 2,1400,-1
 415 443 l 1,1401,1402
 415 444 415 444 416 445 c 2,1403,-1
 416 447 l 2,1404,1405
 414 449 414 449 412 449 c 0,1406,1407
 409 450 409 450 407 451 c 0,1408,1409
 407 452 407 452 405 453 c 2,1410,-1
 406 456 l 1,1411,-1
 407 455 l 2,1412,1413
 409 453 409 453 414 451 c 2,1414,-1
 416 451 l 1,1415,1416
 416 449 416 449 418 447 c 0,1417,1418
 419 447 419 447 420 447 c 1,1419,1420
 420 445 420 445 422 445 c 0,1421,1422
 424 443 424 443 424 445 c 1,1423,-1
 425 445 l 1,1349,-1
EndSplineSet
Validated: 133
EndChar

StartChar: V
Encoding: 86 86 34
Width: 1024
Flags: W
LayerCount: 2
Fore
SplineSet
788 272 m 1,0,-1
 902 168 l 1,1,-1
 804 -1 l 1,2,-1
 662 44 l 1,3,4
 641 28 641 28 617 16 c 1,5,-1
 584 -134 l 1,6,-1
 389 -134 l 1,7,-1
 356 11 l 1,8,9
 332 22 332 22 310 37 c 1,10,-1
 163 -9 l 1,11,-1
 66 160 l 1,12,-1
 175 260 l 1,13,14
 173 276 173 276 173 293 c 0,15,16
 173 302 173 302 174 313 c 1,17,-1
 61 417 l 1,18,-1
 159 586 l 1,19,-1
 300 541 l 1,20,21
 322 557 322 557 346 569 c 1,22,-1
 379 719 l 1,23,-1
 574 719 l 1,24,-1
 606 574 l 1,25,26
 631 563 631 563 653 548 c 1,27,-1
 799 594 l 1,28,-1
 897 425 l 1,29,-1
 788 325 l 1,30,31
 789 309 789 309 789 293 c 0,32,33
 789 283 789 283 788 272 c 1,0,-1
481.5 143 m 128,-1,35
 543 143 543 143 587 187 c 128,-1,36
 631 231 631 231 631 292.5 c 128,-1,37
 631 354 631 354 587 398 c 128,-1,38
 543 442 543 442 481.5 442 c 128,-1,39
 420 442 420 442 376 398 c 128,-1,40
 332 354 332 354 332 292.5 c 128,-1,41
 332 231 332 231 376 187 c 128,-1,34
 420 143 420 143 481.5 143 c 128,-1,35
EndSplineSet
Validated: 1
EndChar

StartChar: W
Encoding: 87 87 35
Width: 1024
Flags: W
LayerCount: 2
Fore
SplineSet
425 514 m 0,0,1
 427 510 427 510 428 506 c 128,-1,2
 429 502 429 502 431 498 c 0,3,4
 431 495 431 495 427 492 c 2,5,6
 427 492 427 492 419 480 c 0,7,8
 417 477 417 477 415 481 c 2,9,-1
 413 484 l 1,10,11
 413 484 413 484 409 492 c 0,12,13
 407 496 407 496 405 498 c 0,14,15
 403 499 403 499 403 500 c 0,16,17
 403 502 403 502 401 504 c 0,18,19
 400 506 400 506 402 506 c 0,20,21
 405 506 405 506 405 508 c 0,22,23
 407 510 407 510 410 512 c 128,-1,24
 413 514 413 514 416 518 c 2,25,-1
 417 519 l 1,26,27
 417 519 417 519 418 519 c 0,28,29
 420 519 420 519 421 520 c 128,-1,30
 422 521 422 521 424 521 c 1,31,32
 423 516 423 516 425 514 c 0,0,1
663 57 m 1,33,34
 667 59 667 59 674 60 c 0,35,36
 680 62 680 62 684 64 c 1,37,-1
 693 49 l 1,38,39
 687 47 687 47 682.5 48 c 128,-1,40
 678 49 678 49 673 51 c 0,41,42
 667 53 667 53 663 57 c 1,33,34
582 386 m 1,43,-1
 584 384 l 2,44,45
 583 382 583 382 582.5 378 c 128,-1,46
 582 374 582 374 582 370 c 0,47,48
 580 363 580 363 582 359 c 0,49,50
 582 357 582 357 583 355 c 0,51,52
 582 354 582 354 582 353.5 c 128,-1,53
 582 353 582 353 581 353 c 2,54,-1
 580 351 l 1,55,-1
 578 349 l 1,56,57
 578 349 578 349 578 347 c 1,58,-1
 574 349 l 1,59,-1
 574 354 l 2,60,61
 572 358 572 358 574 360 c 0,62,63
 578 365 578 365 578 372 c 2,64,-1
 578 376 l 2,65,66
 579 380 579 380 580 382 c 2,67,-1
 582 386 l 1,43,-1
699 72 m 1,68,69
 703 74 703 74 705 78 c 0,70,71
 709 81 709 81 711 84 c 0,72,73
 713 86 713 86 715 90 c 1,74,-1
 715 80 l 2,75,76
 715 76 715 76 714 71 c 128,-1,77
 713 66 713 66 710 62 c 1,78,-1
 699 72 l 1,68,69
512 723 m 256,79,80
 571 723 571 723 625.5 707.5 c 128,-1,81
 680 692 680 692 728 664 c 128,-1,82
 776 636 776 636 815.5 596.5 c 128,-1,83
 855 557 855 557 883 509 c 128,-1,84
 911 461 911 461 926 406.5 c 128,-1,85
 941 352 941 352 941 293 c 256,86,87
 941 234 941 234 926 179.5 c 128,-1,88
 911 125 911 125 883 77 c 128,-1,89
 855 29 855 29 815.5 -11 c 128,-1,90
 776 -51 776 -51 728 -78.5 c 128,-1,91
 680 -106 680 -106 625.5 -121.5 c 128,-1,92
 571 -137 571 -137 512 -137 c 256,93,94
 453 -137 453 -137 398.5 -121.5 c 128,-1,95
 344 -106 344 -106 296 -78.5 c 128,-1,96
 248 -51 248 -51 208 -11 c 128,-1,97
 168 29 168 29 140.5 77 c 128,-1,98
 113 125 113 125 97.5 179.5 c 128,-1,99
 82 234 82 234 82 293 c 256,100,101
 82 352 82 352 97.5 406.5 c 128,-1,102
 113 461 113 461 140.5 509 c 128,-1,103
 168 557 168 557 208 596.5 c 128,-1,104
 248 636 248 636 296 664 c 128,-1,105
 344 692 344 692 398.5 707.5 c 128,-1,106
 453 723 453 723 512 723 c 256,79,80
740 67 m 0,107,108
 745 69 745 69 745.5 72.5 c 128,-1,109
 746 76 746 76 744 77 c 0,110,111
 744 78 744 78 740 82 c 0,112,113
 737 86 737 86 733 90 c 0,114,115
 729 95 729 95 724 101 c 1,116,-1
 724 104 l 2,117,118
 724 106 724 106 723 108 c 2,119,-1
 721 111 l 1,120,-1
 727 124 l 1,121,-1
 727 139 l 1,122,-1
 723 144 l 1,123,-1
 720 145 l 1,124,-1
 719 143 l 1,125,-1
 715 147 l 1,126,-1
 713 148 l 1,127,-1
 711 145 l 1,128,-1
 625 243 l 1,129,-1
 628 253 l 1,130,-1
 617 272 l 1,131,-1
 607 275 l 1,132,-1
 604 271 l 1,133,-1
 603 272 l 1,134,-1
 603 278 l 1,135,136
 604 278 604 278 607 280 c 0,137,138
 611 280 611 280 614 280 c 0,139,140
 617 282 617 282 621 282 c 2,141,-1
 623 282 l 1,142,-1
 625 284 l 2,143,144
 626 284 626 284 627 284 c 1,145,146
 627 282 627 282 628 282 c 256,147,148
 629 282 629 282 631 283 c 2,149,150
 631 283 631 283 635 285 c 0,151,152
 637 286 637 286 638 288 c 2,153,-1
 642 288 l 2,154,155
 644 288 644 288 644 290 c 0,156,157
 646 292 646 292 649 293 c 128,-1,158
 652 294 652 294 654 295 c 0,159,160
 655 295 655 295 655.5 295.5 c 128,-1,161
 656 296 656 296 657 296 c 2,162,-1
 658 298 l 2,163,164
 658 299 658 299 659 299.5 c 128,-1,165
 660 300 660 300 660 302 c 0,166,167
 662 307 662 307 664 312 c 0,168,169
 668 319 668 319 670 327 c 0,170,171
 671 330 671 330 670 332 c 128,-1,172
 669 334 669 334 668 337 c 0,173,174
 668 341 668 341 666 343 c 0,175,176
 664 347 664 347 668 351 c 1,177,-1
 668 352 l 1,178,-1
 668 353 l 1,179,180
 668 353 668 353 668 355 c 2,181,-1
 668 357 l 2,182,183
 668 361 668 361 669 368 c 2,184,185
 669 368 669 368 669 375 c 0,186,187
 668 381 668 381 667 385.5 c 128,-1,188
 666 390 666 390 666 394 c 0,189,190
 665 396 665 396 666 398 c 2,191,-1
 666 400 l 1,192,-1
 668 408 l 1,193,-1
 668 412 l 2,194,195
 666 417 666 417 666 419 c 0,196,197
 666 423 666 423 667 427.5 c 128,-1,198
 668 432 668 432 668 437 c 0,199,200
 668 439 668 439 669 442 c 128,-1,201
 670 445 670 445 670 447 c 2,202,-1
 670 459 l 1,203,-1
 670 461 l 2,204,205
 670 463 670 463 671 465.5 c 128,-1,206
 672 468 672 468 672 469 c 2,207,208
 672 469 672 469 672 474 c 2,209,-1
 672 482 l 2,210,211
 672 492 672 492 669 500 c 0,212,213
 665 510 665 510 659 520 c 0,214,215
 657 522 657 522 656 526 c 2,216,217
 656 526 656 526 652 530 c 0,218,219
 650 532 650 532 649 534 c 0,220,221
 643 538 643 538 638 544 c 0,222,223
 638 545 638 545 637.5 546 c 128,-1,224
 637 547 637 547 635 548 c 0,225,226
 631 551 631 551 629 555 c 0,227,228
 628 556 628 556 626.5 557 c 128,-1,229
 625 558 625 558 624 559 c 2,230,-1
 623 561 l 1,231,-1
 621 561 l 1,232,233
 621 562 621 562 620 563 c 2,234,235
 620 563 620 563 617 570 c 0,236,237
 615 574 615 574 611 576 c 1,238,239
 613 578 613 578 613 579 c 0,240,241
 612 586 612 586 611 590 c 0,242,243
 611 594 611 594 609 596 c 2,244,-1
 609 601 l 1,245,-1
 609 608 l 1,246,-1
 609 614 l 2,247,248
 609 618 609 618 609 623 c 0,249,250
 609 627 609 627 607 633 c 0,251,252
 606 637 606 637 604.5 639.5 c 128,-1,253
 603 642 603 642 599 644 c 0,254,255
 597 646 597 646 594 647 c 128,-1,256
 591 648 591 648 589 650 c 2,257,-1
 586 651 l 2,258,259
 584 652 584 652 583 653.5 c 128,-1,260
 582 655 582 655 582 657 c 0,261,262
 582 658 582 658 581 658.5 c 128,-1,263
 580 659 580 659 579 661 c 0,264,265
 577 663 577 663 575.5 664 c 128,-1,266
 574 665 574 665 572 667 c 0,267,268
 566 674 566 674 559 675 c 0,269,270
 553 677 553 677 544 678 c 0,271,272
 533 679 533 679 527 679 c 0,273,274
 520 679 520 679 513.5 677.5 c 128,-1,275
 507 676 507 676 501 673 c 0,276,277
 497 672 497 672 494 669.5 c 128,-1,278
 491 667 491 667 488 666 c 0,279,280
 482 665 482 665 481 664 c 128,-1,281
 480 663 480 663 478 663 c 0,282,283
 473 655 473 655 475 643 c 0,284,285
 475 641 475 641 474.5 638 c 128,-1,286
 474 635 474 635 474 633 c 1,287,-1
 472 633 l 1,288,-1
 470 633 l 1,289,290
 470 633 470 633 464 633 c 2,291,-1
 460 633 l 1,292,-1
 458 632 l 2,293,294
 454 630 454 630 450 628.5 c 128,-1,295
 446 627 446 627 442 626 c 1,296,-1
 442 625 l 2,297,298
 440 623 440 623 438 623 c 0,299,300
 431 621 431 621 426 618.5 c 128,-1,301
 421 616 421 616 417 614 c 0,302,303
 413 611 413 611 409 607.5 c 128,-1,304
 405 604 405 604 402 598 c 1,305,-1
 401 598 l 1,306,-1
 401 597 l 2,307,308
 401 596 401 596 399 596 c 128,-1,309
 397 596 397 596 396 595 c 128,-1,310
 395 594 395 594 393 593 c 2,311,-1
 393 592 l 1,312,313
 393 592 393 592 389 590 c 2,314,315
 389 590 389 590 385 586 c 2,316,-1
 382 585 l 2,317,318
 378 584 378 584 375 582 c 128,-1,319
 372 580 372 580 370 578 c 2,320,321
 370 578 370 578 362 570 c 0,322,323
 358 565 358 565 356 560 c 0,324,325
 354 556 354 556 350 553 c 0,326,327
 348 551 348 551 347 549 c 128,-1,328
 346 547 346 547 344 545 c 128,-1,329
 342 543 342 543 341 540.5 c 128,-1,330
 340 538 340 538 338 536 c 0,331,332
 336 532 336 532 336 529 c 0,333,334
 336 525 336 525 334 525 c 0,335,336
 331 523 331 523 327 523 c 0,337,338
 325 522 325 522 326 520 c 0,339,340
 326 518 326 518 326.5 516 c 128,-1,341
 327 514 327 514 327 512 c 0,342,343
 329 508 329 508 330 504.5 c 128,-1,344
 331 501 331 501 334 497 c 0,345,346
 336 491 336 491 338 486 c 0,347,348
 340 480 340 480 344 476 c 2,349,-1
 348 472 l 2,350,351
 348 468 348 468 349 465 c 2,352,-1
 354 462 l 2,353,354
 356 460 356 460 358 459 c 0,355,356
 362 457 362 457 364 455 c 0,357,358
 365 454 365 454 366 453 c 2,359,360
 366 453 366 453 368 452 c 128,-1,361
 370 451 370 451 373 449 c 2,362,-1
 378 448 l 2,363,364
 385 446 385 446 387 444 c 0,365,366
 387 442 387 442 386.5 441 c 128,-1,367
 386 440 386 440 385 439 c 0,368,369
 378 433 378 433 373.5 426 c 128,-1,370
 369 419 369 419 365 414 c 0,371,372
 362 410 362 410 360 405 c 0,373,374
 356 400 356 400 354 396 c 128,-1,375
 352 392 352 392 354 388 c 128,-1,376
 356 384 356 384 358 379.5 c 128,-1,377
 360 375 360 375 362 369 c 0,378,379
 363 367 363 367 364 366 c 0,380,381
 365 366 365 366 366 363 c 0,382,383
 368 361 368 361 368 359 c 0,384,385
 367 357 367 357 366.5 355 c 128,-1,386
 366 353 366 353 366 351 c 0,387,388
 365 349 365 349 361 345 c 2,389,-1
 354 339 l 1,390,-1
 352 337 l 2,391,392
 352 335 352 335 351 332 c 0,393,394
 352 330 352 330 350 329 c 0,395,396
 348 327 348 327 345.5 322 c 128,-1,397
 343 317 343 317 341 315 c 0,398,399
 340 312 340 312 340 311 c 2,400,401
 340 311 340 311 340 304 c 0,402,403
 340 300 340 300 339 296 c 0,404,405
 336 292 336 292 336 290 c 2,406,407
 336 290 336 290 336 285 c 0,408,409
 336 278 336 278 334 274 c 0,410,411
 334 272 334 272 331 272 c 0,412,413
 330 270 330 270 331 268 c 2,414,415
 331 268 331 268 331 261 c 0,416,417
 330 257 330 257 331 254 c 0,418,419
 334 251 334 251 334 247 c 0,420,421
 334 246 334 246 331 244 c 0,422,423
 327 240 327 240 323 236.5 c 128,-1,424
 319 233 319 233 315 229 c 1,425,-1
 317 227 l 2,426,427
 319 225 319 225 317 223 c 2,428,-1
 315 221 l 2,429,430
 312 219 312 219 311 217 c 0,431,432
 307 204 307 204 303 198 c 0,433,434
 301 195 301 195 302 193 c 0,435,436
 301 192 301 192 301 190 c 128,-1,437
 301 188 301 188 301 186 c 1,438,439
 302 186 302 186 302 184 c 2,440,441
 302 184 302 184 302 177 c 0,442,443
 303 174 303 174 303 170 c 2,444,445
 303 170 303 170 303 168 c 0,446,447
 304 165 304 165 304.5 160 c 128,-1,448
 305 155 305 155 307 151 c 0,449,450
 307 149 307 149 309 147 c 2,451,452
 309 147 309 147 312 147 c 0,453,454
 318 145 318 145 324 147 c 128,-1,455
 330 149 330 149 335 152 c 2,456,-1
 343 158 l 2,457,458
 346 159 346 159 348 162 c 0,459,460
 350 166 350 166 353 168 c 2,461,-1
 354 168 l 2,462,463
 356 168 356 168 357 171 c 0,464,465
 358 175 358 175 359 177.5 c 128,-1,466
 360 180 360 180 361 184 c 0,467,468
 362 187 362 187 363 189.5 c 128,-1,469
 364 192 364 192 366 196 c 0,470,471
 366 198 366 198 368 198 c 2,472,-1
 369 199 l 1,473,-1
 370 200 l 2,474,475
 372 204 372 204 374 209 c 128,-1,476
 376 214 376 214 376 219 c 0,477,478
 376 221 376 221 379 223 c 0,479,480
 383 225 383 225 387 226 c 0,481,482
 388 227 388 227 389.5 227.5 c 128,-1,483
 391 228 391 228 393 229 c 0,484,485
 395 229 395 229 397 232 c 0,486,487
 399 234 399 234 401 235.5 c 128,-1,488
 403 237 403 237 406 237 c 0,489,490
 413 237 413 237 417 241 c 0,491,492
 419 242 419 242 421 243 c 2,493,-1
 424 247 l 1,494,495
 433 251 433 251 438 257 c 1,496,-1
 438 258 l 2,497,498
 439 259 439 259 439 260 c 1,499,500
 440 260 440 260 440 259.5 c 128,-1,501
 440 259 440 259 441 259 c 1,502,503
 440 257 440 257 440 255 c 0,504,505
 438 249 438 249 436 244 c 2,506,507
 436 244 436 244 431 235 c 0,508,509
 427 227 427 227 425 218 c 2,510,511
 425 218 425 218 425 215 c 2,512,513
 425 215 425 215 424 213 c 0,514,515
 423 209 423 209 423 205 c 0,516,517
 422 201 422 201 421.5 197.5 c 128,-1,518
 421 194 421 194 420 190 c 0,519,520
 419 188 419 188 419 189 c 1,521,522
 417 187 417 187 417 186 c 0,523,524
 415 184 415 184 413 184 c 0,525,526
 410 182 410 182 412 178 c 0,527,528
 412 177 412 177 412.5 175.5 c 128,-1,529
 413 174 413 174 413 173 c 1,530,531
 411 174 411 174 409 170 c 0,532,533
 406 167 406 167 407 164 c 2,534,-1
 407 163 l 1,535,-1
 407 162 l 1,536,-1
 405 162 l 2,537,538
 404 162 404 162 403 164 c 0,539,540
 401 164 401 164 400 161.5 c 128,-1,541
 399 159 399 159 399 158 c 0,542,543
 397 153 397 153 397 149 c 2,544,-1
 397 147 l 1,545,546
 397 147 397 147 397 144 c 0,547,548
 397 143 397 143 395 142 c 2,549,-1
 395 141 l 2,550,551
 394 140 394 140 393 139 c 2,552,-1
 393 137 l 2,553,554
 393 135 393 135 391 135 c 0,555,556
 387 132 387 132 387 130 c 2,557,-1
 382 123 l 2,558,559
 380 121 380 121 378 117 c 0,560,561
 376 115 376 115 377 112 c 0,562,563
 375 102 375 102 371 98 c 0,564,565
 370 97 370 97 369 96.5 c 128,-1,566
 368 96 368 96 368 94 c 128,-1,567
 368 92 368 92 367 92 c 2,568,-1
 366 92 l 1,569,570
 366 92 366 92 362 88 c 0,571,572
 360 85 360 85 357 81.5 c 128,-1,573
 354 78 354 78 352 75 c 2,574,575
 352 75 352 75 352 74 c 256,576,577
 352 73 352 73 351 72 c 1,578,-1
 352 71 l 2,579,580
 352 69 352 69 349 66 c 2,581,-1
 346 64 l 2,582,583
 342 64 342 64 338 60 c 0,584,585
 336 57 336 57 336 53 c 0,586,587
 336 47 336 47 335 43 c 128,-1,588
 334 39 334 39 332 34 c 0,589,590
 331 31 331 31 330 31 c 0,591,592
 327 29 327 29 325 27 c 0,593,594
 323 23 323 23 323 21 c 0,595,596
 321 17 321 17 321 15 c 1,597,-1
 323 15 l 2,598,599
 327 13 327 13 325 11 c 0,600,601
 325 6 325 6 324 1.5 c 128,-1,602
 323 -3 323 -3 321 -7 c 0,603,604
 319 -10 319 -10 319 -14 c 0,605,606
 317 -16 317 -16 317 -20 c 2,607,-1
 313 -28 l 2,608,609
 311 -30 311 -30 310.5 -33.5 c 128,-1,610
 310 -37 310 -37 311 -40 c 2,611,-1
 311 -45 l 1,612,-1
 311 -53 l 1,613,614
 311 -53 311 -53 311 -55 c 0,615,616
 311 -56 311 -56 313 -57 c 0,617,618
 317 -59 317 -59 322 -62 c 0,619,620
 328 -64 328 -64 334 -67 c 0,621,622
 340 -71 340 -71 346 -73 c 2,623,-1
 351 -75 l 2,624,625
 354 -77 354 -77 358 -76 c 0,626,627
 358 -75 358 -75 360 -75 c 2,628,-1
 366 -75 l 2,629,630
 368 -75 368 -75 372 -73 c 2,631,-1
 373 -73 l 1,632,-1
 374 -73 l 1,633,-1
 376 -73 l 2,634,635
 382 -71 382 -71 387 -67 c 2,636,-1
 395 -59 l 2,637,638
 396 -59 396 -59 396 -57 c 2,639,640
 396 -57 396 -57 396 -53 c 0,641,642
 396 -51 396 -51 395 -49 c 2,643,644
 395 -49 395 -49 397 -47 c 2,645,-1
 397 -45 l 2,646,647
 395 -40 395 -40 393.5 -36 c 128,-1,648
 392 -32 392 -32 391 -28 c 0,649,650
 389 -25 389 -25 389 -24 c 1,651,652
 387 -24 387 -24 387 -22 c 2,653,-1
 387 -16 l 1,654,-1
 387 -8 l 1,655,-1
 387 -6 l 1,656,-1
 388 -6 l 1,657,658
 388 -4 388 -4 388.5 -1 c 128,-1,659
 389 2 389 2 390 4 c 0,660,661
 389 6 389 6 389.5 8.5 c 128,-1,662
 390 11 390 11 391 12 c 0,663,664
 392 16 392 16 393 18 c 0,665,666
 393 19 393 19 394 20 c 0,667,668
 395 23 395 23 395 25 c 2,669,-1
 395 28 l 1,670,-1
 395 30 l 2,671,672
 395 32 395 32 396 34 c 2,673,-1
 398 36 l 2,674,675
 399 37 399 37 400 37 c 0,676,677
 402 41 402 41 405 41 c 0,678,679
 406 41 406 41 407 42 c 0,680,681
 409 44 409 44 411 46.5 c 128,-1,682
 413 49 413 49 415 51 c 0,683,684
 417 52 417 52 418 57 c 0,685,686
 420 62 420 62 422 65 c 0,687,688
 425 66 425 66 427 68 c 0,689,690
 429 69 429 69 431 69.5 c 128,-1,691
 433 70 433 70 435.5 70 c 128,-1,692
 438 70 438 70 440 72 c 2,693,-1
 446 78 l 2,694,695
 450 80 450 80 450 84 c 0,696,697
 452 88 452 88 455 90 c 0,698,699
 455 91 455 91 456 92 c 2,700,-1
 458 92 l 2,701,702
 460 94 460 94 460 96 c 2,703,-1
 463 98 l 2,704,705
 464 98 464 98 466 100 c 0,706,707
 470 102 470 102 469 106 c 2,708,-1
 468 111 l 2,709,710
 468 115 468 115 471 115 c 2,711,-1
 477 119 l 2,712,713
 478 119 478 119 480 120 c 128,-1,714
 482 121 482 121 487 121 c 2,715,-1
 493 127 l 2,716,717
 495 129 495 129 495 133 c 1,718,719
 496 133 496 133 496 135 c 0,720,721
 497 136 497 136 497 137 c 2,722,-1
 499 139 l 1,723,-1
 499 141 l 2,724,725
 500 142 500 142 501.5 143 c 128,-1,726
 503 144 503 144 503 145 c 0,727,728
 507 151 507 151 511 157 c 0,729,730
 515 164 515 164 519 170 c 0,731,732
 520 171 520 171 521 172.5 c 128,-1,733
 522 174 522 174 523 174 c 2,734,-1
 525 178 l 2,735,736
 526 179 526 179 526.5 180.5 c 128,-1,737
 527 182 527 182 527 184 c 1,738,739
 527 180 527 180 530 176 c 256,740,741
 533 172 533 172 543 166 c 0,742,743
 544 162 544 162 546 157.5 c 128,-1,744
 548 153 548 153 553 149 c 128,-1,745
 558 145 558 145 565 142 c 2,746,-1
 609 92 l 1,747,748
 609 84 609 84 613 74 c 0,749,750
 617 67 617 67 624.5 59 c 128,-1,751
 632 51 632 51 649 44 c 1,752,-1
 672 19 l 2,753,754
 673 18 673 18 674 18 c 128,-1,755
 675 18 675 18 676.5 17.5 c 128,-1,756
 678 17 678 17 680 19 c 0,757,758
 684 21 684 21 684 24 c 2,759,-1
 684 28 l 1,760,-1
 678 35 l 1,761,762
 682 34 682 34 686.5 34 c 128,-1,763
 691 34 691 34 695 34.5 c 128,-1,764
 699 35 699 35 703 37 c 1,765,-1
 714 27 l 1,766,-1
 717 27 l 2,767,768
 721 27 721 27 723 29 c 128,-1,769
 725 31 725 31 725 33 c 1,770,771
 726 33 726 33 726 35 c 0,772,773
 725 37 725 37 725 39 c 2,774,-1
 718 49 l 1,775,-1
 722 57 l 2,776,777
 724 62 724 62 724.5 65 c 128,-1,778
 725 68 725 68 725 72 c 1,779,-1
 730 67 l 2,780,781
 731 66 731 66 733 66 c 0,782,783
 737 66 737 66 740 67 c 0,107,108
EndSplineSet
Validated: 1
EndChar

StartChar: a
Encoding: 97 97 36
Width: 926
Flags: W
LayerCount: 2
Fore
SplineSet
425 198 m 1,0,-1
 177 -49 l 1,1,-1
 108 20 l 1,2,-1
 355 269 l 1,3,-1
 370 253 l 2,4,5
 373 255 373 255 374 256.5 c 128,-1,6
 375 258 375 258 377 260 c 2,7,-1
 745 630 l 2,8,9
 754 639 754 639 763 644.5 c 128,-1,10
 772 650 772 650 780.5 653 c 128,-1,11
 789 656 789 656 796.5 655.5 c 128,-1,12
 804 655 804 655 807 650 c 0,13,14
 812 646 812 646 812.5 639.5 c 128,-1,15
 813 633 813 633 809.5 624 c 128,-1,16
 806 615 806 615 800.5 606 c 128,-1,17
 795 597 795 597 787 588 c 2,18,-1
 417 220 l 2,19,20
 415 218 415 218 413 217 c 128,-1,21
 411 216 411 216 409 213 c 2,22,-1
 425 198 l 1,0,-1
566 252 m 1,23,-1
 812 4 l 1,24,-1
 742 -65 l 1,25,-1
 496 182 l 1,26,-1
 510 195 l 1,27,28
 507 198 507 198 505 199 c 0,29,30
 505 200 505 200 503 202 c 2,31,-1
 485 222 l 1,32,-1
 524 263 l 1,33,-1
 544 245 l 2,34,35
 547 243 547 243 548.5 240.5 c 128,-1,36
 550 238 550 238 551 236 c 1,37,-1
 566 252 l 1,23,-1
133 573 m 2,38,39
 124 582 124 582 118 591 c 128,-1,40
 112 600 112 600 110 608 c 128,-1,41
 108 616 108 616 108 623.5 c 128,-1,42
 108 631 108 631 112 634 c 0,43,44
 117 639 117 639 123.5 639.5 c 128,-1,45
 130 640 130 640 139 636.5 c 128,-1,46
 148 633 148 633 157 627.5 c 128,-1,47
 166 622 166 622 175 613 c 2,48,-1
 422 366 l 1,49,-1
 379 327 l 1,50,-1
 133 573 l 2,38,39
821 332 m 0,51,52
 837 305 837 305 859 292 c 1,53,54
 837 278 837 278 821 254 c 0,55,56
 812 243 812 243 807 229.5 c 128,-1,57
 802 216 802 216 797 199 c 0,58,59
 789 170 789 170 790 141 c 128,-1,60
 791 112 791 112 803 90 c 1,61,-1
 680 214 l 2,62,63
 681 218 681 218 682 221.5 c 128,-1,64
 683 225 683 225 685 229 c 2,65,66
 685 229 685 229 687 240 c 0,67,68
 689 246 689 246 689 252 c 0,69,70
 690 257 690 257 691 263 c 128,-1,71
 692 269 692 269 692 274 c 2,72,73
 692 274 692 274 692 281 c 2,74,75
 692 281 692 281 692 287 c 0,76,77
 692 290 692 290 693 292 c 0,78,79
 692 294 692 294 692 298 c 2,80,81
 692 298 692 298 692 303 c 2,82,-1
 692 312 l 2,83,84
 692 317 692 317 690.5 322.5 c 128,-1,85
 689 328 689 328 689 333.5 c 128,-1,86
 689 339 689 339 687 344.5 c 128,-1,87
 685 350 685 350 685 355 c 0,88,89
 684 359 684 359 682 362.5 c 128,-1,90
 680 366 680 366 680 371 c 2,91,-1
 803 495 l 1,92,93
 791 472 791 472 789.5 443.5 c 128,-1,94
 788 415 788 415 797 386 c 0,95,96
 802 371 802 371 807 357.5 c 128,-1,97
 812 344 812 344 821 332 c 0,51,52
386 528 m 0,98,99
 382 527 382 527 378.5 525 c 128,-1,100
 375 523 375 523 370 523 c 2,101,-1
 247 646 l 1,102,103
 269 634 269 634 298 633 c 0,104,105
 325 633 325 633 355 640 c 0,106,107
 370 645 370 645 384 650.5 c 128,-1,108
 398 656 398 656 410 664 c 0,109,110
 423 673 423 673 432.5 682 c 128,-1,111
 442 691 442 691 449 702 c 1,112,113
 462 682 462 682 489 664 c 0,114,115
 501 655 501 655 514.5 650 c 128,-1,116
 528 645 528 645 543 640 c 0,117,118
 572 633 572 633 600.5 634.5 c 128,-1,119
 629 636 629 636 651 646 c 1,120,-1
 528 523 l 1,121,122
 523 524 523 524 519.5 525 c 128,-1,123
 516 526 516 526 512 528 c 0,124,125
 501 531 501 531 489 532 c 0,126,127
 485 532 485 532 479.5 533.5 c 128,-1,128
 474 535 474 535 469 535 c 2,129,130
 469 535 469 535 461 535 c 2,131,-1
 455 535 l 2,132,133
 452 535 452 535 449 536 c 0,134,135
 447 535 447 535 444 535 c 2,136,137
 444 535 444 535 438 535 c 2,138,-1
 430 535 l 2,139,140
 425 535 425 535 419 533.5 c 128,-1,141
 413 532 413 532 409 532 c 0,142,143
 397 531 397 531 386 528 c 0,98,99
96 90 m 1,144,145
 108 113 108 113 109 142 c 128,-1,146
 110 171 110 171 102 199 c 0,147,148
 97 214 97 214 92 228.5 c 128,-1,149
 87 243 87 243 78 254 c 0,150,151
 63 281 63 281 40 292 c 1,152,153
 63 305 63 305 78 332 c 0,154,155
 87 344 87 344 92 357.5 c 128,-1,156
 97 371 97 371 102 386 c 0,157,158
 110 415 110 415 108 444 c 0,159,160
 108 472 108 472 96 495 c 1,161,-1
 219 371 l 1,162,163
 218 366 218 366 216.5 362.5 c 128,-1,164
 215 359 215 359 214 355 c 0,165,166
 213 349 213 349 212 344 c 128,-1,167
 211 339 211 339 210 333 c 2,168,-1
 207 322 l 2,169,170
 206 317 206 317 206 312 c 2,171,-1
 206 304 l 1,172,-1
 206 298 l 1,173,-1
 206 292 l 1,174,-1
 206 287 l 1,175,176
 206 287 206 287 206 282 c 2,177,-1
 206 274 l 2,178,179
 206 269 206 269 207.5 263 c 128,-1,180
 209 257 209 257 210 252 c 0,181,182
 210 246 210 246 211.5 241 c 128,-1,183
 213 236 213 236 214 229 c 0,184,185
 215 225 215 225 216 221 c 2,186,-1
 219 214 l 1,187,-1
 96 90 l 1,144,145
512 58 m 0,188,189
 516 59 516 59 519.5 60 c 128,-1,190
 523 61 523 61 528 63 c 1,191,-1
 651 -61 l 1,192,193
 629 -49 629 -49 600.5 -48 c 128,-1,194
 572 -47 572 -47 543 -54 c 0,195,196
 528 -58 528 -58 514.5 -64 c 128,-1,197
 501 -70 501 -70 489 -79 c 0,198,199
 462 -95 462 -95 449 -117 c 1,200,201
 437 -97 437 -97 410 -79 c 0,202,203
 398 -70 398 -70 385 -64 c 0,204,205
 370 -58 370 -58 355 -54 c 0,206,207
 325 -47 325 -47 297 -48 c 128,-1,208
 269 -49 269 -49 247 -61 c 1,209,-1
 370 63 l 1,210,211
 375 62 375 62 378.5 60 c 128,-1,212
 382 58 382 58 386 58 c 0,213,214
 392 56 392 56 397 55 c 2,215,-1
 409 53 l 2,216,217
 413 53 413 53 419 51 c 128,-1,218
 425 49 425 49 430 50 c 0,219,220
 434 50 434 50 438 49 c 0,221,222
 442 49 442 49 444 49 c 2,223,-1
 449 49 l 1,224,-1
 455 49 l 1,225,226
 455 49 455 49 460 49 c 256,227,228
 465 49 465 49 469 50 c 0,229,230
 474 50 474 50 479.5 51 c 128,-1,231
 485 52 485 52 489 53 c 0,232,233
 495 53 495 53 500.5 54.5 c 128,-1,234
 506 56 506 56 512 58 c 0,188,189
EndSplineSet
Validated: 33
EndChar

StartChar: b
Encoding: 98 98 37
Width: 1024
Flags: W
LayerCount: 2
Fore
SplineSet
506 640 m 0,0,1
 510 646 510 646 512 645 c 0,2,3
 516 643 516 643 556 584 c 0,4,5
 593 529 593 529 652 440 c 0,6,7
 710 354 710 354 752 291 c 2,8,-1
 792 232 l 1,9,-1
 792 149 l 1,10,-1
 792 66 l 1,11,-1
 789 70 l 2,12,13
 786 73 786 73 778 85 c 0,14,15
 767 102 767 102 660 265 c 0,16,17
 607 346 607 346 548 435 c 0,18,19
 518 480 518 480 515 483 c 2,20,-1
 512 486 l 1,21,-1
 509 482 l 2,22,23
 505 478 505 478 425 357 c 0,24,25
 403 323 403 323 331 214 c 0,26,27
 308 179 308 179 274 128 c 0,28,29
 261 109 261 109 254 98 c 128,-1,30
 247 87 247 87 242 80.5 c 128,-1,31
 237 74 237 74 235.5 72 c 128,-1,32
 234 70 234 70 233 71 c 0,33,34
 232 73 232 73 232 152 c 128,-1,35
 232 231 232 231 235 233 c 2,36,37
 235 233 235 233 410 496 c 0,38,39
 501 634 501 634 506 640 c 0,0,1
506 346 m 0,40,41
 510 352 510 352 511 352 c 0,42,43
 513 352 513 352 615 199 c 0,44,45
 711 55 711 55 751 -5 c 2,46,-1
 792 -66 l 1,47,-1
 512 -66 l 1,48,-1
 232 -66 l 2,49,50
 231 -65 231 -65 231 -65 c 129,-1,51
 231 -65 231 -65 296 32.5 c 128,-1,52
 361 130 361 130 431 235 c 128,-1,53
 501 340 501 340 506 346 c 0,40,41
EndSplineSet
Validated: 1
EndChar

